<?xml version="1.0" encoding="utf-8"?>
<!-- Generator: Adobe Illustrator 24.1.0, SVG Export Plug-In . SVG Version: 6.00 Build 0)  -->
<svg version="1.1" id="Ebene_1" xmlns="http://www.w3.org/2000/svg" xmlns:xlink="http://www.w3.org/1999/xlink" x="0px" y="0px"
	 viewBox="0 0 33.48 33.48" style="enable-background:new 0 0 33.48 33.48;" xml:space="preserve">
<g>
	<g>
		<path d="M10.36,12.75c2.01-0.06,4.02-0.11,6.02-0.17c0.98-0.03,1.97-0.06,2.95-0.08c0.95-0.03,1.96-0.13,2.9,0.03
			c0.9,0.15,1.29-1.23,0.38-1.39c-0.94-0.16-1.87-0.12-2.81-0.09c-1.06,0.03-2.13,0.06-3.19,0.09c-2.09,0.06-4.17,0.12-6.26,0.18
			C9.44,11.34,9.44,12.78,10.36,12.75L10.36,12.75z"/>
	</g>
</g>
<g>
	<g>
		<path d="M22.43,19.8c-4.01,0.11-8.05,0.32-12.07,0.2c-0.93-0.03-0.92,1.41,0,1.44c4.02,0.12,8.06-0.09,12.07-0.2
			C23.36,21.21,23.36,19.77,22.43,19.8L22.43,19.8z"/>
	</g>
</g>
<g>
	<g>
		<path d="M10.63,17.03c3.82-0.01,7.64-0.04,11.46,0.02c0.93,0.01,0.93-1.42,0-1.44c-3.82-0.05-7.64-0.02-11.46-0.02
			C9.71,15.59,9.7,17.03,10.63,17.03L10.63,17.03z"/>
	</g>
</g>
</svg>
