<?xml version="1.0" encoding="utf-8"?>
<!-- Generator: Adobe Illustrator 24.1.0, SVG Export Plug-In . SVG Version: 6.00 Build 0)  -->
<svg version="1.1" id="Ebene_1" xmlns="http://www.w3.org/2000/svg" xmlns:xlink="http://www.w3.org/1999/xlink" x="0px" y="0px"
	 viewBox="0 0 1125 1027" style="enable-background:new 0 0 1125 1027;" xml:space="preserve">
<style type="text/css">
	.st0{fill:#FDFCEF;}
	.st1{fill:#EF8F70;}
	.st2{fill:#C7EDE6;}
	.st3{fill:#EA6244;stroke:#000000;stroke-miterlimit:10;}
</style>
<g>
	<path class="st0" d="M516.63,637.44c-9.21-18.42-31.23-22.24-46.35-15.89l-6.27,3.52c-0.9-14.6-17.87-24.96-32.01-21.19
		c-14.14,3.77-23.56,18.75-23.42,33.38c-6.16-5.88-15.96-7.59-23.74-4.13c-7.79,3.46-13.09,11.86-12.86,20.38
		c-10.08-3.56-22.51,0.06-28.37,9.01s-3.77,22.45,5.01,28.55c4.67,3.25,10.52,4.29,16.19,4.7c23.25,1.7,45.61,0.96,68.91,1.54
		c15.91,0.4,32.22-2.13,48.03-0.27c15.81,1.86,32.71,1.26,46.37-6.92c4.84-2.9,9.23-6.79,11.81-11.8
		c6.57-12.7-1.64-30.06-15.22-34.54c-2.45-0.81-4.98-1.22-7.52-1.28L516.63,637.44z"/>
</g>
<g>
	<path class="st0" d="M705.27,399.46c11.82-9.85,18.38-12.47,32.41-10.01c11.38,2,23.2,11.71,23.96,23.24
		c15.07-6.04,32.71-7.41,47.27-0.23c14.56,7.18,24.69,24.19,20.85,39.96l0.06,5.66c10.04,3.69,16.87,14.19,17.19,24.89
		s-5.35,16.54-13.87,23.01c-13.06,9.9-37.61,8.16-53.99,8.32c-19.57,0.18-46.44,0.37-66.01,0.55h-7.88
		c-4.48-43.36,2.9-68.22-6.97-109.6L705.27,399.46z"/>
</g>
<g>
	<path class="st1" d="M416.39,612.76c0.19-59.01,0.38-127.41,0.58-186.42c-1.59-16.32,8.65-30.9,23.82-37
		c44.93-10.98,243.54-22.47,266.17,18.6c9.86,41.38,0.16,88.99,4.63,132.35c-2,41.62,9.23,90.32-15.4,126.18
		c-15.86,23.1-112.36,13.25-151.77,14.3c0,0-1.26-31.64-16.65-35.92s0,0,0,0l-9.41-2.57c0,0-5.13-17.11-22.24-21.38
		c-17.11-4.28-31.64,0.86-31.64,0.86s-11.97-18.82-26.51-18.82C423.42,602.94,416.39,612.76,416.39,612.76"/>
</g>
<g>
	<path class="st2" d="M826.48,513.72c3.2,12.5,0.86,26.32-6.29,37.07c-1.86,2.81-4.13,5.67-4.16,9.04
		c-0.04,4.45,3.73,7.83,6.87,10.98c23.28,23.35,22.4,64.41,2.32,90.56c-20.08,26.15-55.12,37.93-88.01,35.59
		c-12.97,23.54-38.07,39.94-64.83,42.38c-26.76,2.43-54.41-9.18-71.41-29.99c-17.86,20.71-40.69,37.43-66.53,46.4
		c-25.84,8.98-54.7,9.93-80.52,0.89c-27.28-9.55-50.45-30.28-62.96-56.34c0,0,106.86,3.56,120.55,1s29.93-13.68,29.93-17.1
		c0-3.42,108.62,5.13,124.87-0.86s34.21-11.97,38.49-26.51c4.28-14.54,9.41-35.07,9.41-62.43c0-27.37,0.86-76.97,0.86-76.97
		s84.67,0,90.66,0S826.48,513.72,826.48,513.72z"/>
</g>
<g>
	<path class="st2" d="M367.34,646.45c-4.9-8.72-5.73-19.62-2.2-28.98c-23.43,3.8-48.47-4.06-65.52-20.58
		c-17.05-16.52-25.7-41.3-22.64-64.84c1.63-12.53,6.34-24.48,12.04-35.76c5.75-11.39,12.73-22.46,22.62-30.52
		c9.89-8.06,23.1-12.8,35.59-10.18c-1.03-24.78,10.1-50.09,29.94-64.97c19.85-14.88,48.06-18.33,70.34-7.41
		c0,0-22.95,10.77-26.37,23.31s-5.13,202.41-5.13,202.41s-5.7,13.68-6.27,18.82c-0.57,5.13-1.15,9.51-1.15,9.51
		s-7.4-6.66-16.52-6.09c-9.12,0.57-19.39,9.12-22.81,15.39C365.83,652.83,367.34,646.45,367.34,646.45z"/>
</g>
<g>
	<path class="st2" d="M747.67,383.67c-0.73-28.84-14.17-56.72-34.68-77c-20.52-20.28-47.7-33.2-76.02-38.72
		c-40.45-7.89-85.64,0.23-115.48,28.65c-22.4,21.34-34.15,51.77-39.55,82.23c0,0,182.1-6.52,215.74,20.28
		c0,0,25.66-17.68,45.04-10.83L747.67,383.67z"/>
</g>
<g>
	<g>
		<path d="M708.45,401.94c0.98-0.82,1.98-1.63,2.99-2.42c-0.66,0.52,0.03-0.02,0.2-0.15c0.26-0.19,0.52-0.39,0.78-0.58
			c0.5-0.37,1-0.73,1.51-1.09c1.74-1.21,3.56-2.33,5.47-3.26c0.2-0.1,1.51-0.67,0.87-0.41c-0.64,0.26,0.66-0.25,0.87-0.32
			c0.94-0.33,1.89-0.61,2.86-0.83c0.44-0.1,0.88-0.19,1.32-0.26c0.09-0.02,0.72-0.16,0.75-0.12c0.01,0.01-1.18,0.12-0.29,0.05
			c1.05-0.09,2.1-0.16,3.16-0.17c1.02,0,2.04,0.04,3.06,0.12c0.48,0.04,0.96,0.08,1.44,0.13c0.31,0.03,0.62,0.07,0.93,0.11
			c0.33,0.04,0.25,0.03-0.25-0.03c0.19,0.03,0.39,0.06,0.58,0.09c2.3,0.35,4.55,0.83,6.74,1.63c0.26,0.09,1.74,0.73,0.77,0.29
			c0.5,0.23,1,0.45,1.49,0.69c1.04,0.52,2.05,1.09,3.03,1.71c0.52,0.33,1.03,0.67,1.53,1.03c0.2,0.14,0.4,0.29,0.59,0.43
			c-0.76-0.55-0.08-0.07,0.1,0.09c0.9,0.73,1.76,1.5,2.57,2.33c0.47,0.47,0.92,0.96,1.35,1.46c0.2,0.23,0.38,0.46,0.58,0.69
			c0.61,0.72-0.41-0.63,0.16,0.22c0.66,0.98,1.31,1.94,1.86,2.99c0.16,0.31,0.31,0.63,0.46,0.94c0.43,0.84-0.25-0.76,0.09,0.2
			c0.2,0.54,0.4,1.08,0.56,1.63c0.16,0.55,0.3,1.11,0.41,1.67c0.01,0.05,0.24,1.16,0.09,0.42c-0.14-0.69,0.06,0.63,0.07,0.78
			c0.2,2.6,2.77,5.5,5.7,4.34c3.17-1.26,6.41-2.32,9.72-3.14c1.52-0.37,3.05-0.7,4.6-0.97c0.42-0.07,0.84-0.14,1.26-0.21
			c0.09-0.01,1.49-0.21,0.49-0.08c0.91-0.12,1.83-0.22,2.75-0.3c7.12-0.62,12.54-0.23,19.02,1.71c1.47,0.44,2.93,0.95,4.35,1.54
			c-0.87-0.36,0.41,0.19,0.47,0.22c0.38,0.18,0.77,0.36,1.15,0.54c0.65,0.32,1.29,0.66,1.91,1.01c1.15,0.66,2.27,1.37,3.36,2.14
			c0.3,0.21,0.59,0.43,0.88,0.64c-0.86-0.64,0.11,0.09,0.23,0.19c0.66,0.54,1.3,1.09,1.92,1.67c0.98,0.91,1.91,1.86,2.8,2.85
			c0.48,0.54,0.95,1.1,1.41,1.67c0.53,0.65,0.06,0.08-0.04-0.05c0.29,0.39,0.58,0.78,0.85,1.17c0.8,1.13,1.53,2.31,2.21,3.52
			c0.32,0.58,0.63,1.16,0.92,1.75c0.16,0.32,0.31,0.65,0.46,0.97c0.1,0.22,0.2,0.44,0.29,0.65c-0.22-0.53-0.23-0.55-0.04-0.08
			c0.55,1.45,1.05,2.9,1.43,4.4c0.2,0.8,0.38,1.61,0.52,2.42c0.04,0.23,0.08,0.46,0.12,0.7c0.08,0.51,0.07,0.47-0.02-0.15
			c0.03,0.23,0.05,0.47,0.08,0.7c0.15,1.52,0.19,3.06,0.1,4.59c-0.02,0.35-0.04,0.71-0.08,1.06c-0.02,0.24-0.26,1.79-0.05,0.57
			c-0.14,0.83-0.29,1.65-0.49,2.46c-0.54,2.29,0.71,4.98,3.14,5.54c2.31,0.53,4.96-0.69,5.54-3.14
			c3.09-13.03-1.81-26.51-10.85-36.05c-9.87-10.42-24.3-14.92-38.42-14.43c-8.35,0.29-16.64,2.13-24.39,5.21
			c1.9,1.45,3.8,2.89,5.7,4.34c-0.84-11.15-9.13-20.44-19.07-24.9c-5.12-2.3-10.54-3.36-16.13-3.65c-4.51-0.24-9.13,0.34-13.33,2.03
			c-5.81,2.35-10.74,6.13-15.53,10.11c-1.82,1.51-1.68,4.82,0,6.36C704.02,403.71,706.51,403.55,708.45,401.94L708.45,401.94z"/>
	</g>
</g>
<g>
	<g>
		<path d="M805.93,469.46c0.38-0.69,0.8-1.34,1.25-1.99c0.48-0.7-0.45,0.5,0.11-0.15c0.29-0.34,0.58-0.67,0.88-1
			c0.5-0.52,1.02-1.02,1.57-1.49c0.33-0.28,0.98-0.72,0.26-0.23c0.37-0.25,0.72-0.52,1.09-0.76c0.61-0.4,1.23-0.77,1.87-1.1
			c0.35-0.18,0.7-0.36,1.05-0.52c0.15-0.07,0.31-0.14,0.46-0.21c0.5-0.23-0.79,0.29,0.01,0c1.49-0.53,2.99-0.98,4.55-1.26
			c0.17-0.03,0.33-0.05,0.5-0.08c0.52-0.1-0.34,0.06-0.36,0.05c0.13,0.09,0.98-0.1,1.18-0.11c0.84-0.06,1.69-0.08,2.53-0.05
			c0.34,0.01,0.67,0.03,1.01,0.06c0.23,0.02,1.36,0.16,0.74,0.07c-0.62-0.1,0.51,0.1,0.73,0.14c0.44,0.09,0.88,0.19,1.31,0.3
			c0.71,0.19,1.41,0.41,2.1,0.67c0.17,0.06,0.34,0.13,0.5,0.2c-0.15-0.06-0.84-0.39-0.09-0.03c0.38,0.18,0.75,0.36,1.12,0.55
			c0.74,0.39,1.46,0.81,2.15,1.27c0.35,0.23,0.69,0.47,1.02,0.72c0.07,0.05,0.53,0.43,0.11,0.08c-0.43-0.36,0.16,0.15,0.24,0.21
			c1.28,1.08,2.45,2.28,3.51,3.57c0.09,0.11,0.55,0.72,0.2,0.25c-0.32-0.44,0.03,0.05,0.08,0.12c0.24,0.34,0.49,0.69,0.72,1.04
			c0.46,0.7,0.9,1.43,1.3,2.17c0.37,0.69,0.7,1.4,1.04,2.11c-0.45-0.93,0.07,0.19,0.16,0.43c0.17,0.45,0.33,0.91,0.48,1.37
			c0.24,0.75,0.45,1.5,0.63,2.26c0.1,0.41,0.18,0.82,0.26,1.24c0.03,0.18,0.06,0.36,0.09,0.53c0.21,1.15-0.05-0.62,0.02,0.05
			c0.16,1.71,0.25,3.41,0.12,5.12c-0.01,0.18-0.03,0.35-0.04,0.53c-0.05,0.74-0.07-0.14,0.04-0.16c-0.04,0.01-0.15,0.91-0.17,1
			c-0.15,0.81-0.35,1.6-0.6,2.38c-0.11,0.36-0.25,0.7-0.37,1.05c-0.28,0.81,0.34-0.68-0.03,0.09c-0.34,0.71-0.69,1.4-1.09,2.08
			c-0.35,0.59-0.74,1.14-1.13,1.7c-0.45,0.65,0.55-0.64-0.17,0.23c-0.24,0.29-0.48,0.58-0.73,0.86c-1.04,1.18-2.17,2.28-3.34,3.33
			c-0.62,0.55-1.26,1.09-1.9,1.62c-0.28,0.23-0.57,0.46-0.86,0.69c-0.19,0.15-1.3,1.01-0.57,0.46c-1.2,0.92-2.43,1.77-3.76,2.51
			c-0.65,0.37-1.32,0.71-2,1.03c-0.27,0.13-0.59,0.34-0.89,0.4c1.08-0.24-0.12,0.05-0.45,0.17c-3.01,1.16-6.15,1.96-9.31,2.55
			c-0.77,0.14-1.54,0.27-2.31,0.39c-0.42,0.06-0.84,0.12-1.26,0.18c0.99-0.14-0.25,0.03-0.62,0.07c-1.72,0.2-3.44,0.36-5.17,0.48
			c-6.73,0.47-13.47,0.42-20.21,0.38c-6.84-0.04-13.69,0.06-20.53,0.12c-15.54,0.13-31.07,0.24-46.61,0.38
			c-1.74,0.02-3.48,0.03-5.23,0.05c-2.35,0.02-4.61,2.05-4.5,4.5c0.11,2.42,1.98,4.52,4.5,4.5c16.25-0.15,32.49-0.27,48.74-0.4
			c7.37-0.06,14.74-0.19,22.11-0.16c7.12,0.03,14.25,0.13,21.36-0.35c7.22-0.48,14.65-1.4,21.44-4.02
			c6.63-2.56,12.63-6.9,17.4-12.17c5.08-5.6,7.77-12.58,7.28-20.19c-0.51-7.92-3.83-15.57-9.41-21.24
			c-5.42-5.51-12.92-8.81-20.69-8.58c-7.38,0.21-14.92,3.24-19.91,8.78c-1.26,1.4-2.4,2.94-3.32,4.59
			c-1.15,2.06-0.56,5.01,1.61,6.16C801.89,472.19,804.7,471.65,805.93,469.46L805.93,469.46z"/>
	</g>
</g>
<g>
	<g>
		<path d="M439.54,598.32c0.06-19.26,0.12-38.53,0.18-57.79c0.06-19.52,0.12-39.04,0.18-58.55c0.03-9.68,0.06-19.35,0.09-29.03
			c0.01-4.6,0.23-9.25-0.05-13.83c-0.11-1.81-0.07-3.65,0.18-5.45c-0.08,0.56,0.1-0.53,0.12-0.67c0.07-0.41,0.16-0.81,0.25-1.22
			c0.21-0.92,0.46-1.83,0.76-2.72c0.13-0.39,0.27-0.78,0.41-1.16c0.05-0.13,0.44-1.07,0.25-0.64c0.38-0.86,0.79-1.7,1.25-2.52
			c0.4-0.72,0.82-1.42,1.28-2.11c0.26-0.39,0.53-0.78,0.8-1.16c0.1-0.14,0.21-0.28,0.32-0.43c0.14-0.19,0.14-0.19,0,0
			c0.07-0.09,0.15-0.18,0.22-0.28c2.37-2.82,4.77-5,7.61-6.77c0.78-0.49,1.57-0.94,2.38-1.36c0.38-0.2,0.77-0.39,1.15-0.58
			c0.22-0.11,0.45-0.21,0.67-0.31c0.09-0.04,0.53-0.22,0.2-0.09c0.64-0.25,1.33-0.38,2-0.53c1.34-0.3,2.68-0.57,4.03-0.83
			c3.3-0.63,6.63-1.16,9.96-1.64c0.94-0.14,1.88-0.27,2.82-0.4c0.49-0.07,0.53-0.08-0.05,0.01c0.23-0.03,0.46-0.06,0.68-0.09
			c0.53-0.07,1.06-0.14,1.59-0.21c2.08-0.27,4.17-0.52,6.26-0.76c9.71-1.11,19.44-1.94,29.19-2.61c11.14-0.76,22.3-1.29,33.46-1.6
			c11.76-0.32,23.53-0.4,35.29-0.16c11.38,0.23,22.77,0.75,34.11,1.72c5.33,0.46,10.65,1.02,15.95,1.71
			c0.13,0.02,0.25,0.03,0.38,0.05c0.5,0.06-0.65-0.09-0.16-0.02c0.29,0.04,0.59,0.08,0.88,0.12c0.67,0.09,1.33,0.19,2,0.28
			c1.23,0.18,2.45,0.37,3.68,0.57c2.37,0.38,4.72,0.8,7.08,1.25c4.34,0.84,8.65,1.83,12.9,3.03c1.93,0.55,3.84,1.14,5.74,1.79
			c0.9,0.31,1.79,0.63,2.67,0.97c0.43,0.16,0.86,0.33,1.28,0.5c0.2,0.08,0.39,0.16,0.59,0.24c0.11,0.05,0.22,0.09,0.33,0.14
			c0.46,0.19-0.31-0.1-0.33-0.14c0.1,0.2,0.99,0.43,1.21,0.53c0.39,0.18,0.78,0.36,1.17,0.54c0.75,0.36,1.5,0.73,2.23,1.12
			c1.39,0.74,2.75,1.55,4.06,2.44c0.28,0.19,0.56,0.39,0.84,0.59c0.14,0.1,0.27,0.2,0.4,0.3c0.65,0.48-0.59-0.48-0.08-0.06
			c0.53,0.44,1.06,0.87,1.57,1.34c0.48,0.44,0.95,0.91,1.39,1.39c0.2,0.22,0.4,0.44,0.59,0.67c0.09,0.11,0.18,0.23,0.28,0.34
			c0.49,0.58-0.47-0.66-0.12-0.16c0.34,0.5,0.7,0.98,1.01,1.51c0.07,0.11,0.16,0.24,0.21,0.36c-0.29-0.81,0.07,0.85,0.11,1.02
			c0.24,1.09,0.47,2.19,0.68,3.28c0.84,4.33,1.42,8.55,1.84,12.93c0.89,9.29,1.04,18.63,0.92,27.96c-0.24,18.8-1.62,37.6-0.78,56.41
			c0.2,4.48,0.91,9.02,0.74,13.49c-0.16,4.11-0.2,8.22-0.18,12.33c0.04,8.5,0.33,16.99,0.44,25.49c0.21,16.65-0.15,33.21-4.87,49.15
			c-1.17,3.93-2.55,7.71-4.23,11.27c-0.89,1.88-1.85,3.73-2.88,5.54c-0.24,0.42-0.52,0.84-0.74,1.27c-0.18,0.35,0.26-0.22-0.14,0.27
			c-0.31,0.39-0.66,0.75-1,1.11c-0.67,0.69-1.41,1.28-2.13,1.91c0.79-0.7-0.27,0.19-0.57,0.39c-0.44,0.31-0.89,0.6-1.35,0.88
			c-0.89,0.54-1.81,1.04-2.75,1.5c-0.46,0.22-0.92,0.42-1.38,0.64c-0.52,0.24,0.68-0.27-0.2,0.08c-0.28,0.11-0.56,0.22-0.84,0.33
			c-4.66,1.78-9.59,2.84-14.51,3.58c-0.32,0.05-0.63,0.09-0.95,0.14c-0.9,0.13,0.33-0.04-0.31,0.04c-0.74,0.09-1.48,0.19-2.22,0.27
			c-1.43,0.16-2.86,0.3-4.29,0.41c-2.99,0.24-5.98,0.4-8.98,0.5c-12.89,0.44-25.8-0.12-38.67-0.72c-11.85-0.55-23.73-1.28-35.6-1.05
			c-4.66,0.09-9.3,0.37-13.91,1.06c-1.85,0.28-2.86,2.61-2.41,4.25c0.54,1.98,2.4,2.69,4.25,2.41c0.26-0.04,0.53-0.1,0.8-0.11
			c-0.58,0.03-0.55,0.07,0,0c0.56-0.07,1.13-0.13,1.69-0.19c1.12-0.11,2.24-0.2,3.36-0.27c2.5-0.16,5.01-0.23,7.52-0.26
			c5.75-0.07,11.5,0.1,17.25,0.31c12.99,0.49,25.97,1.3,38.96,1.55c12.41,0.24,24.95,0.09,37.22-1.98
			c9.04-1.53,19.23-4.36,25.55-11.47c2.56-2.88,4.25-6.73,5.81-10.21c1.78-3.96,3.29-8.03,4.49-12.19
			c2.38-8.23,3.64-16.77,4.32-25.31c1.36-17.11,0.23-34.28,0.18-51.41c-0.01-4.11,0.04-8.21,0.21-12.31c0.1-2.3-0.28-4.62-0.44-6.92
			c-0.17-2.38-0.3-4.76-0.39-7.15c-0.37-9.53-0.18-19.07,0.11-28.6c0.57-18.85,1.64-37.83-0.42-56.63c-0.52-4.71-1.2-9.4-2.16-14.04
			c-0.35-1.7-0.59-3.48-1.51-4.98c-0.32-0.52-0.67-1.01-1.03-1.5c-1.97-2.62-4.37-4.74-7.06-6.6c-6.1-4.21-13.35-6.79-20.42-8.81
			c-9.32-2.67-18.91-4.29-28.5-5.57c-10.98-1.46-22.03-2.33-33.09-2.88c-11.84-0.59-23.7-0.79-35.55-0.72
			c-11.73,0.07-23.46,0.4-35.18,0.98c-10.63,0.52-21.25,1.25-31.84,2.22c-8.91,0.82-17.82,1.8-26.67,3.11
			c-3.29,0.49-6.58,1.02-9.85,1.66c-1.33,0.26-2.66,0.54-3.98,0.84c-3.05,0.71-6.04,2.46-8.61,4.22
			c-6.44,4.42-11.44,10.65-13.98,18.06c-1.24,3.6-1.82,7.51-1.71,11.31c0.13,4.6,0.1,9.2,0.09,13.81
			c-0.06,19.65-0.12,39.31-0.19,58.96c-0.06,19.79-0.12,39.58-0.19,59.36c-0.03,9.33-0.06,18.66-0.09,28
			C432.62,602.76,439.53,602.77,439.54,598.32L439.54,598.32z"/>
	</g>
</g>
<g>
	<path class="st0" d="M436.09,598.32c0.17-51.14,0.33-106.95,0.5-158.09c-1.38-14.14,7.49-26.77,20.64-32.07
		c38.94-9.51,211.06-19.47,230.67,16.12c8.55,35.86,0.13,77.12,4.02,114.7c-1.74,36.07,6.31,77.18-13.34,109.35
		c-18.83,23.83-99.24,7.51-131.53,12.39c0,0-15.27-21.06-28.69-18.44c0,0,1.57-25.63-36.42-23.08c0,0-10.62-5.14-17.46,2.55
		c0,0-17.99-22.75-23.19-23.09S436.09,598.32,436.09,598.32z"/>
</g>
<g>
	<g>
		<path d="M449.52,379.77c-18.88-9.17-41.05-8.91-60.21-0.71c-18.96,8.11-33.09,24.35-40.51,43.38
			c-4.09,10.49-5.99,21.91-5.56,33.16c1.68-1.28,3.36-2.56,5.05-3.84c-18.32-3.72-36.14,5.76-47.83,19.44
			c-5.88,6.88-10.59,14.65-14.68,22.7c-4.38,8.63-8.24,17.62-10.67,27.01c-4.37,16.93-3.36,34.93,3.27,51.14
			c6.51,15.92,17.63,29.47,32.38,38.43c14.41,8.75,31.76,13.05,48.6,11.69c2.29-0.19,4.57-0.48,6.84-0.84
			c-1.63-1.63-3.27-3.27-4.9-4.9c-3.85,10.42-2.76,22.36,2.6,32.05c1.04,1.88,3.63,2.5,5.45,1.43c1.9-1.11,2.48-3.56,1.43-5.45
			c-2.08-3.76-3.45-8.41-3.73-12.45c-0.08-1.16-0.1-2.32-0.07-3.48c0.02-0.58,0.05-1.16,0.09-1.74c0.02-0.29,0.05-0.58,0.08-0.87
			c0.01-0.14,0.07-0.66,0.02-0.23c0.32-2.44,0.97-4.84,1.82-7.14c0.48-1.3-0.09-2.94-1.02-3.88c-1.09-1.09-2.43-1.26-3.88-1.02
			c-0.48,0.08-0.96,0.15-1.44,0.22c-0.47,0.07-0.06,0.01,0.03,0c-0.28,0.03-0.55,0.07-0.83,0.1c-1.03,0.12-2.07,0.22-3.11,0.29
			c-1.94,0.14-3.88,0.2-5.82,0.19c-2.01-0.01-4.02-0.1-6.02-0.27c-0.9-0.08-1.79-0.17-2.69-0.28c-0.21-0.02-0.41-0.05-0.62-0.08
			c0.6,0.08-0.09-0.01-0.18-0.03c-0.55-0.08-1.1-0.16-1.64-0.26c-3.9-0.65-7.75-1.59-11.51-2.82c-1.85-0.6-3.67-1.27-5.47-2.01
			c-0.07-0.03-0.85-0.36-0.48-0.2c0.32,0.14-0.3-0.13-0.29-0.13c-0.44-0.2-0.89-0.39-1.33-0.6c-0.95-0.43-1.88-0.89-2.81-1.36
			c-3.46-1.76-6.79-3.78-9.94-6.04c-0.39-0.28-0.79-0.57-1.17-0.86c-0.06-0.04-0.73-0.55-0.42-0.32c0.27,0.21-0.27-0.21-0.25-0.2
			c-0.82-0.65-1.62-1.3-2.41-1.98c-1.47-1.26-2.89-2.59-4.26-3.96c-1.41-1.42-2.76-2.9-4.04-4.43c-0.31-0.37-0.62-0.74-0.92-1.12
			c-0.12-0.15-0.8-1-0.53-0.65c-0.59-0.76-1.16-1.54-1.72-2.33c-2.27-3.2-4.29-6.59-6.05-10.1c-0.43-0.86-0.85-1.73-1.25-2.61
			c-0.2-0.44-0.39-0.88-0.59-1.32c0,0.01-0.26-0.61-0.12-0.29c0.11,0.27-0.28-0.69-0.27-0.67c-0.72-1.79-1.38-3.61-1.97-5.45
			c-1.2-3.74-2.12-7.58-2.74-11.46c-0.08-0.48-0.15-0.95-0.22-1.43c0.08,0.59-0.08-0.62-0.1-0.79c-0.11-0.96-0.21-1.92-0.28-2.88
			c-0.16-1.99-0.24-3.99-0.24-5.99c0-3.92,0.32-7.94,0.93-11.51c1.49-8.75,4.47-17.36,8.05-25.23c3.57-7.86,7.65-15.58,12.63-22.64
			c4.47-6.34,10.37-12.6,16.95-16.72c3.61-2.26,6.72-3.73,10.6-4.92c1.92-0.59,3.86-1.02,5.84-1.35c0.7-0.11-0.5,0.06,0.21-0.03
			c0.21-0.03,0.42-0.05,0.63-0.07c0.49-0.05,0.99-0.09,1.48-0.13c1.06-0.07,2.13-0.1,3.19-0.08c2.25,0.05,3.3,0.17,5.3,0.57
			c2.42,0.49,5.15-1.1,5.05-3.84c-0.09-2.36-0.09-4.72,0.03-7.08c0.06-1.15,0.14-2.29,0.25-3.43c0.05-0.54,0.11-1.07,0.17-1.61
			c0.03-0.27,0.06-0.54,0.1-0.8c0.11-0.93-0.05,0.3,0.08-0.54c0.72-4.68,1.78-9.28,3.28-13.77c1.54-4.63,3.01-7.99,5.42-12.37
			c1.1-2,2.29-3.96,3.57-5.85c0.67-1,1.37-1.99,2.09-2.96c0.16-0.22,0.32-0.43,0.48-0.64c-0.11,0.14-0.38,0.48,0.12-0.15
			c0.42-0.53,0.84-1.05,1.27-1.57c3-3.61,6.36-6.94,10.02-9.89c0.21-0.17,0.42-0.34,0.63-0.5c0.06-0.05,0.59-0.45,0.15-0.12
			c0.43-0.33,0.87-0.65,1.31-0.97c0.99-0.72,2.01-1.41,3.04-2.07c2.01-1.28,4.09-2.46,6.22-3.53c1.04-0.52,2.09-1,3.15-1.48
			c0.07-0.03,0.7-0.3,0.18-0.08c0.25-0.11,0.5-0.21,0.76-0.31c0.63-0.26,1.27-0.5,1.91-0.74c2.24-0.83,4.52-1.55,6.83-2.15
			c2.31-0.6,4.65-1.09,7-1.46c0.23-0.04,1.6-0.23,0.96-0.15c0.54-0.07,1.08-0.13,1.62-0.19c1.22-0.13,2.44-0.22,3.66-0.29
			c2.71-0.14,5.44-0.12,8.15,0.05c1.29,0.08,2.57,0.21,3.85,0.36c0.77,0.09-0.94-0.15,0.35,0.05c0.34,0.05,0.67,0.1,1,0.15
			c0.67,0.11,1.34,0.23,2,0.35c2.59,0.5,5.16,1.16,7.67,1.98c1.29,0.42,2.57,0.88,3.83,1.39c0.25,0.1,0.5,0.2,0.75,0.31
			c-0.49-0.21,0.19,0.09,0.36,0.16c0.68,0.3,1.36,0.62,2.04,0.95c1.94,0.94,4.31,0.53,5.45-1.43
			C451.97,383.47,451.46,380.71,449.52,379.77L449.52,379.77z"/>
	</g>
</g>
<g>
	<g>
		<path d="M751.66,383.67c-0.74-26.87-11.87-52.64-29.34-72.86c-17.49-20.25-41.4-34.39-66.8-42.3c-24.4-7.6-50.54-9.51-75.7-4.86
			c-24.63,4.55-48.18,16.01-65.4,34.43c-18.13,19.39-28.74,44.66-34.45,70.31c-0.69,3.11-1.31,6.24-1.87,9.38
			c-0.36,2.05,0.55,4.39,2.78,4.9c1.94,0.44,4.51-0.59,4.9-2.78c2.24-12.59,5.5-25.02,10.18-36.94c2.14-5.44,4.82-11.21,7.88-16.7
			c1.53-2.76,3.17-5.47,4.9-8.11c0.87-1.32,1.76-2.62,2.67-3.9c0.81-1.13,1.91-2.61,2.47-3.32c3.89-4.92,8.15-9.54,12.83-13.71
			c2.18-1.95,4.54-3.87,6.44-5.28c2.38-1.77,4.84-3.43,7.37-5c10.31-6.38,20.47-10.53,32.21-13.56c11.86-3.06,22.81-4.33,35.18-4.29
			c12.56,0.04,23.63,1.45,35.72,4.41c24.73,6.06,48.06,17.86,66.22,35.69c9.09,8.93,16.31,18.69,22.18,30.12
			c2.93,5.7,5.04,10.8,6.99,17.02c0.95,3.02,1.76,6.08,2.44,9.17c0.34,1.54,0.64,3.1,0.91,4.65c0.27,1.54,0.48,3.01,0.61,4.06
			c0.38,3.15,0.61,6.31,0.69,9.47c0.06,2.08,1.79,4.08,3.99,3.99C749.78,387.57,751.72,385.91,751.66,383.67L751.66,383.67z"/>
	</g>
</g>
<g>
	<g>
		<path d="M751.66,383.67c-0.74-26.87-11.87-52.64-29.34-72.86c-17.49-20.25-41.4-34.39-66.8-42.3c-24.4-7.6-50.54-9.51-75.7-4.86
			c-24.63,4.55-48.18,16.01-65.4,34.43c-18.13,19.39-28.74,44.66-34.45,70.31c-0.69,3.11-1.31,6.24-1.87,9.38
			c-0.36,2.05,0.55,4.39,2.78,4.9c1.94,0.44,4.51-0.59,4.9-2.78c2.24-12.59,5.5-25.02,10.18-36.94c2.14-5.44,4.82-11.21,7.88-16.7
			c1.53-2.76,3.17-5.47,4.9-8.11c0.87-1.32,1.76-2.62,2.67-3.9c0.81-1.13,1.91-2.61,2.47-3.32c3.89-4.92,8.15-9.54,12.83-13.71
			c2.18-1.95,4.54-3.87,6.44-5.28c2.38-1.77,4.84-3.43,7.37-5c10.31-6.38,20.47-10.53,32.21-13.56c11.86-3.06,22.81-4.33,35.18-4.29
			c12.56,0.04,23.63,1.45,35.72,4.41c24.73,6.06,48.06,17.86,66.22,35.69c9.09,8.93,16.31,18.69,22.18,30.12
			c2.93,5.7,5.04,10.8,6.99,17.02c0.95,3.02,1.76,6.08,2.44,9.17c0.34,1.54,0.64,3.1,0.91,4.65c0.27,1.54,0.48,3.01,0.61,4.06
			c0.38,3.15,0.61,6.31,0.69,9.47c0.06,2.08,1.79,4.08,3.99,3.99C749.78,387.57,751.72,385.91,751.66,383.67L751.66,383.67z"/>
	</g>
</g>
<g>
	<g>
		<path d="M751.66,383.67c-0.74-26.87-11.87-52.64-29.34-72.86c-17.49-20.25-41.4-34.39-66.8-42.3c-24.4-7.6-50.54-9.51-75.7-4.86
			c-24.63,4.55-48.18,16.01-65.4,34.43c-18.13,19.39-28.74,44.66-34.45,70.31c-0.69,3.11-1.31,6.24-1.87,9.38
			c-0.36,2.05,0.55,4.39,2.78,4.9c1.94,0.44,4.51-0.59,4.9-2.78c2.24-12.59,5.5-25.02,10.18-36.94c2.14-5.44,4.82-11.21,7.88-16.7
			c1.53-2.76,3.17-5.47,4.9-8.11c0.87-1.32,1.76-2.62,2.67-3.9c0.81-1.13,1.91-2.61,2.47-3.32c3.89-4.92,8.15-9.54,12.83-13.71
			c2.18-1.95,4.54-3.87,6.44-5.28c2.38-1.77,4.84-3.43,7.37-5c10.31-6.38,20.47-10.53,32.21-13.56c11.86-3.06,22.81-4.33,35.18-4.29
			c12.56,0.04,23.63,1.45,35.72,4.41c24.73,6.06,48.06,17.86,66.22,35.69c9.09,8.93,16.31,18.69,22.18,30.12
			c2.93,5.7,5.04,10.8,6.99,17.02c0.95,3.02,1.76,6.08,2.44,9.17c0.34,1.54,0.64,3.1,0.91,4.65c0.27,1.54,0.48,3.01,0.61,4.06
			c0.38,3.15,0.61,6.31,0.69,9.47c0.06,2.08,1.79,4.08,3.99,3.99C749.78,387.57,751.72,385.91,751.66,383.67L751.66,383.67z"/>
	</g>
</g>
<g>
	<g>
		<path d="M822.64,514.78c2.19,8.85,1.49,18.28-1.97,26.72c-1.73,4.21-4.57,7.62-6.68,11.59c-2.37,4.45-2.56,9.32,0.14,13.68
			c2.25,3.63,5.65,6.32,8.43,9.51c2.4,2.74,4.45,5.76,6.22,8.94c3.69,6.63,6.02,14.05,7.01,21.56c1.97,14.98-1.03,30.74-8.35,43.95
			c-7.9,14.25-20.82,25.08-35.34,32.16c-16.93,8.26-36.16,11.36-54.88,10.08c-1.35-0.09-2.8,0.82-3.44,1.97
			c-9.61,17.26-25.8,30.57-44.55,36.79c-19.19,6.36-40.3,4.77-58.47-4.06c-10.42-5.06-19.58-12.21-26.95-21.15
			c-1.3-1.58-4.33-1.51-5.64,0c-21.05,24.31-48.86,43.05-80.59,49.79c-31.98,6.79-66.07,0.53-92.1-19.66
			c-13.16-10.2-23.81-23.38-31.06-38.36c-0.94-1.94-3.7-2.46-5.45-1.43c-1.98,1.16-2.37,3.51-1.43,5.45
			c13.8,28.51,39.81,50.68,70.17,59.73c34.46,10.28,72.17,3.78,103.01-13.98c16.28-9.37,30.81-21.72,43.09-35.91
			c-1.88,0-3.76,0-5.64,0c14.27,17.32,35.31,28.22,57.49,30.89c21.49,2.59,43.63-3.79,60.89-16.75
			c9.83-7.38,18.13-16.58,24.11-27.34c-1.15,0.66-2.29,1.32-3.44,1.97c34.85,2.38,72.66-10.58,93.24-40.01
			c18.67-26.69,19.41-67.14-3.48-91.63c-2.32-2.49-7.36-5.91-6.96-9.83c0.26-2.55,2.47-4.91,3.81-6.97c1.5-2.31,2.77-4.74,3.85-7.27
			c4.4-10.27,5.33-21.72,2.64-32.57C829.09,507.68,821.4,509.79,822.64,514.78L822.64,514.78z"/>
	</g>
</g>
<g>
	<g>
		<path d="M544.42,684.75c12.43-0.32,24.89,0.2,37.32,0.55c15.24,0.43,30.49,0.82,45.74,0.6c14.3-0.21,28.73-0.84,42.84-3.37
			c5.35-0.96,10.7-2.22,15.75-4.27c4.29-1.74,8.6-3.96,11.75-7.45c2.55-2.83,4.5-6.32,6.29-9.66c2.31-4.31,4.24-8.84,5.82-13.46
			c3.13-9.15,4.78-18.75,5.68-28.36c1.82-19.49,0.28-39.08-0.16-58.6c-0.11-4.78-0.15-9.56-0.06-14.34c0.05-2.37,0.33-4.81,0.1-7.16
			c-0.28-2.81-0.49-5.63-0.66-8.45c-0.66-11.13-0.56-22.29-0.27-33.43c0.57-22.26,2.04-44.63,0-66.86
			c-0.51-5.54-1.23-11.07-2.24-16.55c-0.63-3.42-1.02-7.01-3.07-9.89c-2.2-3.1-4.91-5.59-7.99-7.8
			c-6.98-5.02-15.42-8.06-23.61-10.44c-10.88-3.16-22.1-5.08-33.32-6.57c-12.88-1.71-25.85-2.74-38.82-3.37
			c-13.89-0.68-27.81-0.9-41.72-0.8c-13.78,0.1-27.57,0.51-41.33,1.22c-12.4,0.64-24.8,1.51-37.16,2.68
			c-10.22,0.97-20.43,2.13-30.58,3.69c-3.69,0.57-7.38,1.2-11.04,1.96c-2.04,0.42-3.94,0.86-5.86,1.69
			c-4.18,1.81-8.01,4.33-11.43,7.34c-6.64,5.85-11.51,14.06-12.95,22.83c-0.79,4.83-0.42,9.6-0.44,14.46
			c-0.02,5.37-0.03,10.73-0.05,16.1c-0.07,22.34-0.14,44.69-0.21,67.03c-0.07,22.48-0.14,44.96-0.21,67.44
			c-0.03,10.42-0.07,20.84-0.1,31.26c-0.02,5.13,7.95,5.14,7.97,0c0.07-21.66,0.14-43.33,0.2-64.99c0.07-22.35,0.13-44.7,0.2-67.06
			c0.03-10.88,0.07-21.76,0.1-32.64c0.02-5.29,0.03-10.58,0.05-15.86c0.01-2.54,0.02-5.06-0.1-7.59c-0.05-0.99-0.05-1.97-0.01-2.96
			c0.02-0.56,0.06-1.11,0.11-1.67c0.02-0.21,0.2-1.6,0.1-1c0.32-2.09,0.83-4.15,1.53-6.14c0.16-0.45,0.33-0.89,0.5-1.33
			c0.03-0.08,0.3-0.7,0.07-0.17c0.11-0.25,0.22-0.49,0.33-0.74c0.46-0.98,0.96-1.94,1.5-2.87c0.48-0.82,0.99-1.62,1.53-2.4
			c0.31-0.45,0.63-0.89,0.96-1.32c-0.27,0.35,0.49-0.59,0.66-0.78c1.33-1.57,2.79-3.03,4.36-4.36c2.35-2,6.67-4.9,9.65-5.76
			c1.45-0.42,2.96-0.68,4.43-0.97c3.67-0.74,7.37-1.36,11.07-1.92c1.08-0.16,2.16-0.32,3.24-0.48c0.51-0.07,1.01-0.14,1.52-0.21
			c0.29-0.04,0.59-0.08,0.88-0.12c1.01-0.14-0.51,0.07,0.06-0.01c2.42-0.32,4.85-0.63,7.28-0.91c11.17-1.32,22.38-2.32,33.59-3.12
			c13.05-0.93,26.12-1.58,39.2-1.96c13.79-0.41,27.58-0.52,41.37-0.26c13.37,0.25,26.74,0.84,40.07,1.96
			c6.21,0.53,12.41,1.17,18.58,1.98c0.36,0.05,1.33,0.18,0.4,0.05c0.34,0.05,0.68,0.09,1.02,0.14c0.77,0.11,1.54,0.22,2.31,0.33
			c1.46,0.21,2.93,0.44,4.39,0.67c2.77,0.45,5.54,0.94,8.3,1.47c5.08,0.99,10.12,2.15,15.09,3.57c2.25,0.64,4.48,1.34,6.69,2.11
			c1.06,0.37,2.11,0.76,3.16,1.16c0.49,0.19,0.98,0.38,1.47,0.58c0.22,0.09,0.45,0.19,0.67,0.28c0.46,0.18-0.83-0.36-0.38-0.16
			c0.15,0.07,0.31,0.13,0.47,0.2c3.46,1.5,6.84,3.25,9.93,5.43c0.32,0.22,0.63,0.46,0.94,0.69c0.73,0.53-0.63-0.52-0.16-0.12
			c0.16,0.14,0.34,0.27,0.5,0.4c0.63,0.51,1.23,1.05,1.81,1.61c0.56,0.54,1.09,1.09,1.6,1.68c0.22,0.26,0.42,0.53,0.65,0.78
			c0.32,0.36-0.66-0.92-0.19-0.24c0.11,0.15,0.22,0.3,0.33,0.46c0.2,0.29,0.39,0.58,0.58,0.87c0.09,0.14,0.17,0.27,0.25,0.41
			c0.36,0.62,0.08-0.19,0.05,0.28c-0.04,0.53,0.28,1.24,0.4,1.76c0.15,0.67,0.29,1.34,0.43,2.02c0.27,1.35,0.53,2.71,0.77,4.06
			c0.87,4.99,1.45,9.92,1.87,15c0.9,10.94,0.96,21.93,0.75,32.9c-0.41,22.11-2,44.25-0.59,66.35c0.17,2.64,0.48,5.28,0.65,7.92
			c0.15,2.34-0.12,4.75-0.16,7.09c-0.08,4.7-0.04,9.41,0.07,14.12c0.22,9.64,0.69,19.27,0.9,28.91c0.41,18.98,0.01,37.73-6.14,55.69
			c-1.5,4.37-3.09,8.03-5.35,12.17c-1.15,2.1-2.39,4.15-3.73,6.14c-0.19,0.29-0.39,0.57-0.59,0.85c-0.44,0.65,0.25-0.29,0.16-0.2
			c-0.32,0.33-0.59,0.7-0.91,1.03c-0.31,0.32-0.63,0.63-0.96,0.93c-0.16,0.14-0.32,0.28-0.48,0.42c-0.09,0.08-0.19,0.15-0.28,0.23
			c-0.49,0.42,0.28-0.11,0.29-0.22c-0.06,0.45-2.05,1.41-2.44,1.63c-0.94,0.56-1.91,1.06-2.9,1.53c-0.35,0.16-2.02,0.84-0.79,0.37
			c-0.58,0.22-1.15,0.47-1.74,0.68c-5.14,1.92-10.54,3.09-15.94,3.99c-1.51,0.25-3.03,0.48-4.55,0.68c1.06-0.15-0.3,0.04-0.5,0.06
			c-0.37,0.05-0.74,0.09-1.11,0.14c-0.86,0.1-1.71,0.2-2.57,0.29c-3.41,0.36-6.82,0.65-10.24,0.87
			c-14.96,0.98-29.98,0.94-44.97,0.67c-14.1-0.25-28.19-0.8-42.29-1.05c-5.31-0.09-10.62-0.15-15.93-0.01
			c-2.15,0.06-3.99,1.79-3.99,3.99C540.43,682.88,542.26,684.81,544.42,684.75L544.42,684.75z"/>
	</g>
</g>
<g>
	<g>
		<path d="M468.51,625.06c-0.91-13.02-11.7-23.36-24.23-25.81c-6.77-1.32-13.44-0.41-19.62,2.66c-6.01,2.98-10.98,7.98-14.47,13.65
			c-3.98,6.46-6.14,14.11-6.1,21.7c2.56-1.06,5.12-2.12,7.68-3.18c-6.11-5.72-14.42-8.05-22.63-6.85
			c-7.76,1.13-14.63,6.35-18.35,13.18c-2.18,4-3.38,8.53-3.3,13.1c1.9-1.45,3.8-2.89,5.7-4.34c-10.67-3.68-23.96-0.54-31.3,8.22
			c-7.25,8.65-8.2,21.93-1.71,31.34c3.72,5.38,9.26,8.72,15.58,10.25c6.76,1.63,13.95,1.68,20.87,1.97
			c14.43,0.61,28.88,0.52,43.32,0.64c7.15,0.06,14.3,0.37,21.45,0.22c7.24-0.16,14.46-0.67,21.69-0.87
			c6.98-0.2,13.84,0.13,20.78,0.84c6.36,0.65,12.78,0.88,19.15,0.35c12.76-1.06,26.23-5.03,35.48-14.35
			c4.39-4.43,7.25-9.87,8.04-16.06c0.67-5.24-0.39-10.47-2.44-15.28c-1.99-4.66-5.18-8.92-9.16-12.06c-4.59-3.61-9.8-5.64-15.6-6.24
			c-10.99-1.14-22.55,4.11-29.73,12.34c-1.86,2.13-3.51,4.44-4.82,6.95c-1.09,2.09-0.6,4.98,1.61,6.16
			c2.07,1.09,4.99,0.61,6.16-1.61c0.54-1.03,1.12-2.03,1.78-3c0.32-0.48,0.66-0.95,1.02-1.42c-0.67,0.89,0.05-0.04,0.17-0.18
			c0.22-0.27,0.45-0.53,0.68-0.79c0.77-0.87,1.6-1.7,2.46-2.48c0.43-0.39,0.88-0.76,1.33-1.14c0.9-0.76-0.76,0.53,0.19-0.16
			c0.28-0.2,0.56-0.41,0.85-0.61c0.96-0.67,1.95-1.28,2.96-1.85c0.51-0.28,1.02-0.55,1.55-0.8c0.26-0.13,0.52-0.25,0.79-0.37
			c1.08-0.49-0.49,0.16,0.36-0.16c2.24-0.83,4.47-1.44,6.82-1.86c0.7-0.12-1.13,0.1,0,0c0.29-0.02,0.57-0.06,0.85-0.08
			c0.57-0.05,1.14-0.07,1.71-0.08c1.05-0.02,2.59-0.18,3.59,0.17c-1.06-0.37-0.15-0.02,0.16,0.03c0.23,0.04,0.45,0.08,0.68,0.12
			c0.56,0.11,1.13,0.24,1.68,0.39c0.55,0.15,1.1,0.32,1.64,0.5c0.3,0.11,0.6,0.22,0.9,0.34c1.02,0.39-0.87-0.43,0.1,0.05
			c0.96,0.48,1.9,0.96,2.8,1.54c0.45,0.29,0.88,0.6,1.32,0.91c0.9,0.63-0.73-0.64,0.1,0.08c0.24,0.21,0.49,0.41,0.73,0.62
			c0.8,0.71,1.56,1.46,2.28,2.26c0.33,0.37,0.79,0.8,1.04,1.23c-0.51-0.89-0.19-0.26-0.02-0.01c0.21,0.31,0.44,0.61,0.65,0.92
			c0.6,0.89,1.14,1.82,1.63,2.77c0.25,0.48,0.47,0.96,0.69,1.45c0.14,0.3,0.41,0.51-0.08-0.19c0.19,0.28,0.28,0.73,0.4,1.05
			c0.36,1,0.66,2.02,0.89,3.06c0.12,0.52,0.21,1.04,0.3,1.56c0.11,0.57,0.37,0.52-0.01-0.1c0.12,0.2,0.07,0.69,0.09,0.94
			c0.08,1.04,0.1,2.09,0.04,3.14c-0.02,0.45,0.04,1.14-0.14,1.56c0.42-0.97,0.05-0.39-0.03,0.04c-0.06,0.31-0.12,0.62-0.19,0.92
			c-0.2,0.85-0.39,2.32-0.95,3.01c0.63-0.78,0.12-0.27-0.06,0.09c-0.09,0.19-0.19,0.39-0.29,0.58c-0.37,0.71-0.78,1.41-1.22,2.08
			c-0.18,0.28-0.37,0.55-0.57,0.83c-0.12,0.17-0.67,0.86-0.14,0.21c-0.42,0.52-0.86,1.03-1.31,1.52c-1.01,1.09-2.1,2.07-3.24,3.02
			c-0.66,0.55-0.19,0.16-0.04,0.05c-0.32,0.25-0.65,0.48-0.98,0.72c-0.55,0.39-1.11,0.77-1.68,1.13c-1.29,0.82-2.62,1.57-3.98,2.26
			c-0.62,0.31-1.25,0.62-1.89,0.9c-0.25,0.12-0.51,0.23-0.76,0.34c0.87-0.38-0.39,0.16-0.47,0.18c-1.29,0.51-2.61,0.97-3.94,1.38
			c-2.81,0.86-5.68,1.5-8.58,1.96c-0.42,0.07-0.83,0.13-1.25,0.19c0.19-0.03,0.84-0.1-0.06,0c-0.7,0.08-1.4,0.16-2.1,0.23
			c-1.55,0.15-3.11,0.24-4.66,0.3c-2.99,0.11-5.98,0.07-8.96-0.08c-6.26-0.32-12.45-1.27-18.73-1.39
			c-6.67-0.13-13.33,0.23-19.99,0.54c-6.76,0.32-13.49,0.48-20.26,0.33c-13.5-0.29-27-0.16-40.5-0.4
			c-6.76-0.12-13.52-0.32-20.27-0.71c-1.64-0.09-3.29-0.2-4.93-0.32c-0.73-0.05-1.47-0.11-2.2-0.17c-0.35-0.03-0.69-0.07-1.04-0.11
			c-0.25-0.03-1.28-0.17-0.47-0.05c-1.38-0.2-2.75-0.46-4.11-0.8c-0.67-0.17-1.34-0.36-2-0.58c-0.39-0.13-0.78-0.27-1.17-0.41
			c-1.24-0.45,0.75,0.38-0.45-0.18c-1.23-0.58-2.37-1.27-3.5-2.03c-0.87-0.58,0.43,0.48,0,0c-0.17-0.2-0.42-0.36-0.62-0.54
			c-0.48-0.44-0.94-0.9-1.37-1.39c-0.14-0.16-0.28-0.33-0.42-0.49c-0.73-0.82,0.52,0.8-0.09-0.12c-0.3-0.45-0.61-0.89-0.89-1.36
			c-0.28-0.47-0.54-0.94-0.78-1.43c-0.1-0.2-0.18-0.39-0.28-0.59c-0.2-0.46-0.18-0.4,0.07,0.17c-0.08-0.2-0.16-0.41-0.23-0.61
			c-0.38-1.03-0.67-2.09-0.9-3.16c-0.04-0.22-0.09-0.43-0.12-0.65c-0.07-0.39-0.44-1.09-0.03-0.11c-0.2-0.49-0.12-1.28-0.14-1.81
			c-0.04-1.11,0.12-2.2,0.11-3.3c-0.01-0.68-0.2,1.11-0.01,0.05c0.05-0.27,0.09-0.54,0.15-0.81c0.12-0.59,0.26-1.18,0.43-1.76
			c0.15-0.53,0.35-1.04,0.52-1.56c0.35-1.06-0.44,0.86,0.05-0.14c0.1-0.2,0.18-0.4,0.28-0.59c0.55-1.11,1.21-2.15,1.94-3.14
			c-0.68,0.91,0.42-0.46,0.63-0.68c0.39-0.42,0.8-0.83,1.22-1.22c0.42-0.39,0.86-0.76,1.31-1.12c-0.88,0.71,0.04-0.01,0.2-0.12
			c0.28-0.2,0.57-0.39,0.86-0.57c0.98-0.62,2-1.15,3.05-1.64c0.75-0.35,0.02-0.01-0.12,0.05c0.33-0.12,0.65-0.25,0.98-0.37
			c0.66-0.23,1.32-0.44,1.99-0.62c0.56-0.15,1.13-0.28,1.7-0.39c0.23-0.04,0.46-0.08,0.69-0.13c1.16-0.22-0.99,0.08,0.19-0.03
			c1.22-0.12,2.43-0.19,3.66-0.16c0.58,0.02,1.16,0.05,1.74,0.11c0.29,0.03,1.08,0.01,0.01-0.01c0.28,0.01,0.58,0.09,0.86,0.14
			c1.2,0.22,2.38,0.54,3.53,0.94c2.76,0.95,5.75-1.56,5.7-4.34c-0.01-0.73,0-1.46,0.06-2.18c0.03-0.42,0.16-1.04,0.01-0.25
			c0.08-0.42,0.14-0.84,0.23-1.25c0.15-0.71,0.34-1.41,0.57-2.11c0.13-0.4,0.28-0.8,0.43-1.2c0.03-0.08,0.27-0.64,0.05-0.14
			c-0.23,0.52,0.1-0.2,0.15-0.29c0.66-1.38,1.46-2.66,2.35-3.9c-0.45,0.63-0.02,0.04,0.21-0.23c0.24-0.28,0.48-0.55,0.73-0.81
			c0.54-0.57,1.11-1.12,1.71-1.63c0.14-0.12,0.28-0.23,0.42-0.35c-0.04,0.03-0.61,0.44-0.19,0.15c0.3-0.21,0.59-0.43,0.89-0.63
			c0.66-0.44,1.34-0.84,2.04-1.2c0.22-0.11,0.44-0.21,0.65-0.32c0.07-0.04,0.64-0.28,0.14-0.07c-0.47,0.2,0.51-0.18,0.67-0.24
			c0.76-0.26,1.53-0.48,2.31-0.65c0.36-0.08,0.72-0.14,1.09-0.21c0.88-0.16-0.63,0.04,0.27-0.03c0.8-0.06,1.6-0.11,2.4-0.1
			c0.74,0.01,1.47,0.08,2.21,0.13c0.53,0.03-0.23-0.04-0.28-0.04c0.18,0.03,0.37,0.06,0.55,0.09c0.43,0.07,0.85,0.16,1.27,0.26
			c0.9,0.21,1.79,0.47,2.66,0.79c0.17,0.06,0.34,0.14,0.52,0.2c-0.37-0.13-0.49-0.23-0.05-0.02c0.39,0.18,0.78,0.37,1.16,0.57
			c0.76,0.4,1.5,0.85,2.21,1.34c0.15,0.11,0.3,0.22,0.45,0.32c-0.33-0.22-0.39-0.32-0.04-0.02c0.38,0.32,0.75,0.64,1.11,0.98
			c2.8,2.62,7.7,0.81,7.68-3.18c-0.01-1.42,0.09-2.83,0.22-4.25c0.11-1.2-0.18,0.97,0.03-0.21c0.06-0.35,0.11-0.7,0.18-1.05
			c0.14-0.76,0.31-1.51,0.49-2.26c0.33-1.33,0.74-2.63,1.21-3.91c0.12-0.33,0.26-0.66,0.39-1c0.44-1.12-0.41,0.84,0.11-0.24
			c0.33-0.7,0.65-1.39,1.01-2.08c0.63-1.2,1.33-2.37,2.1-3.49c0.2-0.29,0.4-0.58,0.61-0.87c0.1-0.14,0.83-1.08,0.15-0.21
			c0.51-0.64,1.04-1.27,1.59-1.88c0.86-0.95,1.78-1.85,2.75-2.68c0.26-0.23,0.54-0.45,0.8-0.67c0.89-0.75-0.77,0.52,0.19-0.15
			c0.66-0.47,1.32-0.93,2.02-1.36c1.09-0.67,2.22-1.24,3.38-1.78c-1.03,0.48,0.03-0.01,0.22-0.08c0.33-0.13,0.66-0.24,0.99-0.36
			c0.76-0.26,1.53-0.48,2.32-0.67c0.53-0.12,1.06-0.21,1.59-0.32c1.1-0.21-1.03,0.08,0.09-0.01c0.32-0.03,0.64-0.06,0.97-0.08
			c1.4-0.09,2.81-0.06,4.2,0.08c0.09,0.01,1.12,0.2,0.37,0.04c-0.76-0.16,0.29,0.06,0.36,0.07c0.64,0.11,1.28,0.25,1.91,0.41
			c0.63,0.16,1.26,0.34,1.88,0.54c0.31,0.1,0.62,0.21,0.92,0.32c0.23,0.08,1.63,0.55,0.44,0.15c1.1,0.37,2.19,1.03,3.19,1.62
			c0.56,0.33,1.1,0.68,1.64,1.04c0.27,0.18,0.53,0.38,0.79,0.56c0.39,0.3,0.34,0.26-0.14-0.12c0.17,0.13,0.33,0.27,0.5,0.41
			c1.06,0.89,2.06,1.85,2.96,2.9c0.18,0.2,0.5,0.48,0.61,0.73c-0.38-0.5-0.42-0.55-0.12-0.16c0.13,0.17,0.25,0.34,0.37,0.51
			c0.42,0.6,0.81,1.22,1.17,1.86c0.31,0.55,0.58,1.11,0.85,1.68c0.47,0.97-0.32-0.94,0.03,0.08c0.14,0.4,0.29,0.79,0.41,1.19
			c0.22,0.71,0.4,1.42,0.54,2.15c0.06,0.28,0.18,0.66,0.16,0.94c0.07-1.28-0.02,0.08,0,0.41c0.16,2.34,1.95,4.61,4.5,4.5
			C466.31,629.46,468.69,627.58,468.51,625.06L468.51,625.06z"/>
	</g>
</g>
<g>
	<g>
		<path d="M520.52,635.17c-7.33-14.48-23.54-22.33-39.48-20.79c-4.1,0.4-8.13,1.24-11.95,2.82c-2.17,0.9-3.96,3.02-3.14,5.54
			c0.67,2.08,3.21,4.11,5.54,3.14c1.47-0.61,2.96-1.12,4.5-1.53c0.76-0.2,1.52-0.38,2.29-0.54c0.34-0.07,0.68-0.13,1.02-0.19
			c0.19-0.03,0.39-0.07,0.59-0.1c0.15-0.02,0.29-0.05,0.44-0.07c0.35-0.05,0.2-0.03-0.46,0.06c0.17,0.11,0.97-0.11,1.19-0.13
			c0.4-0.04,0.8-0.07,1.2-0.1c0.8-0.05,1.61-0.08,2.41-0.09c1.68-0.01,3.34,0.14,5.01,0.29c0.62,0.06-0.9-0.15-0.29-0.04
			c0.2,0.03,0.4,0.06,0.61,0.09c0.4,0.07,0.81,0.14,1.21,0.21c0.86,0.17,1.71,0.36,2.55,0.58c0.8,0.21,1.58,0.45,2.36,0.71
			c0.34,0.12,0.68,0.24,1.02,0.36c0.19,0.07,0.39,0.15,0.58,0.22c0.58,0.22,0.4,0.1-0.07-0.04c1.58,0.48,3.17,1.5,4.57,2.37
			c0.72,0.44,1.41,0.92,2.09,1.4c0.92,0.65-0.4-0.35,0.23,0.16c0.41,0.34,0.82,0.67,1.22,1.03c1.48,1.3,2.79,2.74,4.04,4.26
			c-0.73-0.89,0.32,0.45,0.5,0.71c0.29,0.42,0.57,0.85,0.85,1.28c0.59,0.94,1.13,1.91,1.63,2.9c1.07,2.1,4.2,2.88,6.16,1.61
			C521.05,639.94,521.65,637.42,520.52,635.17L520.52,635.17z"/>
	</g>
</g>
<g>
	<path class="st3" d="M642.39,516.14c-1-7.6-2.81-15.02-5.77-22.1c-3.09-7.4-7.12-14.21-12.25-20.38
		c-4.97-5.98-11-11.13-17.64-15.19c-7.22-4.42-15.29-7.57-23.56-9.39c-4.6-1.02-9.3-1.65-14-1.98c-9.26-0.4-18.69,0.59-27.57,3.31
		c-7.92,2.43-15.48,6.18-22.09,11.19c-6.7,5.08-12.43,11.09-17.23,18c-4.56,6.58-8.09,13.89-10.68,21.46
		c-2.63,7.67-4.18,15.7-4.8,23.78c-0.61,8-0.14,16.05,1.29,23.95c1.4,7.76,3.93,15.31,7.48,22.35c3.48,6.9,8.13,13.31,13.69,18.68
		c6.08,5.87,13.2,10.39,20.98,13.65c8.54,3.58,17.7,5.22,26.92,5.73c9.37,0.52,18.89-0.24,27.99-2.57
		c8.01-2.05,15.78-5.38,22.69-9.94c6.47-4.27,12.28-9.52,17.09-15.6c4.99-6.32,8.92-13.19,11.93-20.65
		c2.88-7.14,4.64-14.61,5.59-22.24C643.37,530.89,643.35,523.46,642.39,516.14z M633.42,516.37c-0.02-0.11-0.03-0.23-0.04-0.33
		C633.39,516.15,633.41,516.26,633.42,516.37z M633.46,516.63C633.48,516.8,633.47,516.75,633.46,516.63L633.46,516.63z
		 M532.87,594.9C532.74,594.84,532.77,594.85,532.87,594.9L532.87,594.9z M633.45,538.32c0,0.02-0.01,0.05-0.01,0.07
		c-0.01,0.08-0.02,0.17-0.04,0.25c-0.07,0.47-0.14,0.94-0.22,1.41c-0.14,0.87-0.29,1.74-0.46,2.61c-0.34,1.77-0.74,3.52-1.19,5.27
		c-0.9,3.48-2.03,6.9-3.38,10.23c-0.06,0.16-0.13,0.32-0.2,0.48c-0.17,0.39-0.33,0.77-0.51,1.16c-0.36,0.8-0.73,1.6-1.12,2.39
		c-0.79,1.61-1.63,3.19-2.53,4.74c-0.9,1.55-1.85,3.07-2.86,4.55c-0.51,0.76-1.04,1.5-1.58,2.24c-0.22,0.3-0.44,0.59-0.66,0.88
		c-0.12,0.15-0.24,0.31-0.37,0.46c-2.26,2.82-4.73,5.48-7.4,7.92c-1.35,1.24-2.79,2.36-4.19,3.54c1.04-0.88,0.11-0.09-0.33,0.24
		c-0.36,0.27-0.73,0.54-1.1,0.8c-0.77,0.55-1.55,1.08-2.35,1.6c-3.19,2.08-6.55,3.88-10.04,5.41c-0.11,0.05-0.22,0.1-0.33,0.14
		c-0.04,0.02-0.08,0.03-0.12,0.05c-0.45,0.18-0.89,0.36-1.34,0.53c-0.94,0.36-1.89,0.71-2.85,1.03c-1.92,0.65-3.87,1.22-5.84,1.72
		c-2.04,0.51-4.09,0.94-6.17,1.29c-0.48,0.08-0.96,0.16-1.44,0.23c-0.23,0.03-0.46,0.07-0.7,0.1c-0.02,0-0.04,0-0.05,0.01
		c-1.12,0.13-2.23,0.26-3.35,0.36c-4.64,0.4-9.31,0.44-13.97,0.16c-1.21-0.07-2.42-0.16-3.62-0.28c-0.58-0.05-1.15-0.11-1.73-0.18
		c-0.44-0.05-2.37-0.35-0.82-0.09c-2.16-0.36-4.3-0.68-6.44-1.17c-2.04-0.46-4.06-1.01-6.05-1.65c-0.95-0.31-1.89-0.63-2.83-0.98
		c-0.46-0.17-0.92-0.35-1.38-0.53c-0.18-0.07-0.37-0.15-0.55-0.22c-1.71-0.88-3.51-1.6-5.21-2.52c-1.68-0.91-3.31-1.89-4.9-2.95
		c-0.8-0.53-1.58-1.08-2.35-1.65c-0.17-0.13-0.34-0.25-0.51-0.38c0,0-0.01-0.01-0.01-0.01c-0.3-0.24-0.6-0.48-0.9-0.72
		c-1.43-1.17-2.81-2.4-4.13-3.69c-1.31-1.28-2.56-2.62-3.75-4.01c-0.59-0.69-1.16-1.4-1.73-2.11c-0.07-0.09-0.14-0.19-0.21-0.28
		c-0.29-0.39-0.57-0.77-0.85-1.16c-2.12-2.97-4-6.11-5.62-9.38c-0.42-0.84-0.81-1.68-1.2-2.53c-0.16-0.35-0.31-0.71-0.47-1.06
		c-0.07-0.18-0.15-0.36-0.22-0.54c-0.69-1.71-1.32-3.44-1.88-5.2c-1.14-3.54-2.03-7.16-2.68-10.82c-0.17-0.94-0.32-1.88-0.45-2.82
		c0-0.03-0.01-0.06-0.02-0.11c-0.01-0.07-0.02-0.13-0.02-0.17c-0.06-0.49-0.12-0.98-0.17-1.48c-0.2-1.87-0.35-3.75-0.43-5.63
		c-0.17-3.78-0.1-7.58,0.21-11.35c0.07-0.93,0.16-1.86,0.27-2.78c0.05-0.44,0.1-0.88,0.16-1.32c-0.01,0.05-0.02,0.1-0.03,0.17
		c0.04-0.25,0.07-0.5,0.11-0.75c0.27-1.88,0.6-3.75,0.99-5.61c0.78-3.72,1.79-7.39,3.03-10.98c0.3-0.88,0.62-1.75,0.95-2.62
		c0.17-0.43,0.33-0.87,0.51-1.3c0.08-0.2,0.16-0.4,0.24-0.6c0.04-0.09,0.12-0.29,0.19-0.45c0.01-0.02,0.02-0.04,0.02-0.06
		c0.08-0.2,0.17-0.39,0.26-0.59c0.2-0.46,0.41-0.91,0.62-1.37c0.4-0.87,0.82-1.74,1.26-2.6c1.7-3.36,3.63-6.61,5.78-9.7
		c0.53-0.76,1.07-1.5,1.62-2.24c0.13-0.17,0.26-0.34,0.39-0.51c-0.02,0.03-0.04,0.05-0.06,0.08c0.29-0.37,0.58-0.73,0.88-1.09
		c1.19-1.45,2.44-2.86,3.74-4.22c1.3-1.36,2.66-2.67,4.07-3.92c0.69-0.62,1.4-1.22,2.12-1.81c0.34-0.28,0.69-0.55,1.04-0.83
		c0.17-0.13,0.34-0.26,0.51-0.39c3.06-2.28,6.31-4.3,9.71-6.03c0.89-0.45,1.79-0.89,2.7-1.3c0.38-0.17,0.77-0.34,1.15-0.51
		c0.22-0.09,0.45-0.18,0.67-0.27c1.88-0.75,3.79-1.41,5.72-1.99c1.99-0.6,4.01-1.1,6.04-1.52c1.06-0.22,2.13-0.41,3.2-0.59
		c0.47-0.08,0.95-0.14,1.42-0.21c0.26-0.03,0.52-0.06,0.78-0.09c4.41-0.51,8.85-0.63,13.28-0.44c1.16,0.08,2.32,0.18,3.48,0.31
		c0.51,0.05,1.01,0.11,1.52,0.18c0.06,0.01,0.13,0.02,0.19,0.02c0.2,0.03,0.41,0.06,0.61,0.09c2.14,0.32,4.28,0.71,6.39,1.2
		c4,0.91,7.93,2.13,11.73,3.68c0.04,0.02,0.08,0.03,0.11,0.05c0.04,0.02,0.11,0.05,0.21,0.09c0.1,0.04,0.2,0.09,0.3,0.12
		c-0.03-0.01-0.06-0.02-0.09-0.03c0.42,0.18,0.84,0.37,1.26,0.56c0.9,0.41,1.79,0.84,2.67,1.29c1.7,0.87,3.36,1.81,4.99,2.81
		c1.59,0.99,3.14,2.04,4.64,3.15c0.34,0.25,1.56,1.27,0.34,0.25c0.35,0.29,0.71,0.56,1.06,0.84c0.73,0.59,1.44,1.19,2.14,1.81
		c2.71,2.4,5.23,5.01,7.53,7.81c0.26,0.31,0.51,0.63,0.77,0.95c0.04,0.05,0.13,0.17,0.22,0.28c0.03,0.04,0.06,0.08,0.07,0.1
		c0.55,0.73,1.09,1.47,1.61,2.22c1.02,1.47,1.99,2.97,2.9,4.51c0.91,1.54,1.76,3.11,2.55,4.71c0.39,0.78,0.77,1.58,1.13,2.37
		c0.18,0.4,0.36,0.8,0.53,1.2c0.03,0.06,0.05,0.12,0.07,0.17c0.03,0.08,0.07,0.16,0.1,0.24c1.36,3.31,2.48,6.72,3.38,10.18
		c0.44,1.7,0.83,3.42,1.16,5.15c0.17,0.9,0.33,1.8,0.47,2.7c0.07,0.44,0.13,0.87,0.2,1.31c0,0.02,0,0.03,0.01,0.05
		c0.01,0.09,0.02,0.18,0.04,0.27c0.45,3.57,0.67,7.18,0.66,10.78C634.13,531.13,633.9,534.74,633.45,538.32z"/>
	<path class="st3" d="M512.14,481.31c-0.02,0.02-0.04,0.05-0.06,0.07C511.87,481.64,511.4,482.35,512.14,481.31z"/>
	<path class="st3" d="M593.63,461.8c-0.02-0.01-0.04-0.02-0.06-0.02c-0.06-0.03-0.1-0.04-0.15-0.06c-0.07-0.03-0.14-0.06-0.21-0.09
		C593.06,461.56,593.28,461.66,593.63,461.8z"/>
	<path class="st3" d="M496.27,520.35c0,0.02-0.01,0.05-0.01,0.07C496.47,519.14,496.32,520.01,496.27,520.35z"/>
</g>
<g>
	<g>
		<path d="M571.46,536.72c0.44-0.44,0.88-0.88,1.31-1.31c1.01-0.94,1.72-2.05,2.14-3.33c0.65-1.23,0.95-2.57,0.89-3.99
			c0.05-1.43-0.24-2.76-0.89-3.99c-0.42-1.28-1.13-2.4-2.14-3.33c-0.7-0.54-1.4-1.08-2.1-1.62c-1.62-0.94-3.36-1.41-5.23-1.41
			c-0.92,0.12-1.84,0.25-2.75,0.37c-1.76,0.49-3.28,1.38-4.57,2.66c-0.44,0.44-0.88,0.88-1.31,1.31c-1.01,0.94-1.72,2.05-2.14,3.33
			c-0.65,1.23-0.95,2.57-0.89,3.99c-0.05,1.43,0.24,2.76,0.89,3.99c0.42,1.28,1.13,2.4,2.14,3.33c0.7,0.54,1.4,1.08,2.1,1.62
			c1.62,0.94,3.36,1.41,5.23,1.41c0.92-0.12,1.84-0.25,2.75-0.37C568.64,538.89,570.17,538,571.46,536.72L571.46,536.72z"/>
	</g>
</g>
<g>
	<g>
		<path d="M568.9,522.83c0-13.79,0-27.57,0-41.36c0-1.87-1.59-3.45-3.45-3.45c-1.87,0-3.45,1.58-3.45,3.45c0,13.79,0,27.57,0,41.36
			c0,1.87,1.59,3.45,3.45,3.45C567.32,526.28,568.9,524.7,568.9,522.83L568.9,522.83z"/>
	</g>
</g>
<g>
	<g>
		<path d="M570.37,530.21c9.85,0,19.69,0,29.54,0c1.88,0,1.88-2.92,0-2.92c-9.85,0-19.69,0-29.54,0
			C568.49,527.29,568.49,530.21,570.37,530.21L570.37,530.21z"/>
	</g>
</g>
<g>
	<g>
		<path d="M558.56,528.62c-9.75,9.75-19.5,19.5-29.24,29.24c-1.66,1.66-1.79,4.71,0,6.35c1.79,1.65,4.58,1.77,6.35,0
			c9.75-9.75,19.5-19.5,29.24-29.24c1.66-1.66,1.79-4.71,0-6.35C563.12,526.97,560.33,526.84,558.56,528.62L558.56,528.62z"/>
	</g>
</g>
<line class="st3" x1="564.13" y1="456.02" x2="564.13" y2="461.8"/>
<line class="st3" x1="514.25" y1="478.51" x2="518.34" y2="482.59"/>
<line class="st3" x1="613.73" y1="476.49" x2="609.71" y2="480.64"/>
<line class="st3" x1="616.64" y1="577.65" x2="612.56" y2="573.56"/>
<line class="st3" x1="515.14" y1="582.74" x2="519.17" y2="578.59"/>
<line class="st3" x1="634.12" y1="528.74" x2="628.68" y2="528.74"/>
<line class="st3" x1="564.79" y1="599.75" x2="564.79" y2="594.31"/>
<line class="st3" x1="495.77" y1="527.42" x2="501.21" y2="527.42"/>
</svg>
