<?xml version="1.0" encoding="utf-8"?>
<!-- Generator: Adobe Illustrator 24.1.0, SVG Export Plug-In . SVG Version: 6.00 Build 0)  -->
<svg version="1.1" id="Ebene_1" xmlns="http://www.w3.org/2000/svg" xmlns:xlink="http://www.w3.org/1999/xlink" x="0px" y="0px"
	 viewBox="0 0 450 450" style="enable-background:new 0 0 450 450;" xml:space="preserve">
<style type="text/css">
	.st0{fill:#74CCCF;}
	.st1{fill:#FEBF10;}
	.st2{fill:#1E4384;}
	.st3{fill:#14B6B9;}
</style>
<g>
	<path class="st0" d="M289.16,259.72c4.89,0.26,9.89,0.14,14.57-1.3c9.98-3.09,17.14-11.63,23.7-19.77
		c-16.03-18.34-28.17-40.51-32.37-64.51c-4.21-23.99-5.16-54.99,8.63-75.07c4.92-7.16,11.18-13.67,19.08-17.27
		c7.9-3.6,22.8,1.25,30.16,5.86c8.27,5.18,29.88,29.41,31.72,38.57"/>
</g>
<g>
	<path class="st0" d="M312.62,334.47c3.4,0.52,6.66-1.37,9.52-3.27c36.02-23.84,62.22-62.05,71.49-104.23s1.49-87.86-21.22-124.6"/>
</g>
<g>
	<path class="st0" d="M104.83,368.42c-1.47,1.26-2.51,3.01-2.67,4.94c-0.08,1.01-0.02,1.86-0.07,2.55
		c-0.57,7.59,0.79,16.03,7.58,20.43c3.05,1.98,7.04,2.42,10.34,0.89c5.16-2.37,5.85-7.33,5.34-11.81c-0.54-4.75-2.4-9.46-5.83-12.78
		c-3.09-2.99-7.92-5.81-12.21-5.42C106.39,367.32,105.54,367.81,104.83,368.42L104.83,368.42z"/>
	<g>
		<path d="M102.46,366.05c-1.45,1.3-2.51,2.92-3.16,4.75c-0.61,1.71-0.47,3.52-0.57,5.3c-0.19,3.17-0.08,6.31,0.51,9.44
			c1.22,6.57,5.26,12.76,11.71,15.13c6.96,2.56,15.18-0.99,17.31-8.24c0.9-3.07,0.68-6.36,0.13-9.47c-0.61-3.44-1.94-6.92-4-9.76
			c-2.38-3.28-5.64-6.02-9.35-7.68c-2.05-0.92-4.14-1.56-6.4-1.67C106.26,363.74,104.24,364.52,102.46,366.05
			c-1.38,1.18-1.21,3.54,0,4.75c1.37,1.37,3.37,1.18,4.75,0c0.1-0.09,0.32-0.21,0.62-0.26c-0.51,0.09,0.67,0.03,0.62,0.03
			c0.25,0.01,0.51,0.02,0.75,0.05c-0.54-0.07,0.69,0.16,0.62,0.14c0.25,0.06,0.51,0.13,0.76,0.2c0.76,0.23,1.15,0.38,1.8,0.7
			c2.43,1.21,4.44,2.68,6.13,4.82c2.71,3.43,4.1,8.55,3.55,13.05c0.08-0.66-0.17,0.72-0.23,0.95c-0.08,0.3-0.18,0.6-0.29,0.89
			c0.05-0.15,0.28-0.5-0.03,0.05c-0.15,0.27-0.31,0.54-0.46,0.82c-0.04,0.08-0.36,0.52-0.04,0.09c-0.2,0.26-0.43,0.5-0.66,0.72
			c-0.07,0.07-0.77,0.64-0.38,0.35c-1.99,1.46-4.24,1.7-6.46,1.04c-4.15-1.23-6.49-5.25-7.49-9.34c-0.6-2.45-0.73-4.59-0.64-7.45
			c0.05-1.38-0.05-2.92,0.16-4.29c-0.06,0.39,0.07-0.22,0.08-0.24c0.13-0.4,0.1-0.44,0.4-0.95c0.36-0.62,0.6-0.83,1.21-1.38
			c1.35-1.21,1.23-3.52,0-4.75C105.86,364.7,103.81,364.83,102.46,366.05z"/>
	</g>
</g>
<g>
	<path class="st1" d="M91.99,121.16c1.71-9.53,4.5-18.86,8.3-27.77c4.38,7.11,8.77,14.22,13.15,21.33c0.72,1.16,1.49,2.38,2.69,3.02
		c1.31,0.7,2.88,0.59,4.36,0.46c10.54-0.9,21.08-1.79,31.62-2.69c-4.4,10.2-8.81,20.39-13.21,30.59c-0.66,1.52-1.33,3.11-1.26,4.77
		c0.1,2.37,1.67,4.37,3.09,6.27c4.84,6.49,8.7,13.72,11.39,21.35c-9.64-3.2-19.29-6.39-28.93-9.59c-1.19-0.39-2.51-0.78-3.65-0.25
		c-1.04,0.49-1.59,1.61-2.07,2.66c-4.47,9.72-8.94,19.45-13.4,29.17c-2.17-11.28-4.63-22.5-7.38-33.66
		c-11.71-2.03-23.21-5.2-34.3-9.46c9.17-10.99,14.43-17.03,24.81-26.88l0.81-0.91C90.1,127.22,91.43,124.29,91.99,121.16z"/>
	<g>
		<path d="M94.15,121.76c1.7-9.33,4.37-18.5,8.07-27.23c-1.29,0-2.58,0-3.87,0c2.36,3.83,4.73,7.67,7.09,11.5
			c2.27,3.68,4.35,7.58,6.88,11.08c1.14,1.58,2.57,2.84,4.53,3.23c2.09,0.42,4.26,0.05,6.35-0.13c4.53-0.38,9.06-0.77,13.59-1.15
			c5.11-0.43,10.21-0.87,15.32-1.3c-0.64-1.12-1.29-2.25-1.93-3.37c-3.94,9.13-7.89,18.26-11.83,27.39
			c-0.94,2.17-2.16,4.4-2.68,6.72c-0.51,2.27-0.15,4.42,0.91,6.47c0.94,1.83,2.34,3.42,3.52,5.1c1.27,1.81,2.47,3.66,3.59,5.57
			c2.51,4.28,4.62,8.78,6.28,13.46c0.92-0.92,1.84-1.84,2.75-2.75c-9.25-3.07-18.5-6.13-27.75-9.2c-2.12-0.7-4.42-1.52-6.56-0.41
			c-1.81,0.94-2.59,2.84-3.39,4.58c-2.03,4.41-4.06,8.83-6.08,13.24c-2.27,4.94-4.54,9.87-6.81,14.81c1.36,0.18,2.73,0.36,4.09,0.53
			c-2.17-11.28-4.63-22.5-7.38-33.66c-0.17-0.7-0.83-1.44-1.56-1.56c-11.71-2.04-23.2-5.21-34.3-9.46c0.33,1.25,0.66,2.5,0.99,3.74
			c5.22-6.26,10.49-12.48,16.15-18.34c2.86-2.96,5.97-5.69,8.78-8.68C91.59,129.09,93.41,125.62,94.15,121.76
			c0.23-1.19-0.33-2.42-1.56-2.75c-1.09-0.3-2.53,0.37-2.75,1.56c-0.64,3.33-2.11,6.31-4.57,8.67c-2.99,2.88-5.97,5.77-8.84,8.76
			c-5.47,5.7-10.57,11.73-15.63,17.79c-1.14,1.36-0.65,3.11,0.99,3.74c11.1,4.25,22.59,7.41,34.3,9.46
			c-0.52-0.52-1.04-1.04-1.56-1.56c2.75,11.15,5.21,22.38,7.38,33.66c0.35,1.82,3.3,2.26,4.09,0.53
			c3.75-8.15,7.49-16.31,11.24-24.46c0.86-1.88,1.63-3.85,2.63-5.65c0.3-0.54,0.45-0.84,1.07-0.86c0.98-0.02,2.17,0.59,3.08,0.89
			c4.27,1.42,8.54,2.83,12.81,4.25c4.9,1.62,9.8,3.25,14.7,4.87c1.56,0.52,3.32-1.17,2.75-2.75c-2.85-8.04-6.88-15.52-11.97-22.37
			c-1.01-1.36-2.29-2.9-2.42-4.67c-0.16-2.06,1.25-4.33,2.04-6.15c1.87-4.34,3.75-8.67,5.62-13.01c2.17-5.02,4.34-10.04,6.51-15.06
			c0.6-1.39-0.05-3.53-1.93-3.37c-8.56,0.73-17.13,1.46-25.69,2.18c-2.04,0.17-4.09,0.36-6.13,0.52c-1.56,0.12-2.97,0.25-4.04-1.06
			c-1.19-1.47-2.08-3.27-3.07-4.88c-1.12-1.81-2.23-3.62-3.35-5.44c-2.54-4.11-5.07-8.22-7.61-12.34c-0.79-1.28-3.18-1.63-3.87,0
			c-3.86,9.11-6.75,18.56-8.52,28.3c-0.22,1.19,0.32,2.41,1.56,2.75C92.48,123.62,93.93,122.95,94.15,121.76z"/>
	</g>
</g>
<g>
	<path class="st1" d="M169.03,76.34c-0.91,1.25,7.02-6.03,12.2-9.68c-0.01,3.51-0.02,7.02-0.03,10.53c0,0.98,0.01,2.01,0.5,2.85
		c0.54,0.92,1.56,1.45,2.52,1.92c2.55,1.25,5.1,2.5,7.64,3.76c0.76,0.37,1.62,0.88,1.7,1.73c0.1,0.97-0.89,1.67-1.77,2.11
		c-3.55,1.77-7.35,3.04-11.25,3.75c-1.34,0.24-2.85,0.53-3.59,1.67c-0.41,0.64-0.48,1.43-0.55,2.18
		c-0.43,5.05-0.86,10.11-1.29,15.16c-2.65-4.32-5.3-8.63-7.94-12.95c-0.65-1.06-1.43-2.21-2.65-2.45c-0.83-0.17-1.67,0.14-2.46,0.44
		c-4.12,1.57-8.24,3.14-12.36,4.71c3.07-4.5,6.14-8.99,9.2-13.49c0.53-0.78,1.09-1.71,0.8-2.61c-0.24-0.75-0.99-1.18-1.64-1.62
		c-2.45-1.66-4.24-4.27-4.89-7.16c4.47,0.01,8.94,0.02,13.41,0.02L169.03,76.34z"/>
	<g>
		<path d="M167.1,75.21c-0.25,0.35-0.38,0.84-0.38,1.27c0.01,0.75,0.41,1.59,1.11,1.93c1.42,0.7,2.37,0,3.42-0.83
			c1-0.8,1.97-1.64,2.95-2.46c2.66-2.24,5.32-4.5,8.16-6.52c-1.12-0.64-2.25-1.29-3.37-1.93c-0.01,2.31-0.01,4.63-0.02,6.94
			c-0.01,2.13-0.35,4.63,0.39,6.67c0.71,1.96,2.38,2.96,4.16,3.84c2.05,1.01,4.1,2.02,6.16,3.03c0.43,0.21,0.89,0.52,1.35,0.67
			c0.41,0.14,0.42,0.45,0.41-0.2c-0.01-0.59-0.09-0.34-0.46-0.13c-0.5,0.28-1.02,0.51-1.53,0.75c-1.97,0.91-4.04,1.62-6.13,2.18
			c-1.94,0.52-4.05,0.67-5.9,1.48c-1.93,0.85-2.89,2.48-3.14,4.53c-0.64,5.28-0.92,10.62-1.37,15.92c1.39-0.38,2.78-0.75,4.17-1.13
			c-1.71-2.79-3.42-5.57-5.13-8.36c-0.85-1.39-1.71-2.79-2.56-4.18c-0.7-1.15-1.43-2.3-2.54-3.1c-2.65-1.91-5.67-0.24-8.33,0.77
			c-3.13,1.19-6.26,2.38-9.38,3.57c0.84,1.1,1.69,2.19,2.53,3.29c1.67-2.45,3.35-4.9,5.02-7.36c0.84-1.23,1.67-2.45,2.51-3.68
			c0.83-1.22,1.82-2.43,2.41-3.79c0.56-1.3,0.58-2.73-0.17-3.96c-0.63-1.03-1.69-1.55-2.61-2.27c-1.78-1.4-2.94-3.36-3.47-5.54
			c-0.72,0.94-1.44,1.89-2.16,2.83c3.64,0.01,7.28,0.01,10.92,0.02c1.23,0,2.47,0.14,3.64-0.28c0.63-0.22,1.25-0.44,1.88-0.66
			c2.7-0.96,1.54-5.28-1.19-4.32c-0.59,0.21-1.18,0.42-1.77,0.63c-0.15,0.05-0.6,0.19-0.61,0.19c-0.63,0.06-1.67-0.04-2.45-0.04
			c-3.48-0.01-6.95-0.01-10.43-0.02c-1.49,0-2.5,1.43-2.16,2.83c0.54,2.21,1.59,4.21,3.05,5.95c0.74,0.89,1.62,1.65,2.56,2.33
			c0.3,0.22,0.71,0.4,0.96,0.68c0.16,0.17-0.07-0.17-0.06-0.21c-0.08,0.27-0.28,0.51-0.43,0.74c-2.99,4.62-6.21,9.11-9.32,13.66
			c-1.06,1.55,0.72,3.98,2.53,3.29c2.67-1.02,5.34-2.03,8.01-3.05c1.3-0.49,2.59-0.99,3.89-1.48c0.55-0.21,1.2-0.57,1.79-0.58
			c0.13,0,0.32,0.12,0.6,0.43c0.73,0.82,1.23,1.91,1.8,2.83c0.73,1.18,1.45,2.37,2.18,3.55c1.54,2.51,3.08,5.01,4.61,7.52
			c1.22,1.99,3.99,1.03,4.17-1.13c0.4-4.73,0.81-9.45,1.21-14.18c0.05-0.57-0.06-1.65,0.4-2.08c0.42-0.38,1.3-0.43,1.83-0.53
			c2.14-0.42,4.24-0.91,6.31-1.61c3.06-1.04,10.18-3.05,8.43-7.63c-0.74-1.95-2.96-2.69-4.68-3.54c-1.95-0.96-3.91-1.88-5.84-2.87
			c-0.79-0.4-1.44-0.69-1.56-1.62c-0.16-1.19-0.02-2.49-0.02-3.69c0.01-2.63,0.02-5.26,0.02-7.89c0-1.59-1.95-2.94-3.37-1.93
			c-2.73,1.93-5.31,4.07-7.87,6.22c-1.04,0.87-2.07,1.75-3.11,2.62c-0.34,0.28-0.68,0.56-1.02,0.84c-0.35,0.29,0.45-0.22-0.02,0.01
			c-0.34,0.17-0.12-0.01,0.31-0.1c0.58,0.08,1.15,0.15,1.73,0.23c0,0-0.01,0-0.01-0.01c0.37,0.64,0.74,1.29,1.11,1.93
			c-0.39,1.01-0.47,1.34-0.23,0.99c0.69-0.99,0.18-2.49-0.8-3.06C169.05,73.76,167.79,74.22,167.1,75.21z"/>
	</g>
</g>
<g>
	<path class="st1" d="M55.63,194.53c-7.55,3.95-10.81,13.72-8.79,22c0.35,1.42,0.87,2.82,1.67,4.05c2.35,3.6,6.87,5.29,11.17,5.31
		c1.18,0.01,2.37-0.1,3.48-0.51c1.32-0.49,2.45-1.41,3.45-2.41c4.37-4.44,6.36-11.2,4.72-17.21s-5.21-11.53-13.16-11.71
		L55.63,194.53z"/>
	<g>
		<path d="M54.5,192.6c-5.98,3.22-9.46,9.51-10.3,16.11c-0.41,3.27-0.18,6.77,0.91,9.9c1.3,3.73,3.92,6.54,7.55,8.09
			c3.35,1.43,7.8,2.13,11.28,0.76c3.57-1.4,6.33-4.8,7.98-8.17c3.1-6.35,2.78-13.68-0.73-19.81c-1.76-3.07-4.39-5.46-7.71-6.71
			c-1.77-0.67-4.04-1.18-5.92-0.88c-0.85,0.14-1.69,0.32-2.53,0.48c-1.19,0.23-1.87,1.66-1.56,2.75c0.34,1.25,1.56,1.79,2.75,1.56
			c0.71-0.13,1.42-0.33,2.14-0.41c0.6-0.06-0.08-0.12,0.58,0.04c0.74,0.17,1.5,0.19,2.25,0.4c2.06,0.57,3.85,1.81,5.15,3.5
			c3.16,4.09,4.08,9.8,2.55,14.68c-0.84,2.69-2.39,5.17-4.49,7.07c-2.3,2.09-5.52,1.96-8.36,1.18c-2.68-0.73-5.05-2.3-6.26-4.86
			c-1.14-2.41-1.41-5.26-1.27-7.89c0.3-5.66,3.15-11.22,8.24-13.95C59.3,195.1,57.04,191.23,54.5,192.6z"/>
	</g>
</g>
<g>
	<path class="st1" d="M128.82,209.17c-4.11,2.56-5.82,8.12-4.48,12.77c1.35,4.65,5.34,8.27,9.92,9.85
		c3.52,1.22,7.54,1.31,10.88-0.35c3.34-1.65,5.81-5.22,5.6-8.94c-0.07-1.25-0.42-2.47-0.81-3.66c-0.9-2.8-2.05-5.65-4.25-7.61
		c-3.62-3.22-9.01-3.18-13.86-2.95L128.82,209.17z"/>
	<g>
		<path d="M127.69,207.24c-5.16,3.34-7.33,10.21-5.29,15.99c2.07,5.88,7.58,10.23,13.67,11.36c6.77,1.26,14.27-1.55,16.45-8.58
			c1.05-3.39,0.02-6.86-1.24-10.04c-1.24-3.14-3.03-6-5.99-7.77c-3.09-1.85-6.83-2.25-10.36-2.24c-1.39,0-2.88-0.07-4.22,0.32
			c-0.83,0.25-1.66,0.49-2.49,0.74c-2.76,0.82-1.58,5.14,1.19,4.32c0.54-0.16,1.08-0.32,1.62-0.48c0.32-0.09,0.64-0.19,0.95-0.28
			c0.11-0.03,0.22-0.08,0.34-0.1c0.2-0.04-0.74-0.02,0.27,0.02c2.54,0.11,5.01-0.18,7.52,0.43c2.29,0.56,4.25,1.71,5.55,3.73
			c1.37,2.13,2.52,5.01,2.81,7.53c0.6,5.24-4.73,8.4-9.33,8.29c-4.6-0.11-9.24-2.68-11.58-6.67c-2.39-4.07-1.79-9.97,2.39-12.67
			C132.36,209.55,130.12,205.67,127.69,207.24z"/>
	</g>
</g>
<g>
	<path class="st1" d="M83.82,253.87c-5.61,0.22-11.08,3.7-13.28,8.87c-2.2,5.17-0.76,11.77,3.65,15.25c2.2,1.73,4.93,2.65,7.64,3.36
		c4.31,1.14,9.15,1.79,13.01-0.43c3.42-1.96,5.32-5.76,6.58-9.5c0.85-2.55,1.5-5.3,0.84-7.9c-0.77-3.05-3.24-5.44-6.05-6.86
		c-2.81-1.42-5.95-2.01-9.04-2.59L83.82,253.87z"/>
	<g>
		<path d="M83.82,251.63c-7.15,0.37-14.11,5.05-16.01,12.17c-1.87,6.98,1.36,14.61,7.92,17.76c3.6,1.73,7.74,2.77,11.72,3.03
			c3.99,0.27,7.96-0.76,10.93-3.54c2.67-2.51,4.24-6.02,5.34-9.45c1.27-3.95,1.64-8.3-0.75-11.92
			C98.86,253.46,90.73,252.07,83.82,251.63c-2.88-0.18-2.87,4.3,0,4.48c1.68,0.11,3.18,0.2,4.52,0.47c3.07,0.61,6.31,1.35,8.83,3.33
			c2.37,1.87,3.46,4.45,3.01,7.45c-0.44,2.95-1.64,6.03-3.27,8.52c-1.56,2.38-3.89,3.92-6.74,4.22c-3.15,0.34-6.37-0.45-9.36-1.36
			c-2.74-0.84-5.49-2.1-7.14-4.56c-1.45-2.17-2.08-4.76-1.87-7.36c0.5-6.04,6.22-10.4,12.02-10.71
			C86.69,255.96,86.7,251.48,83.82,251.63z"/>
	</g>
</g>
<g>
	<g>
		<path d="M107.95,368.81c4.32,0,4.33-6.72,0-6.72C103.63,362.1,103.62,368.81,107.95,368.81L107.95,368.81z"/>
	</g>
</g>
<g>
	<path class="st2" d="M121.8,397.62c58.78-19.25,122.94-39.27,181.72-58.52c1.96-0.64,4.01-1.34,5.41-2.85
		c2.04-2.2,2.18-5.51,2.2-8.52c0.09-11.82,0.15-23.87-3.36-35.16c-3.52-11.29-11.25-21.91-22.4-25.85
		c-13.73-4.85-28.79,1.27-41.5,8.4c-47.53,26.66-87.86,70.29-137.95,91.75c0,0,11.4-0.61,14.25,4.07c2.85,4.68,6.72,8.96,6.52,14.46
		C126.48,390.9,121.8,397.62,121.8,397.62z"/>
	<g>
		<path d="M122.69,400.86c16.31-5.34,32.65-10.62,48.99-15.86c16.69-5.36,33.39-10.69,50.08-16.02c16.7-5.34,33.4-10.68,50.09-16.06
			c8.15-2.63,16.3-5.27,24.44-7.92c3.92-1.28,8.1-2.3,11.82-4.09c4.02-1.92,5.75-5.69,6.21-9.93c0.43-3.99,0.21-8.13,0.16-12.14
			c-0.05-4.29-0.22-8.57-0.69-12.84c-0.88-8.06-2.7-15.98-6.47-23.21c-3.27-6.27-7.98-11.89-13.91-15.79
			c-6.51-4.28-14.46-5.94-22.17-5.19c-8.4,0.82-16.33,3.84-23.82,7.61c-6.92,3.48-13.55,7.55-20.06,11.74
			c-12.87,8.3-25.15,17.48-37.33,26.76c-12.25,9.34-24.41,18.81-36.99,27.7c-12.38,8.75-25.2,16.96-38.79,23.72
			c-3.3,1.64-6.65,3.19-10.04,4.65c-1.34,0.58-1.9,2.49-1.54,3.79c0.38,1.37,1.78,2.54,3.24,2.47c1.47-0.08,2.95-0.02,4.41,0.1
			c0.33,0.03,0.67,0.06,1,0.1c0.8,0.08-0.34-0.07,0.27,0.04c0.71,0.12,1.41,0.24,2.11,0.42c0.6,0.15,1.18,0.35,1.77,0.54
			c0.58,0.19,0.02,0.01-0.09-0.05c0.15,0.07,0.31,0.14,0.46,0.22c0.29,0.15,0.56,0.35,0.85,0.49c0.48,0.23,0.01-0.01-0.11-0.11
			c0.12,0.1,0.24,0.19,0.35,0.3c0.12,0.12,0.61,0.72,0.33,0.33c-0.32-0.45,0.06,0.13,0.1,0.2c0.1,0.17,0.21,0.34,0.32,0.51
			c0.32,0.51,0.65,1.02,0.99,1.52c1.14,1.71,2.31,3.41,3.27,5.24c1.68,3.2,1.71,5.71,0.47,9.16c-0.08,0.22-0.17,0.44-0.25,0.66
			c-0.39,1.04,0.12-0.25-0.13,0.32c-0.2,0.46-0.41,0.91-0.64,1.36c-0.37,0.75-0.76,1.48-1.18,2.2c-0.42,0.72-0.85,1.44-1.33,2.13
			c-1.03,1.49-0.28,3.73,1.21,4.6c1.67,0.98,3.56,0.29,4.6-1.21c4.02-5.8,6.97-13.35,4.14-20.25c-0.89-2.17-2.06-4.15-3.35-6.1
			c-1.15-1.74-2.17-3.77-3.63-5.27c-2.31-2.38-5.81-3.33-8.99-3.78c-2.3-0.32-4.63-0.52-6.95-0.4c0.57,2.09,1.13,4.17,1.7,6.26
			c13.57-5.83,26.4-13.25,38.69-21.41c12.51-8.3,24.5-17.36,36.43-26.47c12-9.17,23.95-18.41,36.33-27.06
			c6.05-4.23,12.21-8.31,18.52-12.15c6.48-3.94,13.11-7.84,20.18-10.61c6.85-2.68,14.52-4.63,21.71-3.4
			c6.76,1.15,12.09,4.39,16.61,9.47c4.2,4.71,7.16,10.71,8.9,16.88c2.24,7.98,2.72,16.27,2.79,24.51c0.02,2.11,0.01,4.22,0,6.32
			c-0.01,1.69,0.05,3.79-0.18,5.23c-0.21,1.33-0.5,2.43-1.61,3.31c-0.9,0.71-2.4,1.14-3.81,1.6c-7.94,2.6-15.89,5.18-23.84,7.76
			c-16.18,5.23-32.37,10.42-48.56,15.6c-16.34,5.22-32.67,10.43-49.01,15.67c-16.09,5.15-32.17,10.33-48.24,15.55
			c-3.88,1.26-7.76,2.53-11.63,3.8c-1.72,0.56-2.84,2.32-2.35,4.13C119.02,400.2,120.96,401.43,122.69,400.86z"/>
	</g>
</g>
<g>
	<path class="st0" d="M384.64,126.23c-1.83-9.16-23.44-33.39-31.72-38.57c-7.36-4.61-22.26-9.46-30.16-5.86
		c-7.9,3.6-14.16,10.12-19.08,17.27c-13.79,20.08-12.84,51.08-8.63,75.07c4.21,23.99,16.35,46.16,32.37,64.51
		c-6.56,8.13-13.72,16.68-23.7,19.77c-4.68,1.45-9.67,1.57-14.57,1.3c-13.74-0.74-27.54-4.54-38.8-12.44
		c-14.08-9.88-23.31-25.53-28.37-41.97s-6.31-33.78-7.15-50.96c-0.97-20.09-1.34-40.68,4.94-59.78
		c6.29-19.11,20.49-36.73,39.93-41.9c7.03-1.87,14.41-2.06,21.68-1.62c16.78,1.01,33.37,5.29,48.53,12.55
		c8.84,4.23,17.25,9.49,24.45,16.14c7.11,6.57,12.95,14.4,18.03,22.63c22.71,36.74,30.49,82.41,21.22,124.6
		s-35.47,80.4-71.49,104.23c-2.87,1.9-6.13,3.78-9.52,3.27c0,0,3.02-53.78-24.22-69.1"/>
	<g>
		<path d="M387.88,125.33c-0.52-2.48-1.79-4.85-3.06-7.02c-1.71-2.92-3.68-5.68-5.73-8.37c-4.65-6.1-9.69-11.91-15.15-17.29
			c-4.51-4.45-9.17-8.29-15.02-10.83c-4.18-1.82-8.52-3.28-13.03-4.02c-4.19-0.7-8.73-1.05-12.83,0.31
			c-4.71,1.55-9.02,4.73-12.66,8.01c-3.72,3.36-6.92,7.3-9.73,11.44c-5.14,7.55-8.2,16.45-9.86,25.39
			c-1.76,9.43-2.16,19.08-1.69,28.65c0.46,9.49,1.61,19.08,3.67,28.36c4.51,20.28,14.51,39,27.36,55.2c1.59,2,3.22,3.95,4.9,5.88
			c0-1.58,0-3.17,0-4.75c-6.48,8.03-13.68,17.03-24.24,19.44c-5.73,1.31-11.92,0.82-17.71,0.12c-5.56-0.67-11.09-2-16.37-3.88
			c-10.38-3.7-19.35-10.11-26.39-18.55c-6.67-8.01-11.44-17.61-14.64-27.48c-3.89-11.99-5.65-24.52-6.62-37.05
			c-0.98-12.66-1.64-25.45-1.38-38.15c0.46-21.98,4.99-44.85,20.63-61.16c6.81-7.1,15.2-12.25,24.87-14.26
			c6.14-1.27,12.49-1.25,18.72-0.86c6.11,0.39,12.17,1.24,18.15,2.52c11.83,2.54,23.32,6.69,33.95,12.48
			c10.52,5.74,19.66,13.2,27.15,22.58c7.11,8.9,12.88,19.03,17.66,29.36c4.78,10.33,8.41,21.18,10.98,32.27
			c5.08,21.97,5.77,45.08,1.65,67.26c-3.84,20.69-11.76,40.46-23.03,58.22c-11.08,17.46-25.43,33-42.18,45.16
			c-2.03,1.48-4.1,2.92-6.2,4.29c-2.29,1.49-4.6,2.87-7.42,2.54c1.12,1.12,2.24,2.24,3.36,3.36c0.36-6.48,0.01-13.07-0.64-19.52
			c-1.27-12.69-3.93-25.74-10.3-36.93c-3.6-6.32-8.57-11.93-14.94-15.56c-3.76-2.14-7.15,3.66-3.39,5.8
			c0.63,0.36,1.26,0.74,1.87,1.14c0.28,0.19,0.56,0.38,0.84,0.57c0.16,0.11,0.31,0.22,0.47,0.34c0.06,0.05,0.69,0.53,0.35,0.26
			c-0.25-0.2,0.44,0.36,0.56,0.46c0.29,0.25,0.59,0.5,0.87,0.76c0.57,0.51,1.13,1.05,1.66,1.6c0.47,0.48,0.93,0.98,1.37,1.49
			c0.25,0.29,0.51,0.59,0.75,0.89c0.12,0.15,0.24,0.3,0.37,0.45c0.39,0.49-0.13-0.18,0.1,0.13c0.91,1.22,1.77,2.47,2.56,3.77
			c0.78,1.28,1.5,2.59,2.16,3.92c0.34,0.67,0.66,1.36,0.97,2.04c0.15,0.32,0.29,0.65,0.43,0.97c0.26,0.6,0.07,0.16,0.02,0.04
			c0.1,0.23,0.19,0.47,0.29,0.7c1.18,2.92,2.16,5.92,2.99,8.96c0.8,2.94,1.46,5.93,2,8.93c0.26,1.47,0.5,2.95,0.71,4.43
			c0.04,0.26,0.14,1.05,0.05,0.37c0.05,0.37,0.1,0.74,0.14,1.11c0.09,0.72,0.17,1.45,0.25,2.17c0.51,4.66,0.79,9.35,0.85,14.05
			c0.03,2.22,0.04,4.45-0.09,6.67c-0.11,1.96,1.64,3.15,3.36,3.36c6.1,0.73,11.65-3.89,16.3-7.23c4.58-3.29,9.02-6.8,13.26-10.53
			c8.17-7.17,15.62-15.14,22.28-23.72c13.54-17.47,23.85-37.4,29.93-58.67c6.52-22.78,7.95-46.81,4.73-70.26
			c-3.25-23.72-11.42-46.84-24.08-67.18c-6.67-10.72-14.63-20.51-24.69-28.22c-10.01-7.67-21.59-13.3-33.49-17.37
			c-12.25-4.2-25.19-6.62-38.14-7.09c-12.11-0.44-24.05,1.65-34.35,8.31c-8.88,5.74-16.05,13.9-21.28,23.04
			c-6.01,10.5-9.24,22.21-10.83,34.15c-1.73,12.99-1.49,26.13-0.89,39.19c0.61,13.35,1.44,26.75,3.92,39.91
			c4.32,22.83,14.8,45.82,34.76,58.99c10.33,6.82,22.5,10.36,34.73,11.61c6.39,0.65,13.09,0.86,19.32-0.94
			c5.59-1.61,10.5-4.84,14.79-8.7c4.04-3.64,7.49-7.86,10.9-12.08c1.2-1.49,1.3-3.26,0-4.75c-12.67-14.54-22.87-31.51-28.43-50.05
			c-2.63-8.76-4.1-17.77-4.96-26.74c-0.87-9.03-1.08-18.17-0.19-27.21c0.81-8.28,2.72-16.95,6.3-24.43
			c3.71-7.77,9.43-15.25,16.6-20.12c0.94-0.64,1.91-1.24,2.9-1.79c0.46-0.26,0.94-0.5,1.41-0.74c0.27-0.14,0.55-0.27,0.82-0.4
			c0.7-0.32-0.67,0.21,0.29-0.12c1.86-0.64,2.71-0.74,4.58-0.77c4.08-0.08,7.88,0.78,11.87,2.05c3.66,1.17,6.93,2.51,10.24,4.6
			c0.37,0.23,0.72,0.47,1.07,0.72c0.23,0.16,0.44,0.33,0.67,0.49c-0.61-0.45-0.06-0.04,0.21,0.17c1.05,0.84,2.06,1.73,3.06,2.64
			c5.11,4.67,9.8,9.82,14.2,15.16c3.77,4.58,7.47,9.58,10.31,15.25c0.27,0.54-0.24-0.68,0.04,0.09c0.08,0.22,0.17,0.44,0.24,0.66
			c0.15,0.45,0.28,0.91,0.38,1.37c0.37,1.78,2.46,2.81,4.13,2.35C387.38,128.96,388.26,127.11,387.88,125.33L387.88,125.33z"/>
	</g>
</g>
<g>
	<g>
		<path d="M331.44,238.54c11.97-9.61,20.67-22.74,26.37-36.9c5.7-14.16,8.32-29.79,7.32-45.04c-0.5-7.59-1.85-15.16-4.29-22.37
			c-2.86-8.45-7.03-17.2-14.07-22.97c-3.62-2.96-7.88-5.3-12.52-6.15c-4.76-0.87-9.4-0.31-13.81,1.66
			c-8.4,3.75-13.89,12.1-15.91,20.85c-3.58,15.56,0.56,35.97,14.8,45.1c1.68,1.08,3.51,1.9,5.38,2.59c-0.27-2.05-0.53-4.09-0.8-6.14
			c-7.83,4.19-16.62,5.77-25.41,4.85c-1.81-0.19-3.36,1.68-3.36,3.36c0,1.97,1.55,3.17,3.36,3.36c9.92,1.04,20.02-1.07,28.8-5.77
			c2.74-1.46,1.75-5.21-0.8-6.14c-0.99-0.36-0.87-0.3-1.87-0.82c-0.8-0.41-1.58-0.87-2.32-1.37c-0.33-0.22-0.65-0.44-0.96-0.68
			c0.41,0.31-0.4-0.33-0.5-0.42c-0.68-0.58-1.34-1.2-1.96-1.85c-1.34-1.4-1.89-2.12-2.93-3.74c-0.94-1.46-1.77-3-2.48-4.58
			c-0.1-0.21-0.19-0.43-0.28-0.64c0.03,0.07,0.14,0.35,0-0.01c-0.15-0.38-0.3-0.77-0.45-1.15c-0.33-0.89-0.62-1.78-0.89-2.69
			c-0.52-1.76-0.93-3.55-1.23-5.36c-0.19-1.11-0.18-1.06-0.28-2.07c-0.09-0.91-0.16-1.83-0.2-2.74c-0.1-2.26-0.07-4.54,0.14-6.79
			c0.36-3.94,1.41-8.08,3.31-11.64c1.73-3.24,4.17-6.07,7.12-8c3.08-2.02,6.22-3.02,9.81-2.88c3.76,0.14,7.48,1.73,10.7,4.02
			c6.34,4.51,10.2,12.29,12.76,19.49c1.16,3.26,2.09,6.59,2.82,9.97c0.36,1.68,0.67,3.37,0.92,5.06c0.02,0.14,0.19,1.33,0.12,0.81
			c0.05,0.4,0.1,0.8,0.15,1.2c0.11,0.92,0.2,1.84,0.28,2.75c0.61,7.03,0.42,14.15-0.52,21.15c0.06-0.46-0.11,0.72-0.13,0.86
			c-0.06,0.41-0.12,0.82-0.19,1.22c-0.15,0.93-0.31,1.86-0.49,2.79c-0.33,1.74-0.71,3.47-1.13,5.19c-0.85,3.49-1.89,6.94-3.1,10.33
			c-1.26,3.53-2.32,6.05-3.97,9.41c-1.56,3.18-3.29,6.28-5.2,9.27c-3.73,5.83-7.75,10.75-13.01,15.59c-1.24,1.14-2.53,2.24-3.84,3.3
			c-1.42,1.14-1.18,3.57,0,4.75C328.09,239.94,330.02,239.68,331.44,238.54L331.44,238.54z"/>
	</g>
</g>
<g>
	<path class="st3" d="M298.47,177.38c9.29,1.02,18.88-0.86,27.11-5.31c-11.99-4.27-18.07-18-18.79-30.71
		c-0.41-7.27,0.56-14.8,4.09-21.17c3.53-6.37,9.91-11.41,17.16-12.09c6.56-0.62,13.11,2.37,17.88,6.9
		c4.78,4.54,7.97,10.5,10.39,16.63c13.64,34.58,1.79,81.32-27.25,104.53c0,0-23.63-27.83-28.74-49.96
		C295.22,164.08,298.47,177.38,298.47,177.38z"/>
</g>
<g>
	<g>
		<path d="M280.2,256.65c-0.38,0-0.78,0.08-1.14,0.14c-0.09,0.02-0.18,0.04-0.27,0.07c-0.42,0.14-0.87,0.3-1.24,0.56
			c-0.37,0.25-0.75,0.52-1.06,0.85c-0.24,0.26-0.45,0.56-0.66,0.85c-0.06,0.08-0.11,0.16-0.16,0.24c-0.05,0.08-0.09,0.17-0.13,0.26
			c-0.14,0.33-0.3,0.66-0.41,1c-0.03,0.09-0.05,0.18-0.07,0.28c-0.06,0.36-0.12,0.74-0.15,1.1c-0.03,0.46,0.06,0.95,0.15,1.38
			c0.09,0.46,0.3,0.9,0.53,1.3c0.21,0.39,0.5,0.71,0.87,0.94c0.32,0.3,0.71,0.5,1.14,0.6c0.45,0.14,0.89,0.16,1.34,0.06
			c0.45-0.02,0.86-0.15,1.25-0.4c0.23-0.18,0.45-0.35,0.68-0.53c0.42-0.42,0.7-0.91,0.86-1.48c0.04-0.3,0.08-0.6,0.12-0.89
			c0-0.61-0.15-1.17-0.46-1.7c-0.04-0.06-0.07-0.13-0.1-0.19c0.11,0.27,0.23,0.53,0.34,0.8c-0.05-0.13-0.09-0.27-0.11-0.41
			c0.04,0.3,0.08,0.6,0.12,0.89c-0.02-0.18-0.02-0.35,0-0.53c-0.04,0.3-0.08,0.6-0.12,0.89c0.03-0.19,0.08-0.37,0.15-0.55
			c-0.11,0.27-0.23,0.53-0.34,0.8c0.08-0.19,0.18-0.36,0.31-0.53c-0.18,0.23-0.35,0.45-0.53,0.68c0.11-0.14,0.24-0.27,0.38-0.38
			c-0.23,0.18-0.45,0.35-0.68,0.53c0.13-0.1,0.27-0.18,0.42-0.25c-0.27,0.11-0.53,0.23-0.8,0.34c0.14-0.06,0.29-0.1,0.44-0.12
			c-0.3,0.04-0.6,0.08-0.89,0.12c0.07-0.01,0.14-0.01,0.22-0.01c0.46,0.02,0.89-0.08,1.29-0.29c0.42-0.14,0.78-0.37,1.08-0.69
			c0.33-0.3,0.56-0.66,0.69-1.08c0.21-0.4,0.31-0.83,0.29-1.29c-0.04-0.3-0.08-0.6-0.12-0.89c-0.16-0.57-0.45-1.06-0.86-1.48
			c-0.23-0.18-0.45-0.35-0.68-0.53C281.37,256.81,280.8,256.65,280.2,256.65L280.2,256.65z"/>
	</g>
</g>
<path class="st0" d="M289.16,259.72"/>
</svg>
