<?xml version="1.0" encoding="utf-8"?>
<!-- Generator: Adobe Illustrator 24.1.0, SVG Export Plug-In . SVG Version: 6.00 Build 0)  -->
<svg version="1.1" id="Ebene_1" xmlns="http://www.w3.org/2000/svg" xmlns:xlink="http://www.w3.org/1999/xlink" x="0px" y="0px"
	 viewBox="0 0 450 450" style="enable-background:new 0 0 450 450;" xml:space="preserve">
<style type="text/css">
	.st0{fill:#4B7BB2;}
	.st1{fill:#D6E5E5;}
</style>
<g>
	<path class="st0" d="M71.45,169.79c-4.63,12.4-10.21,24.52-12.72,37.52c-10.48,54.18,8.27,98.26,47.75,136.81
		c22.35,21.82,49.67,36.46,79.53,45.61c29.87,9.16,71.19,9.02,99.76-3.61c39.77-17.58,65.75-41.21,86.48-79.44
		c11.4-21.03,18.35-35.89,24.29-59.06s3.87-55.02-3.51-77.78c-13.68-42.21-46.49-69.91-85.18-91.64
		C273.29,58.8,225.17,50.77,186.6,59.9C186.6,59.9,109.41,68.09,71.45,169.79z"/>
	<g>
		<path d="M68.46,168.97c-4.12,10.99-8.97,21.78-11.78,33.21c-2.46,10.01-3.65,20.5-3.89,30.8c-0.43,18.51,2.89,37.04,9.93,54.17
			c7.32,17.81,18.17,33.84,30.99,48.14c14.03,15.66,30.27,29.05,48.64,39.33c9.19,5.15,18.81,9.53,28.66,13.25
			c9.33,3.53,18.86,6.53,28.67,8.39c20.16,3.82,41.18,4.07,61.38,0.42c18.97-3.43,36.67-11.7,52.94-21.89
			c15.05-9.42,28.58-21.12,39.84-34.86c12.56-15.32,22.29-32.74,30.82-50.56c8.75-18.27,15.84-38.06,17.78-58.33
			c0.99-10.36,0.83-20.83-0.23-31.18c-1.03-10.03-2.81-20.04-5.82-29.68c-5.66-18.15-15.35-34.74-27.84-49.02
			c-12.45-14.23-27.48-26.04-43.36-36.21c-8.15-5.22-16.53-10.21-25.29-14.34c-9.22-4.35-18.83-7.88-28.66-10.6
			c-19.97-5.53-41.03-8.03-61.73-6.62c-5.05,0.34-10.09,0.93-15.08,1.76c-2.4,0.4-4.78,0.86-7.15,1.39c-0.28,0.06-1.4,0.39-0.7,0.24
			c-0.03,0.01-0.06,0-0.08,0.01c-1.24,0.25-2.52,0.35-3.76,0.58c-5.61,1.06-11.12,2.71-16.47,4.69
			c-9.26,3.42-18.15,7.85-26.48,13.15c-11.11,7.06-21.29,15.62-30.28,25.24c-11.54,12.35-21.2,26.43-29.03,41.4
			C75.89,150.63,71.93,159.71,68.46,168.97c-0.59,1.57,0.65,3.4,2.16,3.81c1.74,0.48,3.22-0.59,3.81-2.16
			c6.47-17.27,14.88-33.86,25.62-48.88c8.32-11.65,18.14-22.26,29.23-31.33c4.35-3.56,9.13-7,14.14-10.15
			c4.35-2.74,8.86-5.25,13.49-7.5c1.06-0.51,2.12-1.01,3.2-1.5c0.48-0.22,0.96-0.43,1.44-0.64c0.22-0.1,0.44-0.19,0.66-0.29
			c0.12-0.05,0.97-0.41,0.61-0.26c-0.39,0.16,0.4-0.17,0.49-0.2c0.21-0.09,0.42-0.17,0.64-0.26c0.49-0.2,0.97-0.39,1.46-0.58
			c0.93-0.37,1.87-0.72,2.81-1.07c3.13-1.14,6.3-2.17,9.51-3.03c2.17-0.59,4.37-1.11,6.58-1.53c0.66-0.13,1.33-0.24,1.99-0.34
			c0.21-0.03,0.42-0.05,0.63-0.09c-0.18,0.04-1.05,0.14-0.41,0.06c2.78-0.35,5.53-1.15,8.3-1.64c4.7-0.83,9.43-1.39,14.19-1.72
			c10.02-0.71,20.11-0.48,30.1,0.55c19.75,2.04,39.47,7.23,57.46,15.67c8.62,4.04,16.85,8.93,24.88,14.04
			c7.77,4.94,15.31,10.25,22.43,16.1c13.92,11.44,26.29,24.83,35.37,40.45c9.57,16.46,14.93,34.79,16.83,53.69
			c1.02,10.16,1.19,20.45,0.23,30.63c-0.93,9.93-3.42,19.55-6.44,29.03c-6,18.89-15.01,36.96-25.18,53.93
			c-9.05,15.09-20.04,28.93-33.3,40.54c-13.45,11.78-28.96,20.94-45.21,28.29c-17.59,7.95-37.2,10.69-56.38,10.47
			c-9.79-0.11-19.59-1.02-29.21-2.9c-9.63-1.88-19-4.87-28.17-8.35c-18.98-7.2-37.08-17.18-52.79-30.09
			c-15.03-12.35-28.47-27.22-38.97-43.61c-9.65-15.06-16.59-31.71-19.74-49.36c-3.29-18.45-2.6-38.3,2.16-56.44
			c2.85-10.88,7.45-21.18,11.39-31.69c0.59-1.57-0.65-3.4-2.16-3.81C70.54,166.33,69.05,167.39,68.46,168.97z"/>
	</g>
</g>
<g>
	<path class="st1" d="M202.93,389.14c-1.3-33.6-2.59-67.19-3.89-100.79c-0.14-3.58-0.49-7.62-3.26-9.9
		c-1.31-1.08-2.98-1.59-4.62-2.01c-6.01-1.55-12.23-2.27-18.44-2.14c-2.82,0.06-6.02,0.16-7.98-1.87c-1.6-1.66-1.79-4.19-1.89-6.49
		c-0.53-12.33-1.05-24.66-1.58-36.98c11.47,0.16,22.94,0.32,34.41,0.47c0.9,0.01,1.87,0,2.59-0.53c0.88-0.65,1.11-1.84,1.26-2.92
		c3.29-23.9-0.57-50.28,12.76-70.39c8.04-12.12,21.46-19.98,35.56-23.54c14.1-3.56,28.92-3.16,43.37-1.45
		c1.3,0.15,2.72,0.38,3.56,1.37c0.77,0.9,0.85,2.18,0.89,3.36c0.46,11.98,0.91,23.96,1.37,35.94c-11.54-0.84-23.3,1.83-33.34,7.57
		c-3.79,2.16-7.43,4.86-9.64,8.62c-1.86,3.17-2.57,6.86-3.04,10.5c-1.13,8.68-1.1,17.51,0.09,26.18c14.8-0.26,29.6-0.52,44.4-0.77
		c1.09,16.66,1.17,33.38,0.24,50.05c-14.74-0.79-29.5-1.07-44.25-0.82c2.6,38.97,3.3,78.07,2.08,117.11"/>
	<g>
		<path d="M206.03,389.14c-1-26.01-2.01-52.03-3.01-78.04c-0.25-6.37-0.49-12.75-0.74-19.12c-0.2-5.17,0.13-11.62-4.03-15.47
			c-2.25-2.08-5.26-2.85-8.17-3.51c-3.06-0.69-6.16-1.17-9.28-1.48c-3.02-0.29-6.02-0.33-9.05-0.29c-1.05,0.01-2.19,0.03-3.08-0.17
			c-0.9-0.2-1.48-0.4-1.94-1.08c-0.58-0.85-0.67-2.16-0.74-3.25c-0.1-1.63-0.14-3.26-0.21-4.88c-0.15-3.6-0.31-7.19-0.46-10.79
			c-0.31-7.36-0.63-14.73-0.94-22.09c-1.03,1.03-2.07,2.07-3.1,3.1c8.99,0.12,17.98,0.25,26.96,0.37c2.23,0.03,4.45,0.06,6.68,0.09
			c2.15,0.03,4.38-0.09,5.93-1.79c1.47-1.61,1.65-3.72,1.92-5.78c0.23-1.82,0.43-3.64,0.59-5.47c1.32-14.56,0.68-29.42,3.96-43.74
			c1.58-6.92,4.15-13.55,8.21-19.41c3.87-5.57,9.1-10.15,14.85-13.68c13.31-8.16,29.03-10.54,44.42-10.17
			c4.26,0.1,8.51,0.4,12.75,0.83c1.06,0.11,2.12,0.22,3.17,0.34c0.41,0.05,1.3,0.12,1.73,0.36c-0.11-0.06-0.07-0.11-0.12-0.18
			c0.05,0.07,0.18,0.64,0.19,0.71c0.13,1.02,0.09,2.08,0.13,3.11c0.34,8.99,0.68,17.97,1.02,26.96c0.08,2.22,0.17,4.45,0.25,6.67
			c1.03-1.03,2.07-2.07,3.1-3.1c-11.49-0.79-23.14,1.73-33.31,7.11c-4.8,2.54-9.55,5.83-12.35,10.61
			c-3.06,5.22-3.59,11.68-4.03,17.59c-0.53,7.18-0.2,14.35,0.77,21.48c0.18,1.3,1.76,2.3,2.99,2.27c14.8-0.26,29.6-0.52,44.4-0.77
			c-1.03-1.03-2.07-2.07-3.1-3.1c1.08,16.66,1.16,33.38,0.24,50.05c1.03-1.03,2.07-2.07,3.1-3.1c-14.74-0.79-29.5-1.06-44.25-0.82
			c-1.59,0.03-3.21,1.4-3.1,3.1c2.02,30.39,2.9,60.85,2.6,91.31c-0.08,8.6-0.26,17.2-0.53,25.8c-0.12,3.99,6.07,3.98,6.2,0
			c0.95-30.44,0.74-60.92-0.63-91.34c-0.39-8.59-0.87-17.18-1.44-25.77c-1.03,1.03-2.07,2.07-3.1,3.1
			c14.76-0.24,29.52,0.03,44.25,0.82c1.74,0.09,3.01-1.5,3.1-3.1c0.93-16.67,0.85-33.39-0.24-50.05c-0.11-1.65-1.33-3.13-3.1-3.1
			c-14.8,0.26-29.6,0.52-44.4,0.77c1,0.76,1.99,1.52,2.99,2.27c-0.76-5.64-0.97-11.38-0.71-17.06c0.23-5.11,0.47-10.84,2.51-15.61
			c1.85-4.33,5.79-7.13,9.76-9.36c4.42-2.48,9.16-4.31,14.09-5.5c5.67-1.38,11.48-1.82,17.3-1.42c1.63,0.11,3.16-1.51,3.1-3.1
			c-0.35-9.16-0.7-18.31-1.04-27.47c-0.09-2.31-0.18-4.62-0.26-6.93c-0.08-2.07-0.02-4.31-1.14-6.15c-1.11-1.81-3.08-2.74-5.11-3.04
			c-2.23-0.33-4.49-0.54-6.73-0.75c-16.83-1.55-34.21-0.79-49.94,5.92c-6.75,2.87-13.05,6.83-18.41,11.84
			c-5.53,5.18-9.76,11.48-12.68,18.46c-5.88,14.03-6.13,29.62-6.88,44.58c-0.19,3.77-0.4,7.55-0.74,11.31
			c-0.17,1.9-0.36,3.8-0.6,5.69c-0.04,0.28-0.43,1.8-0.35,1.88c-0.02-0.02,0.09-0.14,0.11-0.13c0.07-0.04,0.14-0.07,0.21-0.11
			c0.28-0.12,0.28-0.15,0.03-0.06c-0.12-0.05-0.63,0.03-0.91,0.03c-9.16-0.03-18.32-0.25-27.48-0.38c-2.31-0.03-4.62-0.06-6.93-0.1
			c-1.62-0.02-3.17,1.44-3.1,3.1c0.28,6.51,0.56,13.01,0.84,19.52c0.27,6.26,0.33,12.58,0.83,18.83c0.22,2.78,0.87,5.61,3,7.58
			c2.15,1.99,5.11,2.5,7.94,2.54c2.95,0.04,5.87-0.06,8.82,0.17c2.98,0.24,5.94,0.7,8.86,1.37c2.01,0.46,4.88,0.95,6,2.52
			c1.15,1.61,1.34,3.75,1.46,5.74c0.37,6.4,0.5,12.81,0.75,19.21c0.5,12.92,1,25.84,1.5,38.76c0.57,14.64,1.13,29.29,1.7,43.93
			c0.06,1.67,1.38,3.1,3.1,3.1C204.56,392.24,206.09,390.82,206.03,389.14L206.03,389.14z"/>
	</g>
</g>
</svg>
