<?xml version="1.0" encoding="utf-8"?>
<!-- Generator: Adobe Illustrator 24.1.0, SVG Export Plug-In . SVG Version: 6.00 Build 0)  -->
<svg version="1.1" id="Ebene_1" xmlns="http://www.w3.org/2000/svg" xmlns:xlink="http://www.w3.org/1999/xlink" x="0px" y="0px"
	 viewBox="0 0 450 450" style="enable-background:new 0 0 450 450;" xml:space="preserve">
<style type="text/css">
	.st0{fill:#C7EDE6;}
	.st1{fill:#FDFCEF;}
	.st2{fill:#FFFEF4;stroke:#000000;stroke-width:3.5163;stroke-miterlimit:10;}
	.st3{fill:#BEBACB;}
	.st4{fill:#FFFEF4;}
	.st5{fill:#E8BC54;stroke:#000000;stroke-width:3.4937;stroke-miterlimit:10;}
	.st6{fill:#E8BC54;}
</style>
<g>
	<path class="st0" d="M357.38,153.29c1.54-34.36-7.06-71.77-33.6-93.66c-17.81-14.68-41.96-20.54-64.94-18.37
		S214.03,53.13,195.2,66.5c-13.27,9.42-25.63,21.25-31.31,36.51c-17.6-10.3-40.37-6.54-58.55,2.69
		c-31.12,15.8-53.85,47.1-59.26,81.58c-16.76,7.21-28.02,23.88-32.87,41.47c-3.6,13.03-4.03,27.47,1.89,39.63
		c7.57,15.57,23.83,24.63,39.13,32.74c-4.34,19.99,1.52,41.22,12.41,58.54c16.82,26.73,45.91,45.39,77.22,49.54
		s64.25-6.28,87.47-27.7c3.4-3.13,7.08-6.7,11.69-6.78c2.96-0.05,5.72,1.38,8.33,2.74c14.12,7.33,29.04,13.76,44.87,15.25
		c15.83,1.49,32.8-2.57,44.06-13.79c5.71-5.69,9.97-13.15,17.12-16.86c5.92-3.08,12.9-3.08,19.49-4.2
		c22.92-3.92,42.25-23.68,45.63-46.69c3.38-23.01-9.42-47.51-30.25-57.86c11.68-19.11,18.25-42.8,11.33-64.09
		c-6.93-21.29-30.53-37.71-51.96-31.23"/>
	<g>
		<path d="M360.01,153.29c1.54-35.87-7.71-75.98-38.04-98.37c-15.92-11.76-36.15-17.09-55.79-16.7
			c-20.86,0.42-41.19,7.29-59.17,17.61c-18.83,10.8-37.69,25.57-45.63,46.46c1.29-0.52,2.57-1.05,3.85-1.57
			c-20.78-11.95-46.68-5.91-66.31,5.46c-18.55,10.75-33.86,27.01-43.82,45.96c-5.65,10.76-9.62,22.39-11.54,34.4
			c0.4-0.52,0.8-1.05,1.2-1.57c-17.55,7.7-29.1,25.02-34.08,43.04c-2.9,10.52-3.82,21.88-1.17,32.55
			c2.4,9.66,8.02,18.02,15.36,24.65c8.31,7.51,18.21,12.93,28.04,18.14c-0.4-0.98-0.8-1.98-1.2-2.96
			c-8.09,38.33,16.96,76.43,48.66,95.9c15.28,9.38,32.79,15.09,50.7,16.2c18.85,1.16,37.92-2.77,54.96-10.85
			c8.53-4.05,16.49-9.19,23.7-15.27c3.32-2.81,6.42-6.64,10.48-8.4c4.76-2.07,9.73,1.72,13.84,3.78c18,8.99,37.83,16.07,58.23,13.16
			c8.97-1.28,17.81-4.51,25.08-9.99c3.69-2.78,6.76-6.1,9.73-9.65c2.87-3.43,5.76-7.14,9.52-9.66c4.15-2.78,9.04-3.64,13.91-4.25
			c4.7-0.59,9.34-1.17,13.87-2.6c8-2.53,15.36-6.84,21.61-12.42c12.41-11.07,20.14-27.25,19.72-43.99
			c-0.43-16.95-8.58-33.72-21.67-44.5c-3.22-2.64-6.68-4.94-10.39-6.82c0.32,1.2,0.63,2.39,0.94,3.59
			c10.35-17.05,16.85-37.39,13.67-57.44c-2.73-17.19-14.03-32.59-30.11-39.58c-8.59-3.74-18.11-4.8-27.16-2.14
			c-3.23,0.94-1.85,6,1.39,5.05c14.88-4.35,30.23,2.85,40,14.1c11.54,13.29,13.47,31.78,9.69,48.47
			c-2.32,10.26-6.57,19.94-12.01,28.91c-0.7,1.16-0.31,2.95,0.94,3.59c14.64,7.38,25.02,21.58,28.39,37.55
			c3.33,15.74-1.29,32.04-11.79,44.14c-5.2,5.99-11.56,10.85-18.75,14.19c-3.64,1.7-7.52,2.91-11.46,3.68
			c-4.62,0.89-9.34,1.08-13.94,2.09c-4.68,1.02-8.86,3.05-12.5,6.18c-3.32,2.85-5.99,6.33-8.81,9.64
			c-5.78,6.8-12.76,11.78-21.3,14.55c-18.5,5.99-38.05,1.4-55.33-6.22c-4.76-2.09-9.36-4.48-14.02-6.82
			c-4.05-2.03-8.31-3.32-12.73-1.62c-4.25,1.63-7.4,5.05-10.73,8.02c-3.28,2.91-6.74,5.59-10.36,8.04
			c-29.82,20.14-68.91,24.26-101.9,9.52c-32.14-14.39-59.91-46.38-60.34-82.95c-0.05-4.63,0.38-9.23,1.34-13.76
			c0.23-1.11-0.14-2.4-1.2-2.96c-17.24-9.14-36.4-19.85-41.19-40.33c-2.46-10.56-1.05-21.79,2.2-32.01
			c2.88-9.05,7.51-17.7,13.91-24.75c3.23-3.55,6.88-6.69,10.99-9.19c1.86-1.14,4.12-1.85,5.9-3.05c1.89-1.28,1.76-4.89,2.2-6.98
			c1.98-9.36,5.21-18.42,9.59-26.92c8.76-17,21.85-31.78,37.93-42.19c18.72-12.11,44.7-20.1,65.44-8.18c1.58,0.91,3.25,0,3.85-1.57
			c6.69-17.6,22.27-30.3,37.76-40.05c16.86-10.61,36.02-18.27,56-19.87c18.75-1.52,38.15,2.3,54.21,12.32
			c14.72,9.19,25.4,23.49,31.74,39.5c7.22,18.27,9.47,38.16,8.64,57.69C354.63,156.66,359.86,156.65,360.01,153.29L360.01,153.29z"
			/>
	</g>
</g>
<g>
	<path class="st1" d="M275.55,239.41c-6.14-17.1-1.01-37.68,12.45-49.89c5.42-4.93,12.36-8.62,19.68-8.65
		c7.33-0.04,14.92,4.24,17.31,11.17c0.8-4.15,2.57-8.08,4.85-11.64c4.94-7.7,12.6-13.86,21.51-15.93
		c8.91-2.08,18.98,0.32,25.27,6.97c6.29,6.65,8.02,17.53,3.22,25.31c5.14-4.43,12.96-5.5,19.1-2.6c6.15,2.88,10.31,9.57,10.19,16.36
		c10.66-3.92,23.88,1.65,28.53,12c4.65,10.35,0.01,23.93-9.99,29.28c-5.99,3.2-13.04,3.56-19.84,3.78
		c-33.31,1.1-66.65,0.75-99.98-0.09c-6.7-0.17-13.58-0.4-19.76-2.99c-6.18-2.59-11.6-8.12-12.06-14.81"/>
	<g>
		<path d="M278.08,238.71c-3.89-11.04-3.11-23.47,1.94-34.02c5.07-10.56,15.55-21.44,28.11-21.2c5.9,0.11,12.24,3.48,14.33,9.24
			c0.8,2.22,4.49,2.74,5.05,0c2.34-11.46,11.56-21.98,22.86-25.3c10.47-3.08,23.23,0.73,27.9,11.19c2.39,5.35,2.32,11.73-0.71,16.8
			c-1.61,2.69,1.93,5,4.11,3.18c4.39-3.68,11.19-4.61,16.34-1.99c5.18,2.63,8.49,8.09,8.46,13.9c-0.01,1.61,1.7,3.1,3.32,2.53
			c10.52-3.74,23.54,2.3,26.42,13.36c1.35,5.21,0.38,10.91-2.27,15.56c-3.1,5.44-8.16,8.56-14.21,9.88
			c-3.56,0.78-7.21,0.96-10.85,1.08c-4.19,0.15-8.37,0.26-12.56,0.36c-8.49,0.2-16.98,0.31-25.48,0.34
			c-17.09,0.08-34.18-0.13-51.27-0.49c-4.7-0.1-9.39-0.19-14.08-0.33c-4.26-0.14-8.55-0.38-12.7-1.47
			c-6.47-1.7-13.57-6.34-14.21-13.64c-0.29-3.33-5.53-3.37-5.25,0c0.64,7.3,5.64,13.29,12.07,16.48c7.7,3.82,16.53,3.79,24.92,4
			c18.67,0.46,37.36,0.75,56.05,0.71c9.34-0.01,18.69-0.11,28.02-0.32c8.56-0.19,17.47,0.13,25.91-1.52
			c7.07-1.38,13.21-4.98,17.24-11c3.61-5.4,5.11-12.14,4.17-18.56c-2.16-15.01-19.29-24.51-33.35-19.5
			c1.11,0.84,2.21,1.68,3.32,2.53c0.04-7.68-4.47-15.3-11.47-18.62c-7.35-3.48-16.08-2.16-22.27,3.01c1.37,1.06,2.74,2.12,4.11,3.18
			c7.02-11.73,1.51-27.28-10.24-33.48c-12.43-6.57-27.19-3.11-37.25,6.09c-5.92,5.41-10.53,12.78-12.14,20.68c1.68,0,3.37,0,5.05,0
			c-2.34-6.43-8.04-10.98-14.67-12.5c-7.25-1.66-14.79,0.47-20.96,4.4c-11.73,7.49-19.18,20.58-21.05,34.22
			c-1.03,7.59-0.38,15.39,2.17,22.64C274.14,243.27,279.2,241.9,278.08,238.71L278.08,238.71z"/>
	</g>
</g>
<g>
	<path class="st1" d="M81.47,344.83c3.08-8.9,6.33-18.07,12.75-24.95c6.42-6.88,16.96-10.86,25.5-6.91
		c8.04,3.73,11.79,12.85,14.84,21.18c6.62-3.84,16.44,0.61,17.9,8.13c0.19,0.98,0.28,2.04,0.86,2.87c0.98,1.4,2.92,1.6,4.61,1.86
		c6.65,1.1,12.62,5.68,15.38,11.83c2.76,6.15,2.23,13.66-1.37,19.36c-7.36,11.68-23.6,12.92-37.4,12.9
		c-17.38-0.03-34.77-0.04-52.15-0.06c-11.69-0.01-24.05-0.2-34.02-6.32c-3.29-2.02-6.32-4.77-7.75-8.37
		c-1.6-3.98-1.05-8.56,0.56-12.55c3.96-9.82,16.02-16.56,25.66-12.19c1.67-5.46,8.99-8.28,13.9-5.37"/>
	<g>
		<path d="M84,345.52c3.41-9.85,7.19-21.25,16.24-27.4c3.89-2.64,8.5-4.35,13.26-4.07c4.66,0.27,8.62,2.9,11.45,6.47
			c3.32,4.19,5.27,9.36,7.08,14.32c0.59,1.6,2.27,2.44,3.85,1.57c4.81-2.67,11.86,0.06,13.71,5.26c0.65,1.84,0.56,3.75,1.88,5.34
			c1.37,1.63,3.33,2.13,5.34,2.48c3.6,0.6,6.94,2,9.69,4.47c5.76,5.2,7.61,13.61,4.4,20.73c-2.86,6.34-9.02,9.96-15.5,11.73
			c-6.98,1.91-14.3,2.09-21.48,2.09c-10.17-0.01-20.36-0.03-30.53-0.04c-9.71-0.01-19.45,0.19-29.15-0.14
			c-8.44-0.29-17.21-1.35-24.53-5.86c-3.79-2.34-7.1-5.76-7.38-10.43c-0.26-4.25,1.38-8.6,4.05-11.88
			c4.38-5.39,12.34-9.24,19.16-6.25c1.6,0.7,3.27,0.18,3.85-1.57c1.3-3.91,6.51-5.79,10.05-3.8c2.95,1.65,5.59-2.87,2.64-4.53
			c-6.6-3.7-15.37-0.18-17.74,6.93c1.29-0.52,2.57-1.05,3.85-1.57c-7.66-3.34-15.96-1.26-22.29,3.88
			c-6.87,5.58-11.19,15.9-7.52,24.44c3.77,8.76,14.27,12.96,23.01,14.59c10.13,1.89,20.61,1.4,30.88,1.42
			c11.35,0.01,22.68,0.03,34.03,0.04c8.95,0.01,17.98,0.29,26.82-1.42c7.77-1.49,15.29-4.85,20.13-11.35
			c5.46-7.34,5.96-17.93,1.14-25.72c-2.28-3.69-5.64-6.79-9.55-8.71c-1.89-0.93-3.88-1.65-5.96-2.02c-0.91-0.17-1.94-0.2-2.8-0.55
			c-0.87-0.34-0.82-1.03-0.97-1.89c-1.39-7.39-8.93-12.64-16.36-11.9c-1.95,0.19-3.75,0.74-5.48,1.7c1.29,0.52,2.57,1.05,3.85,1.57
			c-3.65-9.97-8.77-21.88-20.41-24.23c-12.02-2.43-23.1,5.45-29.2,15.21c-3.8,6.09-6.19,12.96-8.54,19.7
			C77.85,347.32,82.9,348.7,84,345.52L84,345.52z"/>
	</g>
</g>
<path class="st2" d="M293.65,208.47c4.34,2.02,9.36,9.1,9.36,9.1v125.94H128.57l-5.2-127.87l8.77-7.2l81.05,30.19L293.65,208.47z"/>
<path class="st3" d="M130.13,341.79c0,0,0-18.19,12.07-20.78c6.64-1.43,26.01-8.67,58.24,7.91c0,0,8.77,1.85,13.94-3.4
	c0,0,0.17,5.88,2.85,5.46c2.69-0.42,14.53-3.34,18.55-4.03s42.84-4.53,50.39-2.23c0.84,0.26,13.39,11.02,14.6,17.07H130.13z"/>
<g>
	<path class="st4" d="M215.79,214.6c23.91-11.53,51.09-19.55,76.9-13.34c-0.42,41.19-1.95,82.37-4.61,123.47
		c-23.05-2.08-46.49,0.01-68.81,6.14c-2.58,0.7-4.91-1.53-4.48-4.17c0.31-1.88,0.34-3.87,0.31-5.72
		c-0.65-35.17-1.3-70.34-1.95-105.51L215.79,214.6z"/>
	<g>
		<path d="M216.46,215.72c18.29-8.78,38.31-15.62,58.82-15.3c5.76,0.09,11.47,0.78,17.08,2.11c-0.32-0.42-0.64-0.84-0.96-1.26
			c-0.33,32.1-1.33,64.2-3.01,96.27c-0.47,9.08-1.01,18.14-1.6,27.2c0.43-0.43,0.87-0.87,1.31-1.31
			c-11.93-1.06-23.96-1.03-35.89,0.1c-5.87,0.56-11.73,1.38-17.54,2.46c-2.9,0.54-5.78,1.15-8.64,1.81
			c-1.38,0.32-2.77,0.66-4.14,1.02c-1.24,0.32-3.01,1.21-4.29,0.74c-2.49-0.91-1.2-4.67-1.16-6.6c0.06-2.99-0.08-5.99-0.13-8.99
			c-0.11-6.25-0.23-12.5-0.34-18.75c-0.23-12.5-0.46-25-0.69-37.5c-0.26-14.09-0.52-28.18-0.78-42.27
			c-0.32,0.42-0.64,0.84-0.96,1.26c0.88-0.29,1.75-0.57,2.63-0.87c1.6-0.52,0.91-3.06-0.7-2.53c-0.88,0.29-1.75,0.57-2.63,0.87
			c-0.54,0.18-0.97,0.66-0.96,1.26c0.49,25.95,0.96,51.91,1.44,77.86c0.11,6.46,0.24,12.93,0.36,19.39
			c0.06,3.23,0.18,6.46,0.17,9.68c-0.01,2.36-0.97,5.2,0.26,7.38c0.96,1.71,2.85,2.71,4.79,2.5c1.35-0.14,2.71-0.66,4.02-1
			c1.57-0.41,3.15-0.78,4.74-1.15c6.11-1.4,12.3-2.51,18.53-3.31c13.9-1.77,27.98-2.02,41.94-0.78c0.74,0.06,1.26-0.65,1.31-1.31
			c2.05-32.04,3.46-64.13,4.16-96.23c0.2-9.08,0.34-18.16,0.43-27.24c0-0.56-0.41-1.14-0.96-1.26c-20.58-4.88-41.94-0.98-61.43,6.37
			c-5.6,2.11-11.08,4.51-16.48,7.1C213.61,214.19,214.94,216.45,216.46,215.72z"/>
	</g>
</g>
<g>
	<path class="st4" d="M212.27,216.53c-19.2-20.82-52.35-22.91-80.13-17.38c1.16,26.35,2.13,88.09,3.27,123.74
		c17.69-6.84,38.16-6.17,55.37,1.83c3.97,1.85,7.85,4.08,12.16,4.84s9.32-0.36,11.74-4.01L212.27,216.53z"/>
	<g>
		<path d="M213.2,215.61c-15.67-16.85-39.9-21.41-62.01-20.19c-6.51,0.36-12.99,1.21-19.4,2.48c-0.54,0.1-0.98,0.73-0.96,1.26
			c0.63,14.44,0.94,28.89,1.29,43.33c0.43,17.92,0.8,35.83,1.25,53.75c0.22,8.88,0.45,17.77,0.74,26.65
			c0.03,0.78,0.83,1.58,1.66,1.26c11.37-4.35,23.84-5.71,35.88-3.84c6.01,0.93,11.92,2.6,17.49,5.08
			c5.27,2.35,10.49,5.72,16.47,5.69c2.34-0.01,4.74-0.52,6.78-1.68c1.31-0.74,3.43-2.23,3.62-3.87c0.05-0.49-0.03-1.03-0.04-1.52
			c-0.08-3.19-0.14-6.38-0.22-9.57c-0.27-11.97-0.54-23.95-0.8-35.92c-0.29-13.33-0.59-26.66-0.89-39.99
			c-0.17-7.21-0.1-14.46-0.49-21.67c0-0.1,0-0.2-0.01-0.31c-0.04-1.68-2.65-1.68-2.62,0c0.13,5.82,0.26,11.64,0.38,17.45
			c0.28,12.73,0.56,25.44,0.84,38.16c0.28,12.53,0.56,25.07,0.83,37.59c0.09,3.98,0.18,7.95,0.27,11.93
			c0.03,1.03,0.05,2.05,0.06,3.09c0,0.18,0.08,0.51,0.01,0.68c-0.01,0.03,0.01,0.08,0,0.1c0.23-0.46-0.83,0.51-0.87,0.55
			c-0.5,0.46-1.05,0.83-1.65,1.15c-5.22,2.81-11.22,0.31-16.07-2.04c-5.36-2.59-10.76-4.84-16.56-6.24
			c-11.39-2.77-23.45-2.76-34.83,0.04c-2.83,0.7-5.62,1.58-8.35,2.63c0.55,0.42,1.11,0.84,1.66,1.26
			c-0.54-16.66-0.91-33.31-1.28-49.97c-0.4-17.3-0.77-34.6-1.25-51.9c-0.2-7.29-0.42-14.58-0.74-21.86
			c-0.32,0.42-0.64,0.84-0.96,1.26c21.1-4.16,45.08-4.35,64.51,6.05c5.36,2.87,10.2,6.55,14.35,11
			C212.5,218.7,214.35,216.83,213.2,215.61z"/>
	</g>
</g>
<path class="st5" d="M303.02,343.53l1.74-126.16c0,0,6.97-5.31,14.6,1.66c0.52,0.47,0,1.66,0,1.66l0.33,136.12h-81.33
	c0,0-14.27,14.93-21.58,16.59c-7.3,1.66-24.24-11.95-25.9-14.93c-1.66-2.99-24.57-1.99-24.57-1.99l-59.1-1V217.7
	c0,0,5.97-4.16,14.6-2.41l6.32,126.51L303.02,343.53z"/>
<g>
	<g>
		<path d="M279.32,175.66c4.33-10.07,11.22-18.98,20.08-25.48c1.14-0.83,1.71-2.27,0.94-3.59c-0.66-1.12-2.44-1.79-3.59-0.94
			c-9.59,7.02-17.26,16.43-21.95,27.35c-0.56,1.3-0.38,2.81,0.94,3.59C276.84,177.25,278.76,176.97,279.32,175.66L279.32,175.66z"/>
	</g>
</g>
<g>
	<g>
		<path d="M256.27,172.41c5.37-11.87,11.93-23.17,19.57-33.71c0.83-1.15,0.19-2.92-0.94-3.59c-1.33-0.78-2.76-0.2-3.59,0.94
			c-7.63,10.56-14.19,21.85-19.57,33.71c-0.59,1.29-0.37,2.82,0.94,3.59C253.8,174.01,255.68,173.7,256.27,172.41L256.27,172.41z"/>
	</g>
</g>
<g>
	<g>
		<path d="M229.81,190.48c-1.38-24.51,0.77-49.12,6.46-73c0.78-3.28-4.28-4.67-5.05-1.39c-5.78,24.32-8.05,49.44-6.64,74.39
			C224.75,193.82,230,193.85,229.81,190.48L229.81,190.48z"/>
	</g>
</g>
<g>
	<g>
		<path d="M174.23,171.92c-2.6-10.2-5.2-20.4-7.8-30.58c-0.83-3.27-5.88-1.88-5.05,1.39c2.6,10.2,5.2,20.4,7.8,30.58
			C170.02,176.58,175.07,175.2,174.23,171.92L174.23,171.92z"/>
	</g>
</g>
<g>
	<g>
		<path d="M123.79,154.46c9.88,6.48,19.12,13.85,27.66,22.02c2.44,2.34,6.15-1.37,3.7-3.7c-8.85-8.48-18.47-16.12-28.72-22.85
			C123.6,148.07,120.98,152.61,123.79,154.46L123.79,154.46z"/>
	</g>
</g>
<g>
	<path class="st6" d="M93.7,136.85c4.26-1.57,8.63-3.19,12.04-6.18c3.41-2.99,5.72-7.68,4.6-12.09c0.8,3.77,2.08,7.56,4.63,10.45
		c2.54,2.9,6.59,4.72,10.33,3.75c-7.11,4.47-11.92,12.42-12.59,20.79c-2.62-4.07-4.7-8.59-8.25-11.87
		c-3.13-2.88-7.3-4.61-11.55-4.77"/>
	<g>
		<path d="M94.05,138.12c4.79-1.76,9.85-3.63,13.5-7.36c3.23-3.31,5.09-7.91,4.05-12.52c-0.37-1.65-2.88-0.94-2.53,0.7
			c0.93,4.24,2.44,8.64,5.63,11.73c2.91,2.81,6.93,4.3,10.93,3.4c-0.33-0.8-0.68-1.6-1.01-2.4c-7.56,4.85-12.45,12.98-13.24,21.93
			c0.82-0.22,1.63-0.45,2.44-0.66c-2.59-4.07-4.71-8.59-8.27-11.96c-3.45-3.27-7.95-5.08-12.67-5.34c-1.68-0.09-1.68,2.53,0,2.62
			c4.39,0.24,8.51,2.11,11.55,5.3c2.96,3.11,4.84,7.1,7.12,10.7c0.73,1.15,2.32,0.61,2.44-0.66c0.7-7.98,5.21-15.34,11.93-19.66
			c1.25-0.8,0.46-2.72-1.01-2.4c-7.94,1.79-11.97-7.1-13.34-13.3c-0.84,0.23-1.68,0.46-2.53,0.7c2.13,9.38-8.78,14.1-15.71,16.66
			C91.79,136.18,92.46,138.7,94.05,138.12L94.05,138.12z"/>
	</g>
</g>
<g>
	<path class="st6" d="M178.58,142.16c3.85,0.28,7.47-2.25,9.59-5.48c2.12-3.23,3.01-7.08,3.88-10.84
		c0.28,7.21,6.31,13.77,13.47,14.68c-7.62,2.87-12.78,11.23-11.92,19.34c-1.01-4.17-3.17-8.05-6.18-11.12
		c-2.86-2.91-6.42-5.03-9.97-7.05L178.58,142.16z"/>
	<g>
		<path d="M178.58,143.48c3.98,0.17,7.56-2,9.94-5.07c2.74-3.51,3.79-7.95,4.77-12.22c-0.86-0.11-1.71-0.23-2.58-0.34
			c0.43,7.85,6.59,14.82,14.44,15.94c0-0.84,0-1.68,0-2.53c-8.19,3.22-13.7,11.77-12.88,20.6c0.86-0.11,1.71-0.23,2.58-0.34
			c-1.02-4.06-3-7.84-5.81-10.94c-3.05-3.38-7.01-5.77-10.94-8c-0.33,0.8-0.68,1.6-1.01,2.4c0.37,0.15,0.75,0.31,1.12,0.47
			c1.56,0.64,2.23-1.89,0.7-2.53c-0.37-0.15-0.75-0.31-1.12-0.47c-1.39-0.57-2.27,1.67-1.01,2.4c3.59,2.04,7.2,4.19,10.06,7.21
			c2.69,2.86,4.52,6.37,5.48,10.16c0.36,1.39,2.71,1.15,2.58-0.34c-0.7-7.59,3.79-15.27,10.96-18.07c1.03-0.41,1.43-2.32,0-2.53
			c-6.66-0.94-12.14-6.62-12.51-13.42c-0.08-1.42-2.22-1.85-2.58-0.34c-1.44,6.27-4.03,15.7-12.2,15.36
			C176.9,140.79,176.91,143.4,178.58,143.48z"/>
	</g>
</g>
<g>
	<path class="st6" d="M266.25,112.96c5.74-0.79,10.7-5.97,11-11.81c1.25,6.57,6.32,12.27,12.69,14.28c-2.88,0.2-5.87,0.54-8.39,1.97
		c-2.51,1.43-4.45,4.25-4.02,7.11C275.29,118.91,271.34,116.23,266.25,112.96z"/>
	<g>
		<path d="M266.59,114.22c6.42-0.98,11.53-6.62,11.96-13.07c-0.86,0.11-1.71,0.23-2.58,0.34c1.42,7.08,6.76,12.97,13.61,15.2
			c0.11-0.86,0.23-1.71,0.34-2.58c-3.4,0.24-7.08,0.64-9.92,2.72c-2.4,1.76-4.16,4.61-3.79,7.67c0.86-0.11,1.71-0.23,2.58-0.34
			c-1.11-2.71-2.67-5.12-4.8-7.14s-4.63-3.63-7.1-5.21c-1.43-0.92-2.74,1.35-1.33,2.26c4.39,2.82,8.63,5.78,10.68,10.77
			c0.5,1.23,2.77,1.26,2.58-0.34c-0.73-6.04,6.65-7.45,11.09-7.77c1.47-0.1,1.79-2.11,0.34-2.58c-6.01-1.97-10.54-7.2-11.78-13.36
			c-0.31-1.52-2.48-1.05-2.58,0.34c-0.36,5.37-4.81,9.75-10.03,10.54C264.23,111.95,264.95,114.48,266.59,114.22z"/>
	</g>
</g>
<g>
	<path class="st6" d="M301.44,135.45c5.96-1.11,11.04-5.99,12.39-11.9c2.07,5.35,6.15,9.88,11.27,12.48
		c-2.25,1.3-4.53,2.64-6.24,4.6c-1.71,1.95-2.76,4.67-2.07,7.17C313.62,141.67,308.36,135.81,301.44,135.45z"/>
	<g>
		<path d="M301.8,136.7c6.43-1.29,11.76-6.43,13.31-12.8c-0.84,0-1.68,0-2.53,0c2.26,5.69,6.42,10.43,11.87,13.26
			c0-0.75,0-1.51,0-2.26c-4.77,2.77-10.43,6.91-8.91,13.25c0.8-0.33,1.6-0.68,2.4-1.01c-3.36-6.39-8.83-12.51-16.48-13.01
			c-1.68-0.11-1.67,2.51,0,2.62c6.66,0.43,11.35,6.22,14.22,11.72c0.7,1.35,2.73,0.4,2.4-1.01c-1.19-4.99,4.1-8.19,7.71-10.29
			c0.82-0.47,0.88-1.8,0-2.26c-4.81-2.5-8.67-6.64-10.66-11.7c-0.43-1.11-2.2-1.37-2.53,0c-1.35,5.55-5.88,9.87-11.47,10.98
			C299.45,134.51,300.14,137.03,301.8,136.7z"/>
	</g>
</g>
<g>
	<g>
		<path d="M201.94,186.49c-0.05-5.65-0.91-11.32-2.54-16.73c-0.4-1.31-1.85-2.27-3.23-1.83c-1.33,0.43-2.26,1.81-1.83,3.23
			c1.57,5.17,2.31,10.01,2.36,15.34c0.01,1.37,1.2,2.68,2.62,2.62C200.73,189.06,201.96,187.96,201.94,186.49L201.94,186.49z"/>
	</g>
</g>
<g>
	<g>
		<path d="M192.51,112.13c-0.28-2.87-0.55-5.74-0.83-8.62c-0.06-0.71-0.24-1.33-0.77-1.85c-0.46-0.46-1.2-0.79-1.85-0.77
			c-1.3,0.06-2.76,1.16-2.62,2.62c0.28,2.87,0.55,5.74,0.83,8.62c0.06,0.71,0.24,1.33,0.77,1.85c0.46,0.46,1.2,0.79,1.85,0.77
			C191.2,114.7,192.65,113.59,192.51,112.13L192.51,112.13z"/>
	</g>
</g>
<g>
	<g>
		<path d="M232.08,225.96c7.45-1.79,14.91-3.75,22.43-5.23c7.43-1.47,15.09-2.23,22.57-0.64c1.65,0.34,2.35-2.17,0.7-2.53
			c-7.56-1.61-15.23-1-22.76,0.41c-7.94,1.48-15.78,3.59-23.63,5.46C229.74,223.83,230.43,226.36,232.08,225.96L232.08,225.96z"/>
	</g>
</g>
<g>
	<g>
		<path d="M229.32,245.92c7.22-3.6,14.84-6.31,22.72-8.13c1.65-0.38,0.94-2.91-0.7-2.53c-8.08,1.88-15.92,4.71-23.35,8.4
			C226.49,244.4,227.82,246.68,229.32,245.92L229.32,245.92z"/>
	</g>
</g>
<g>
	<g>
		<path d="M257.25,236.62c1.79-0.36,3.57-0.7,5.36-1.06c0.68-0.13,1.12-0.97,0.92-1.61c-0.23-0.71-0.89-1.06-1.61-0.92
			c-1.79,0.36-3.57,0.7-5.36,1.06c-0.68,0.13-1.12,0.97-0.92,1.61C255.87,236.41,256.52,236.76,257.25,236.62L257.25,236.62z"/>
	</g>
</g>
<g>
	<g>
		<path d="M271.25,236.24c3.04-0.93,6.24-0.98,9.29-0.14c1.63,0.45,2.32-2.08,0.7-2.53c-3.48-0.97-7.22-0.92-10.68,0.14
			c-0.68,0.2-1.11,0.92-0.92,1.61C269.82,235.99,270.56,236.45,271.25,236.24L271.25,236.24z"/>
	</g>
</g>
<g>
	<g>
		<path d="M229.9,265.03c14.37-6.39,29.93-9.88,45.64-10.29c1.68-0.04,1.68-2.67,0-2.62c-16.21,0.42-32.15,4.06-46.96,10.65
			C227.04,263.46,228.38,265.72,229.9,265.03L229.9,265.03z"/>
	</g>
</g>
<g>
	<g>
		<path d="M228.47,286c3.52-2.31,7.4-3.92,11.53-4.79c0.69-0.14,1.1-0.96,0.92-1.61c-0.19-0.71-0.92-1.06-1.61-0.92
			c-4.31,0.91-8.46,2.63-12.15,5.04C225.75,284.66,227.06,286.93,228.47,286L228.47,286z"/>
	</g>
</g>
<g>
	<g>
		<path d="M249.32,277.35c8.64-1.75,17.46-2.28,26.26-1.65c1.68,0.13,1.67-2.5,0-2.62c-9.02-0.65-18.09-0.05-26.95,1.74
			C246.97,275.15,247.68,277.68,249.32,277.35L249.32,277.35z"/>
	</g>
</g>
<g>
	<g>
		<path d="M228.35,308.39c14.93-7.88,31.64-11.99,48.52-11.96c1.68,0,1.68-2.62,0-2.62c-17.33-0.01-34.5,4.24-49.83,12.32
			C225.54,306.92,226.87,309.18,228.35,308.39L228.35,308.39z"/>
	</g>
</g>
<g>
	<g>
		<path d="M206.58,303.41c-4.88-3.23-10.88-4.66-16.67-3.96c-0.7,0.09-1.31,0.54-1.31,1.31c0,0.64,0.6,1.39,1.31,1.31
			c5.4-0.66,10.81,0.6,15.36,3.6C206.67,306.62,207.98,304.34,206.58,303.41L206.58,303.41z"/>
	</g>
</g>
<g>
	<g>
		<path d="M178.24,298.38c-12.23-1.93-24.78,0.27-35.59,6.33c-1.47,0.83-0.15,3.09,1.33,2.26c10.15-5.69,22.06-7.88,33.56-6.06
			C179.2,301.18,179.9,298.65,178.24,298.38L178.24,298.38z"/>
	</g>
</g>
<g>
	<g>
		<path d="M200.24,286.23c-4.58-0.96-8.96-2.65-13.5-3.75c-4.1-1-8.31-1.56-12.51-1.8c-8.59-0.5-17.41,0.27-25.64,2.81
			c-1.14,0.34-0.65,2.14,0.5,1.79c8.09-2.5,16.71-3.24,25.15-2.74c4.21,0.24,8.41,0.83,12.51,1.86c4.37,1.1,8.59,2.72,13.01,3.64
			C200.92,288.26,201.42,286.48,200.24,286.23L200.24,286.23z"/>
	</g>
</g>
<g>
	<g>
		<path d="M199.67,263.92c-10.29-4.24-21.24-6.6-32.36-6.99c-1.68-0.06-1.68,2.55,0,2.62c10.89,0.4,21.58,2.74,31.66,6.91
			C200.53,267.09,201.2,264.56,199.67,263.92L199.67,263.92z"/>
	</g>
</g>
<g>
	<g>
		<path d="M155.7,255.65c-3.28-0.61-6.59,0.24-9.18,2.36c-0.54,0.43-0.49,1.4,0,1.85c0.56,0.52,1.29,0.46,1.85,0
			c0.11-0.1,0.13-0.1,0.04-0.04c0.06-0.05,0.14-0.1,0.2-0.15c0.14-0.1,0.28-0.19,0.42-0.28c0.28-0.18,0.59-0.34,0.89-0.5
			c0.15-0.08,0.31-0.15,0.46-0.22c-0.2,0.09,0.13-0.04,0.17-0.05c0.32-0.11,0.65-0.22,0.97-0.31c0.33-0.09,0.66-0.15,1-0.2
			c-0.27,0.04,0.14-0.01,0.15-0.01c0.17-0.01,0.34-0.03,0.51-0.04c0.34-0.01,0.68-0.01,1.02,0.01c0.17,0.01,0.34,0.03,0.51,0.05
			c-0.27-0.04,0.23,0.04,0.28,0.05c0.68,0.13,1.44-0.18,1.61-0.92C156.76,256.62,156.43,255.79,155.7,255.65L155.7,255.65z"/>
	</g>
</g>
<g>
	<g>
		<path d="M200.14,243.14c-8.03-2.3-16.22-3.82-24.53-4.66c-4.02-0.41-8.05-0.74-12.09-0.98c-3.83-0.23-7.7-0.15-11.32,1.23
			c-1.56,0.6-0.88,3.13,0.7,2.53c3.51-1.34,7.2-1.35,10.9-1.11c3.94,0.24,7.89,0.56,11.81,0.96c8.07,0.82,16.03,2.34,23.83,4.57
			C201.07,246.14,201.76,243.61,200.14,243.14L200.14,243.14z"/>
	</g>
</g>
<g>
	<g>
		<path d="M195.87,224.33c1.68,0,1.68-2.62,0-2.62C194.18,221.7,194.18,224.33,195.87,224.33L195.87,224.33z"/>
	</g>
</g>
<g>
	<g>
		<path d="M190.85,220.66c-7.19-1.44-14.36-2.9-21.56-4.33c-6.84-1.35-13.53-2.03-20.33-0.03c-1.61,0.47-0.93,3,0.7,2.53
			c6.78-2,13.34-1.1,20.13,0.27c6.79,1.37,13.57,2.72,20.36,4.08C191.79,223.52,192.5,221,190.85,220.66L190.85,220.66z"/>
	</g>
</g>
</svg>
