<?xml version="1.0" encoding="utf-8"?>
<!-- Generator: Adobe Illustrator 24.1.0, SVG Export Plug-In . SVG Version: 6.00 Build 0)  -->
<svg version="1.1" id="Ebene_1" xmlns="http://www.w3.org/2000/svg" xmlns:xlink="http://www.w3.org/1999/xlink" x="0px" y="0px"
	 viewBox="0 0 450 450" style="enable-background:new 0 0 450 450;" xml:space="preserve">
<style type="text/css">
	.st0{fill:#D6E5E5;stroke:#000000;stroke-width:4.5349;stroke-miterlimit:10;}
</style>
<path class="st0" d="M292.35,207.36c-0.92-7.27-2.41-14.42-4.82-21.36c-2.39-6.88-5.45-13.62-9.5-19.68
	c-4.13-6.17-9.08-11.57-15.16-15.87c-2.92-2.06-6.14-3.7-9.38-5.18c-4.18-1.91-8.48-3.59-12.9-4.87
	c-8.74-2.52-18.04-3.67-27.13-3.12c-4.99,0.3-10.04,0.99-14.88,2.28c-4.54,1.21-8.97,3.01-13.12,5.19
	c-3.68,1.92-7.07,4.25-10.34,6.78c-11.54,8.71-22.6,18.67-28.88,31.96c-3.15,6.67-5.23,13.69-6.31,20.99
	c-0.53,3.57-0.87,7.11-0.82,10.73c0.06,3.89,0.49,7.75,1.04,11.59c1.01,7.05,2.85,14,5.5,20.61c2.89,7.21,6.48,13.99,11.58,19.9
	c2.31,2.68,5.02,5.03,7.8,7.22c3.5,2.76,7.12,5.34,11.02,7.53c7.38,4.15,15.54,7.23,23.92,8.49c4.54,0.68,9.09,1.07,13.68,0.81
	c4.62-0.26,9.25-0.97,13.79-1.86c7.98-1.57,15.68-4.21,23.01-7.72c7.43-3.56,14.22-8.22,20.62-13.39c3.3-2.66,6.49-5.49,9.27-8.69
	c1.7-1.96,3.31-4.02,4.72-6.2c1.19-1.85,2.07-3.77,2.91-5.8c2.85-6.93,3.97-14.7,4.71-22.1
	C293.28,219.52,293.11,213.41,292.35,207.36z M278.74,228.32c-0.73,5.13-1.77,10.33-3.67,15.15c-0.84,1.76-1.88,3.42-3.03,4.99
	c-3.39,4.25-7.49,7.87-11.76,11.22c-6.09,4.64-12.65,8.62-19.67,11.68c-7.15,2.91-14.64,4.83-22.28,5.93
	c-4.91,0.59-9.81,0.7-14.73,0.13c-4.95-0.75-9.78-2.11-14.42-3.99c-5.24-2.3-10.17-5.24-14.74-8.69c-3.1-2.46-6.04-5.12-8.54-8.2
	c-2.77-3.74-5.01-7.85-6.88-12.11c-2.78-6.8-4.7-13.95-5.75-21.22c-0.62-5.04-0.81-10.17-0.22-15.22
	c0.83-5.56,2.19-11.04,4.29-16.25c1.81-4.08,4.08-7.93,6.75-11.51c4.9-6.18,10.81-11.46,17.02-16.3c0.43-0.33,0.86-0.66,1.29-0.98
	c0,0,0.01,0,0.01-0.01c0.45-0.26,0.86-0.58,1.25-0.95c3.79-2.84,7.86-5.27,12.19-7.19c4.26-1.7,8.68-2.82,13.21-3.51
	c5.87-0.71,11.81-0.7,17.68,0.01c6.42,0.95,12.69,2.71,18.7,5.18c3.98,1.74,7.88,3.74,11.38,6.32c2.75,2.23,5.22,4.78,7.43,7.54
	c3.37,4.48,6.11,9.41,8.35,14.54c2.98,7.27,5.03,14.92,6.15,22.7C279.61,214.5,279.61,221.41,278.74,228.32z"/>
<path class="st0" d="M320.47,134.08c0.28-0.28,0.55-0.55,0.83-0.83c1.71-1.58,2.91-3.46,3.62-5.63c1.1-2.08,1.6-4.33,1.51-6.74
	c0.09-2.41-0.41-4.65-1.51-6.74c-0.71-2.17-1.91-4.04-3.62-5.63c-1.18-0.91-2.36-1.82-3.54-2.74c-2.73-1.58-5.67-2.38-8.83-2.39
	c-1.55,0.21-3.1,0.42-4.65,0.62c-2.96,0.83-5.54,2.33-7.72,4.5c-0.28,0.28-0.55,0.55-0.83,0.83c-1.71,1.58-2.91,3.46-3.62,5.63
	c-1.1,2.08-1.6,4.33-1.51,6.74c-0.09,2.41,0.41,4.65,1.51,6.74c0.71,2.17,1.91,4.04,3.62,5.63c1.18,0.91,2.36,1.82,3.54,2.74
	c2.73,1.58,5.67,2.38,8.83,2.39c1.55-0.21,3.1-0.42,4.65-0.62C315.71,137.75,318.29,136.25,320.47,134.08L320.47,134.08z"/>
<path class="st0" d="M381.99,138.16c-1.84-10.19-3.77-20.4-6.2-30.46c-2.2-9.12-5.16-18.35-10.3-26.28
	c-9.78-15.07-26.21-22.71-43.38-25.96c-8.55-1.61-17.24-2.4-25.92-2.93c-10.76-0.66-21.52-1.2-32.29-1.74
	c-21.88-1.09-43.76-2.01-65.65-2.75c-10.66-0.36-21.33-0.68-32-0.96c-4.08-0.24-8.17-0.49-12.25-0.73
	c-2.76-0.17-5.61,0.39-8.35,0.74c-4.3,0.56-8.59,1.2-12.85,2.03c-15.92,3.12-31.99,8.6-45.28,18.13
	c-6.92,4.96-12.94,10.79-17.88,17.74c-5.36,7.53-8.98,16.31-11.1,25.28c-4.56,19.3-3.12,39.45-2.49,59.08
	c0.71,22.03,1.41,44.07,2.12,66.1c0.35,11.02,0.71,22.03,1.06,33.05c0.35,10.78,0.57,21.58,1.63,32.31
	c2.04,20.71,7.76,40.69,17.86,58.95c4.63,8.37,10.04,16.95,17.55,23.03c8.15,6.6,18.12,9.67,28.22,11.9
	c41.72,9.2,84.46,2.8,126.63,1.96c35.78-0.71,75.23,1.11,104.84-22.49c14.3-11.4,24-27.82,29.86-44.95
	c6.75-19.73,8.2-40.95,8.18-61.66C393.97,224.23,389.68,180.78,381.99,138.16z M380.91,297.17c-0.31,2.73-0.46,3.89-0.92,6.73
	c-0.41,2.54-0.88,5.06-1.41,7.58c-0.98,4.6-2.18,9.14-3.66,13.6c-0.68,2.06-1.42,4.09-2.22,6.11c-0.17,0.42-0.34,0.84-0.51,1.26
	c-0.04,0.09-0.13,0.32-0.21,0.5c-0.48,1.11-0.98,2.22-1.5,3.31c-1.85,3.9-3.93,7.7-6.27,11.32c-1.07,1.66-2.19,3.28-3.36,4.86
	c-0.04,0.05-0.52,0.68-0.63,0.83c-0.25,0.32-0.51,0.64-0.76,0.96c-0.79,0.97-1.6,1.92-2.43,2.85c-2.86,3.21-5.99,6.12-9.31,8.84
	c-0.1,0.08-0.18,0.15-0.25,0.2c-0.07,0.05-0.16,0.11-0.28,0.2c-0.29,0.21-0.58,0.43-0.87,0.64c-0.88,0.64-1.77,1.25-2.67,1.85
	c-1.94,1.28-3.93,2.47-5.98,3.58c-1.72,0.92-3.47,1.79-5.24,2.59c-0.36,0.16-0.72,0.32-1.08,0.48c-0.18,0.07-0.87,0.36-0.94,0.39
	c-1.07,0.43-2.14,0.83-3.23,1.22c-3.94,1.41-7.97,2.55-12.05,3.48c-2.1,0.48-4.22,0.91-6.35,1.28c-1.07,0.19-2.14,0.37-3.21,0.53
	c-0.36,0.06-0.72,0.11-1.08,0.16c-0.15,0.02-1.25,0.17-1.5,0.21c-8.67,1.11-17.4,1.58-26.13,1.83c-8.85,0.25-17.71,0.26-26.56,0.45
	c-10.35,0.22-20.68,0.77-31.01,1.33c-20.46,1.12-40.98,2.34-61.47,1.13c-5.13-0.3-10.24-0.78-15.33-1.4
	c-0.23-0.03-0.38-0.05-0.5-0.06c-0.12-0.02-0.27-0.04-0.5-0.07c-0.64-0.09-1.27-0.18-1.9-0.28c-1.16-0.17-2.33-0.36-3.49-0.56
	c-2.64-0.45-5.27-0.95-7.89-1.52c-4.75-1.03-9.5-2.19-14.07-3.87c-0.55-0.2-1.1-0.42-1.65-0.63c-0.17-0.07-0.29-0.11-0.39-0.15
	c-0.09-0.05-0.21-0.1-0.38-0.18c-0.88-0.42-1.77-0.84-2.63-1.3c-1.03-0.56-2.04-1.15-3.02-1.8c-0.48-0.32-0.94-0.65-1.41-0.98
	c-0.07-0.05-0.12-0.09-0.18-0.13c-0.29-0.23-0.57-0.47-0.85-0.71c-1.57-1.34-3.04-2.81-4.42-4.35c-0.68-0.76-1.33-1.55-1.97-2.35
	c-0.09-0.12-0.66-0.86-0.68-0.88c-0.45-0.61-0.89-1.23-1.32-1.85c-2.63-3.8-5-7.78-7.19-11.85c-1.1-2.04-2.15-4.1-3.14-6.19
	c-0.52-1.09-1.02-2.19-1.52-3.29c-0.25-0.55-0.49-1.1-0.73-1.66c-0.07-0.16-0.12-0.28-0.16-0.37c-0.04-0.1-0.1-0.25-0.19-0.46
	c-1.81-4.48-3.43-9.03-4.79-13.67c-1.36-4.63-2.48-9.34-3.36-14.09c-0.96-5.21-1.43-9.15-1.9-14.62
	c-0.91-10.55-1.11-21.14-1.45-31.72c-0.69-21.36-1.37-42.72-2.06-64.08c-0.35-10.79-0.69-21.58-1.04-32.38
	c-0.32-9.85-0.77-19.71-0.69-29.57c0.04-4.65,0.22-9.3,0.64-13.93c0.1-1.15,0.22-2.3,0.36-3.44c0.03-0.24,0.06-0.49,0.09-0.73
	c0.01-0.01,0.15-1.08,0.16-1.14c0.37-2.45,0.82-4.88,1.37-7.29c0.47-2.03,1-4.04,1.62-6.03c0.34-1.08,0.7-2.16,1.09-3.22
	c0.19-0.53,0.39-1.06,0.6-1.59c0.12-0.31,0.24-0.61,0.37-0.92c0.04-0.08,0.08-0.18,0.13-0.31c1.71-3.78,3.7-7.4,6.1-10.8
	c0.23-0.33,0.46-0.65,0.7-0.97c0.06-0.08,0.33-0.43,0.48-0.63c0.51-0.65,1.04-1.29,1.57-1.92c1.24-1.44,2.54-2.82,3.89-4.15
	c1.35-1.32,2.77-2.59,4.23-3.8c0.37-0.3,0.74-0.6,1.1-0.9c0.07-0.06,0.12-0.1,0.17-0.14c0.05-0.03,0.09-0.07,0.15-0.11
	c0.76-0.57,1.53-1.13,2.31-1.68c3.15-2.2,6.46-4.17,9.88-5.93c1.73-0.89,3.49-1.73,5.27-2.52c0.37-0.17,0.75-0.32,1.12-0.49
	c0.01,0,0.01-0.01,0.02-0.01c0.05-0.02,0.1-0.04,0.17-0.07c1.07-0.43,2.13-0.85,3.21-1.26c7.46-2.8,15.2-4.84,23.02-6.32
	c1.8-0.34,3.6-0.65,5.41-0.93c0.98-0.15,1.97-0.29,2.95-0.44c0.08-0.01,0.14-0.02,0.2-0.03c0.06-0.01,0.13-0.02,0.21-0.03
	c0.65-0.08,1.31-0.17,1.96-0.24c2.35-0.28,4.66-0.6,7.02-0.46c3.87,0.23,7.75,0.46,11.62,0.69c43,1.13,85.99,2.86,128.93,5.4
	c3.89,0.23,7.79,0.5,11.67,0.88c1.92,0.19,3.83,0.4,5.74,0.65c0.27,0.04,0.77,0.1,0.86,0.12c0.51,0.07,1.01,0.15,1.52,0.23
	c1.01,0.16,2.02,0.33,3.03,0.51c3.98,0.72,7.92,1.63,11.78,2.83c1.89,0.59,3.75,1.27,5.6,1.98c0.09,0.03,0.17,0.06,0.23,0.09
	c0.06,0.03,0.11,0.05,0.19,0.08c0.3,0.13,0.6,0.26,0.89,0.4c1.03,0.47,2.06,0.97,3.06,1.5c1.71,0.91,3.38,1.9,4.99,2.99
	c0.55,0.38,1.09,0.77,1.63,1.17c0.19,0.15,0.6,0.47,0.68,0.53c0.5,0.41,1,0.83,1.48,1.27c1.41,1.26,2.74,2.61,3.98,4.04
	c1.31,1.51,2.09,2.57,3.49,4.84c1.07,1.73,2.03,3.52,2.9,5.35c0.24,0.5,0.46,1.01,0.7,1.51c0.07,0.14,0.11,0.24,0.15,0.33
	c0.03,0.09,0.07,0.19,0.13,0.33c0.48,1.21,0.95,2.43,1.38,3.66c1.49,4.26,2.64,8.63,3.67,13.02c4.66,20.03,8.09,40.41,10.86,60.77
	c0.21,1.53,0.61,4.68,0.9,6.96c0.33,2.62,0.64,5.24,0.93,7.87c0.6,5.25,1.13,10.51,1.62,15.77c0.97,10.52,1.71,21.07,2.23,31.62
	C382.48,255.94,383.21,276.73,380.91,297.17z"/>
</svg>
