<?xml version="1.0" encoding="utf-8"?>
<!-- Generator: Adobe Illustrator 24.1.0, SVG Export Plug-In . SVG Version: 6.00 Build 0)  -->
<svg version="1.1" id="Ebene_1" xmlns="http://www.w3.org/2000/svg" xmlns:xlink="http://www.w3.org/1999/xlink" x="0px" y="0px"
	 viewBox="0 0 450 450" style="enable-background:new 0 0 450 450;" xml:space="preserve">
<style type="text/css">
	.st0{fill:#FDFCEF;}
	.st1{fill:#EF8F70;}
	.st2{fill:#C7EDE6;}
	.st3{fill:#EA6244;stroke:#000000;stroke-width:0.4578;stroke-miterlimit:10;}
	.st4{fill:#F6CCA4;}
	.st5{fill:#E73D52;}
	.st6{fill:#DCAA1C;}
	.st7{fill:#769CCA;}
	.st8{fill:#C29B67;}
	.st9{fill:#E9BF9A;}
</style>
<g>
	<path class="st0" d="M203.73,281.55c-4.22-8.43-14.3-10.18-21.22-7.28l-2.87,1.61c-0.41-6.69-8.18-11.43-14.65-9.7
		s-10.78,8.58-10.72,15.28c-2.82-2.69-7.3-3.47-10.87-1.89s-5.99,5.43-5.89,9.33c-4.62-1.63-10.31,0.03-12.99,4.13
		c-2.68,4.1-1.73,10.28,2.29,13.07c2.14,1.49,4.82,1.96,7.41,2.15c10.65,0.78,20.88,0.44,31.55,0.7c7.29,0.18,14.75-0.98,21.99-0.12
		c7.24,0.85,14.98,0.57,21.23-3.17c2.22-1.33,4.22-3.11,5.41-5.4c3.01-5.82-0.75-13.76-6.97-15.82c-1.12-0.37-2.28-0.56-3.44-0.59
		L203.73,281.55z"/>
</g>
<g>
	<path class="st0" d="M290.1,172.6c5.41-4.51,8.42-5.71,14.84-4.58c5.21,0.92,10.62,5.36,10.97,10.64c6.9-2.77,14.98-3.39,21.64-0.1
		c6.67,3.29,11.3,11.07,9.54,18.29l0.03,2.59c4.6,1.69,7.72,6.5,7.87,11.39s-2.45,7.57-6.35,10.53c-5.98,4.53-17.22,3.74-24.72,3.81
		c-8.96,0.08-21.26,0.17-30.22,0.25h-3.61c-2.05-19.85,1.33-31.23-3.19-50.18L290.1,172.6z"/>
</g>
<g>
	<path class="st1" d="M157.83,270.26c0.09-27.02,0.18-58.33,0.26-85.35c-0.73-7.47,3.96-14.14,10.91-16.94
		c20.57-5.03,111.5-10.29,121.86,8.52c4.52,18.95,0.07,40.74,2.12,60.59c-0.92,19.05,4.23,41.35-7.05,57.77
		c-7.26,10.57-51.44,6.07-69.49,6.55c0,0-0.58-14.49-7.62-16.44c-7.05-1.96,0,0,0,0l-4.31-1.17c0,0-2.35-7.83-10.18-9.79
		c-7.83-1.96-14.49,0.39-14.49,0.39s-5.48-8.61-12.14-8.61S157.83,270.26,157.83,270.26"/>
</g>
<g>
	<path class="st2" d="M345.59,224.91c1.47,5.72,0.39,12.05-2.88,16.97c-0.85,1.28-1.89,2.6-1.91,4.14
		c-0.02,2.04,1.71,3.59,3.14,5.03c10.66,10.69,10.25,29.49,1.06,41.46c-9.19,11.97-25.24,17.36-40.29,16.29
		c-5.94,10.78-17.43,18.29-29.68,19.4c-12.25,1.11-24.91-4.2-32.69-13.73c-8.18,9.48-18.63,17.14-30.46,21.25
		c-11.83,4.11-25.04,4.55-36.86,0.41c-12.49-4.37-23.1-13.87-28.83-25.79c0,0,48.92,1.63,55.19,0.46s13.7-6.27,13.7-7.83
		c0-1.57,49.73,2.35,57.17-0.39c7.44-2.74,15.66-5.48,17.62-12.14c1.96-6.66,4.31-16.05,4.31-28.58c0-12.53,0.39-35.24,0.39-35.24
		s38.76,0,41.51,0S345.59,224.91,345.59,224.91z"/>
</g>
<g>
	<path class="st2" d="M135.38,285.68c-2.24-3.99-2.62-8.98-1.01-13.27c-10.73,1.74-22.19-1.86-30-9.42
		c-7.81-7.56-11.77-18.91-10.36-29.68c0.75-5.74,2.9-11.21,5.51-16.37c2.63-5.21,5.83-10.28,10.36-13.97
		c4.53-3.69,10.58-5.86,16.29-4.66c-0.47-11.35,4.62-22.93,13.71-29.75c9.09-6.81,22-8.39,32.2-3.39c0,0-10.51,4.93-12.07,10.67
		c-1.57,5.74-2.35,92.67-2.35,92.67s-2.61,6.26-2.87,8.61c-0.26,2.35-0.53,4.36-0.53,4.36s-3.39-3.05-7.56-2.79
		s-8.88,4.18-10.44,7.05S135.38,285.68,135.38,285.68z"/>
</g>
<g>
	<path class="st2" d="M309.51,165.37c-0.33-13.21-6.49-25.97-15.88-35.25s-21.84-15.2-34.8-17.73c-18.52-3.61-39.21,0.1-52.87,13.12
		c-10.26,9.77-15.64,23.7-18.11,37.65c0,0,83.37-2.99,98.77,9.28c0,0,11.75-8.09,20.62-4.96L309.51,165.37z"/>
</g>
<g>
	<g>
		<path d="M291.55,173.73c1.76-1.46,3.67-3.01,5.85-3.78c2.07-0.73,4.24-0.7,6.39-0.37c4.4,0.68,9.63,3.87,10.05,8.75
			c0.1,1.19,1.25,2.52,2.61,1.99c6.67-2.63,14.73-3.49,21.16,0.29c5.17,3.04,8.88,9.3,7.49,15.37c-0.59,2.58,3.38,3.68,3.97,1.1
			c1.76-7.67-2.32-15.48-8.77-19.64c-7.36-4.75-17.09-4.18-24.95-1.08c0.87,0.66,1.74,1.32,2.61,1.99
			c-0.57-6.52-6.44-11.58-12.68-12.66c-2.88-0.5-5.88-0.7-8.7,0.21c-3.02,0.98-5.54,2.94-7.95,4.93c-0.86,0.71-0.73,2.18,0,2.91
			C289.49,174.58,290.69,174.45,291.55,173.73L291.55,173.73z"/>
	</g>
</g>
<g>
	<g>
		<path d="M336.18,204.65c2.74-4.79,9.51-5.3,13.37-1.62c2.02,1.94,3.3,4.68,3.39,7.49c0.08,2.6-0.89,4.7-2.72,6.52
			c-1.92,1.92-4.11,3.48-6.71,4.31c-2.81,0.89-5.75,1.21-8.69,1.36c-5.96,0.3-11.96,0.11-17.92,0.16
			c-7.73,0.06-15.46,0.12-23.19,0.19c-2.65,0.02-2.66,4.15,0,4.12c7.73-0.07,15.46-0.13,23.19-0.19c6.75-0.06,13.61,0.29,20.33-0.32
			c3.39-0.31,6.77-0.89,9.88-2.31c2.86-1.31,5.58-3.58,7.49-6.07c4.26-5.56,2.64-13.85-2.39-18.4c-5.79-5.24-15.58-4.3-19.58,2.69
			C331.3,204.87,334.86,206.95,336.18,204.65L336.18,204.65z"/>
	</g>
</g>
<g>
	<g>
		<path d="M168.44,263.64c0.06-17.61,0.11-35.22,0.17-52.83c0.01-4.37,0.03-8.74,0.04-13.11c0.01-2.14,0.1-4.3,0.02-6.44
			c-0.06-1.65-0.03-3.16,0.45-4.76c0.91-3.02,3.02-5.6,5.68-7.27c1.57-0.98,3.05-1.36,4.82-1.7c7.56-1.43,15.29-2.07,23.04-2.6
			c10.41-0.71,20.85-1.01,31.29-0.81c9.77,0.19,19.65,0.72,29.27,2.57c3.71,0.71,7.44,1.61,10.93,3.08
			c1.08,0.45,2.59,1.22,3.73,1.99c0.66,0.44,0.71,0.48,1.31,1.03c0.21,0.19,0.4,0.38,0.59,0.59c0.12,0.13,0.62,0.75,0.42,0.48
			c0.67,0.91,0.75,1.97,0.96,3.08c0.38,2.03,0.65,4.09,0.84,6.15c0.38,4.21,0.43,8.45,0.37,12.68c-0.12,8.59-0.75,17.17-0.34,25.76
			c0.1,2.04,0.39,4.08,0.32,6.12c-0.07,1.87-0.08,3.74-0.07,5.61c0.02,3.83,0.15,7.66,0.2,11.49c0.09,7.49-0.07,15.11-2.2,22.35
			c-0.52,1.79-1.16,3.55-1.95,5.23c-0.61,1.3-1.22,2.79-2.24,3.83c-1.2,1.22-2.78,2.07-4.43,2.67c-4.59,1.69-9.63,2.04-14.48,2.18
			c-11.23,0.34-22.42-1.04-33.64-0.82c-2.11,0.04-4.21,0.18-6.3,0.48c-0.85,0.13-1.3,1.19-1.1,1.95c0.24,0.91,1.1,1.23,1.95,1.1
			c4.62-0.68,9.65-0.41,14.38-0.22c5.98,0.23,11.95,0.6,17.93,0.7c5.63,0.1,11.32,0.01,16.87-0.97c4.06-0.71,8.62-2.03,11.44-5.25
			c1.15-1.31,1.91-3.04,2.62-4.61c0.79-1.77,1.47-3.58,2.02-5.44c1.08-3.67,1.66-7.48,1.99-11.29c0.68-7.92,0.15-15.87,0.12-23.8
			c-0.01-1.93,0.01-3.87,0.1-5.8c0.09-2.12-0.29-4.31-0.38-6.43c-0.17-4.36-0.09-8.72,0.05-13.08c0.26-8.73,0.77-17.52-0.22-26.23
			c-0.24-2.11-0.55-4.21-0.99-6.29c-0.23-1.1-0.48-1.97-1.14-2.86c-0.88-1.18-1.96-2.13-3.16-2.97c-2.76-1.93-6.05-3.11-9.26-4.04
			c-9.13-2.65-18.85-3.44-28.31-3.92c-10.85-0.54-21.73-0.42-32.57,0.12c-8.96,0.45-17.94,1.13-26.82,2.45
			c-1.52,0.23-3.03,0.47-4.54,0.77c-2.17,0.43-4.07,1.18-5.89,2.5c-2.77,2-4.9,4.7-6.05,7.92c-1.25,3.52-0.77,7.4-0.79,11.06
			c-0.06,18.2-0.11,36.4-0.17,54.61c-0.01,4.32-0.03,8.64-0.04,12.96C165.27,265.68,168.43,265.68,168.44,263.64L168.44,263.64z"/>
	</g>
</g>
<g>
	<path class="st0" d="M166.85,263.64c0.08-23.41,0.15-48.97,0.23-72.38c-0.63-6.48,3.43-12.26,9.45-14.68
		c17.83-4.35,96.63-8.91,105.61,7.38c3.91,16.42,0.06,35.31,1.84,52.51c-0.8,16.51,2.89,35.33-6.11,50.06
		c-8.62,10.91-45.43,3.44-60.22,5.67c0,0-6.99-9.64-13.13-8.44c0,0,0.72-11.74-16.67-10.57c0,0-4.86-2.36-7.99,1.17
		c0,0-8.24-10.41-10.62-10.57S166.85,263.64,166.85,263.64z"/>
</g>
<g>
	<g>
		<path d="M173,163.58c-8.57-4.12-18.61-4.12-27.33-0.43c-8.69,3.68-15.2,10.97-18.67,19.67c-1.95,4.89-2.85,10.21-2.66,15.47
			c0.77-0.59,1.54-1.17,2.31-1.76c-8.27-1.62-16.27,2.47-21.64,8.6c-2.72,3.11-4.9,6.65-6.78,10.31c-2.04,3.97-3.85,8.12-5,12.45
			c-4.16,15.64,2.32,32.86,16.27,41.32c7.58,4.59,16.62,6.31,25.35,4.95c-0.75-0.75-1.5-1.5-2.24-2.24
			c-1.74,4.82-1.25,10.19,1.19,14.67c1.12,2.06,4.27,0.22,3.15-1.84c-2-3.68-2.24-7.94-0.82-11.86c0.52-1.45-1.01-2.44-2.24-2.24
			c-13.98,2.18-28.24-5.14-34.65-17.71c-3.18-6.24-4.44-13.58-3.27-20.51c1.3-7.66,4.84-15.26,9.23-21.63
			c4.51-6.53,12.06-12.4,20.48-10.75c1.11,0.22,2.36-0.5,2.31-1.76c-0.3-8.3,2.35-16.76,7.67-23.2
			c5.41-6.54,13.33-10.58,21.82-11.01c4.7-0.24,9.42,0.59,13.67,2.64C173.27,167.75,175.12,164.6,173,163.58L173,163.58z"/>
	</g>
</g>
<g>
	<g>
		<path d="M311.33,165.37c-0.36-12.15-5.29-23.76-13.11-32.98c-7.94-9.36-18.87-15.92-30.5-19.62
			c-21.76-6.92-48.45-4.06-64.78,13.17c-9.47,9.99-14.46,23.37-16.85,36.72c-0.41,2.3,3.1,3.28,3.52,0.97
			c2.02-11.29,5.82-22.63,12.99-31.74c6.8-8.64,16.37-14.36,26.96-17.07c21.62-5.52,46.84,0.8,62.78,16.57
			c9.04,8.95,14.96,21.16,15.34,33.96C307.75,167.72,311.4,167.73,311.33,165.37L311.33,165.37z"/>
	</g>
</g>
<g>
	<g>
		<path d="M311.33,165.37c-0.36-12.15-5.29-23.76-13.11-32.98c-7.94-9.36-18.87-15.92-30.5-19.62
			c-21.76-6.92-48.45-4.06-64.78,13.17c-9.47,9.99-14.46,23.37-16.85,36.72c-0.41,2.3,3.1,3.28,3.52,0.97
			c2.02-11.29,5.82-22.63,12.99-31.74c6.8-8.64,16.37-14.36,26.96-17.07c21.62-5.52,46.84,0.8,62.78,16.57
			c9.04,8.95,14.96,21.16,15.34,33.96C307.75,167.72,311.4,167.73,311.33,165.37L311.33,165.37z"/>
	</g>
</g>
<g>
	<g>
		<path d="M311.33,165.37c-0.36-12.15-5.29-23.76-13.11-32.98c-7.94-9.36-18.87-15.92-30.5-19.62
			c-21.76-6.92-48.45-4.06-64.78,13.17c-9.47,9.99-14.46,23.37-16.85,36.72c-0.41,2.3,3.1,3.28,3.52,0.97
			c2.02-11.29,5.82-22.63,12.99-31.74c6.8-8.64,16.37-14.36,26.96-17.07c21.62-5.52,46.84,0.8,62.78,16.57
			c9.04,8.95,14.96,21.16,15.34,33.96C307.75,167.72,311.4,167.73,311.33,165.37L311.33,165.37z"/>
	</g>
</g>
<g>
	<g>
		<path d="M343.83,225.4c1.01,4.1,0.68,8.47-0.96,12.37c-1.55,3.7-5.43,6.9-3.1,11.17c0.89,1.62,2.37,2.82,3.61,4.16
			c1.17,1.28,2.18,2.68,3.05,4.19c1.75,3.03,2.84,6.4,3.36,9.85c1.03,6.91-0.34,14.26-3.69,20.37c-3.6,6.57-9.52,11.56-16.19,14.83
			c-7.77,3.81-16.59,5.23-25.19,4.65c-0.62-0.04-1.28,0.37-1.58,0.9c-4.43,7.94-11.87,14.05-20.51,16.88
			c-8.81,2.89-18.48,2.12-26.8-1.96c-4.72-2.32-8.86-5.56-12.2-9.62c-0.6-0.72-1.98-0.69-2.58,0
			c-9.66,11.15-22.42,19.74-36.98,22.81c-14.61,3.08-30.19,0.21-42.07-9.02c-6.03-4.68-10.9-10.7-14.23-17.56
			c-1.02-2.11-4.17-0.26-3.15,1.84c6.28,12.96,18.05,23.05,31.83,27.26c15.76,4.81,33.06,1.9,47.22-6.17
			c7.55-4.3,14.28-10.02,19.97-16.58c-0.86,0-1.72,0-2.58,0c6.5,7.87,16.04,12.86,26.13,14.12c9.94,1.24,20.16-1.69,28.14-7.7
			c4.47-3.37,8.24-7.57,10.97-12.46c-0.53,0.3-1.05,0.6-1.58,0.9c15.96,1.08,33.26-4.84,42.69-18.32
			c8.54-12.21,8.88-30.7-1.57-41.92c-1.14-1.22-3.6-2.88-3.14-4.81c0.25-1.08,1.11-2.03,1.7-2.94c0.68-1.05,1.25-2.15,1.74-3.3
			c2.01-4.71,2.43-9.93,1.21-14.91C346.79,222.15,343.27,223.11,343.83,225.4L343.83,225.4z"/>
	</g>
</g>
<g>
	<g>
		<path d="M216.45,303.22c12.77-0.32,25.54,0.73,38.32,0.52c6.55-0.1,13.16-0.4,19.61-1.59c4.22-0.78,9.33-1.99,12.32-5.34
			c2.58-2.89,4.25-6.88,5.5-10.5c1.43-4.13,2.18-8.47,2.6-12.82c0.87-9,0.15-18.05-0.05-27.06c-0.05-2.22-0.07-4.45-0.02-6.67
			c0.02-1.04,0.12-2.09,0.05-3.13c-0.09-1.34-0.23-2.68-0.31-4.03c-0.3-5.1-0.25-10.21-0.11-15.31c0.27-10.26,0.95-20.58-0.04-30.83
			c-0.24-2.5-0.57-5-1.04-7.48c-0.29-1.52-0.48-3.04-1.38-4.32c-0.98-1.38-2.2-2.5-3.56-3.49c-3.17-2.3-7.02-3.7-10.75-4.79
			c-10.66-3.12-22.01-4.04-33.05-4.59c-12.71-0.63-25.46-0.47-38.16,0.19c-10.38,0.53-20.78,1.34-31.06,2.93
			c-1.7,0.26-3.41,0.55-5.1,0.91c-2.93,0.61-5.5,2.11-7.75,4.07c-2.97,2.6-5.17,6.23-5.91,10.12c-0.39,2.08-0.26,4.08-0.26,6.18
			c-0.01,2.49-0.02,4.97-0.02,7.46c-0.07,20.67-0.12,41.34-0.19,62.01c-0.02,4.86-0.03,9.72-0.05,14.58c-0.01,2.35,3.64,2.35,3.65,0
			c0.07-20.02,0.12-40.04,0.18-60.06c0.02-4.99,0.03-9.98,0.05-14.97c0.01-2.43,0.02-4.85,0.02-7.28c0.01-2.09-0.23-4.26,0.04-6.33
			c0.47-3.63,2.45-6.88,5.2-9.24c1.95-1.67,4.07-2.63,6.54-3.13c8.65-1.74,17.36-2.45,26.35-3.09c12.17-0.87,24.38-1.24,36.58-1.02
			c11.47,0.2,23.06,0.8,34.35,2.97c4.33,0.83,8.69,1.88,12.76,3.6c-0.27-0.11,0.25,0.11,0.35,0.16c0.2,0.09,0.41,0.19,0.61,0.28
			c0.44,0.21,0.88,0.43,1.3,0.66c0.71,0.38,1.4,0.79,2.07,1.25c0.16,0.11,0.31,0.22,0.47,0.33c0.41,0.29-0.05-0.05,0.18,0.14
			c0.29,0.24,0.58,0.48,0.86,0.74c0.25,0.23,0.49,0.47,0.71,0.73c0.11,0.12,0.22,0.25,0.32,0.37c0.25,0.3-0.15-0.23,0.12,0.16
			c0.81,1.18,0.88,2.69,1.13,4.09c0.42,2.38,0.71,4.78,0.91,7.19c0.41,4.97,0.43,9.97,0.34,14.96c-0.18,10.02-0.9,20.05-0.3,30.07
			c0.14,2.34,0.3,4.6,0.25,6.94c-0.05,2.16-0.03,4.31,0.02,6.47c0.09,4.36,0.31,8.71,0.41,13.06c0.2,8.61,0.06,17.43-2.7,25.68
			c-0.67,1.99-1.49,3.91-2.49,5.76c-0.47,0.86-0.97,1.71-1.51,2.53c-0.2,0.3-0.39,0.61-0.61,0.89c0.27-0.34-0.19,0.2-0.28,0.29
			c-0.69,0.71-0.86,0.82-1.77,1.36c-0.97,0.58-1.69,0.89-2.62,1.23c-5.1,1.86-10.69,2.38-16.07,2.72
			c-13.21,0.84-26.46,0.05-39.68-0.19c-2.44-0.04-4.88-0.07-7.32,0C214.11,299.63,214.1,303.28,216.45,303.22L216.45,303.22z"/>
	</g>
</g>
<g>
	<g>
		<path d="M181.7,275.89c-0.47-5.95-5.28-10.66-11.05-11.81c-6.29-1.25-12.2,2-15.55,7.29c-1.9,3-2.89,6.56-2.9,10.1
			c1.17-0.49,2.34-0.97,3.52-1.46c-3.52-3.23-8.7-4.24-13.12-2.32c-4.37,1.9-7.19,6.48-7.15,11.21c0.87-0.66,1.74-1.32,2.61-1.99
			c-4.84-1.62-10.74-0.31-14.17,3.58c-3.35,3.8-3.87,9.55-1.32,13.93c3.23,5.56,9.85,5.84,15.58,6.13
			c6.93,0.35,13.86,0.3,20.79,0.36c3.39,0.03,6.79,0.17,10.18,0.11c3.36-0.07,6.72-0.31,10.08-0.4c6.4-0.18,12.76,1.15,19.14,0.46
			c5.74-0.61,11.92-2.56,15.88-6.99c3.55-3.97,4.14-9.22,2.01-14.04c-2.27-5.14-7.5-8.52-13.15-8.24
			c-5.78,0.29-11.21,3.77-13.93,8.88c-1.24,2.34,2.31,4.43,3.56,2.08c3.69-6.95,14.32-9.89,19.06-2.34c2,3.18,2.31,7.24-0.09,10.31
			c-3,3.83-8.27,5.6-12.93,6.18c-5.45,0.68-10.77-0.39-16.21-0.45c-5.92-0.07-11.82,0.54-17.75,0.41
			c-5.98-0.13-11.96-0.08-17.94-0.17c-2.91-0.04-5.81-0.12-8.72-0.27c-2.74-0.14-5.61-0.14-8.23-1.05
			c-4.09-1.43-5.94-6.23-4.24-10.18c1.83-4.25,7.17-5.7,11.29-4.32c1.28,0.43,2.62-0.71,2.61-1.99c-0.02-3.1,1.75-6.14,4.62-7.44
			c2.83-1.28,6.35-0.62,8.62,1.46c1.29,1.19,3.51,0.38,3.52-1.46c0.01-5.84,3.67-12.11,9.68-13.41c4.93-1.07,11.15,2.54,11.57,7.83
			C177.79,278.51,181.91,278.54,181.7,275.89L181.7,275.89z"/>
	</g>
</g>
<g>
	<g>
		<path d="M205.51,280.51c-4.29-8.39-14.95-11.75-23.55-8.22c-1.03,0.42-1.76,1.37-1.44,2.53c0.27,0.97,1.5,1.86,2.53,1.44
			c6.9-2.83,15.31-0.66,18.89,6.33C203.16,284.96,206.71,282.87,205.51,280.51L205.51,280.51z"/>
	</g>
</g>
<line class="st3" x1="225.78" y1="264.3" x2="225.78" y2="261.81"/>
<g>
	<path class="st4" d="M227.68,232.58c-0.09-3.03,3.24-6.18,5.12-8.56s4.09-4.53,5.49-7.22c2.76-5.33,1.74-12.2-1.95-16.92
		c-3.69-4.73-9.73-7.34-15.73-7.48c-2.88-0.07-5.75,0.39-8.59,0.85c-2.73,0.44-5.49,0.89-8.06,1.95c-4.67,1.92-8.33,5.66-11.75,9.37
		c-2.04,2.22-4.07,4.49-5.52,7.14c-1.28,2.33-2.07,4.9-2.57,7.51c-2.43,12.84,2.68,26.4,11.55,35.99
		c4.59,4.97,10.38,9.13,17.02,10.39c7.48,1.42,15.24-0.97,21.91-4.65c2.51-1.38,4.97-3,6.7-5.29c1.31-1.74,2.13-3.81,2.64-5.92
		c0.78-3.21,0.84-6.7-0.49-9.73c-1.33-3.02-4.24-5.47-7.54-5.64c-2.72-0.14-5.99,1.04-7.83-0.97"/>
	<g>
		<path d="M228.37,232.58c0.02-1.95,1.27-3.66,2.45-5.12c1.16-1.45,2.38-2.87,3.58-4.29c2.5-2.95,5.01-5.87,5.82-9.76
			c1.46-7.06-1.95-14.19-7.86-18.1c-2.93-1.94-6.35-3.09-9.83-3.47c-4.31-0.48-8.74,0.36-12.97,1.13
			c-4.11,0.74-7.79,2.13-11.12,4.69c-3.19,2.45-5.96,5.47-8.59,8.5c-2.69,3.11-4.76,6.49-5.85,10.49
			c-1.01,3.71-1.34,7.63-1.09,11.46c0.48,7.52,3.14,14.82,7.24,21.11c4.09,6.28,9.75,12.07,16.64,15.19
			c7.59,3.43,15.89,2.59,23.43-0.57c3.5-1.47,7.13-3.27,9.93-5.88c2.89-2.69,4.39-6.48,4.88-10.34c0.47-3.72-0.16-7.66-2.66-10.58
			c-2.3-2.69-5.33-3.54-8.75-3.26c-1.71,0.14-3.71,0.46-5.05-0.86c-0.63-0.62-1.6,0.35-0.97,0.97c2.17,2.16,5.26,1.12,7.97,1.16
			c3.76,0.06,6.72,3.11,7.73,6.55c1.1,3.76,0.4,8.2-1.34,11.67c-1.78,3.54-5.07,5.69-8.47,7.49c-6.85,3.62-14.91,5.85-22.58,3.69
			c-7.02-1.97-12.89-7.09-17.29-12.74c-4.38-5.61-7.51-12.26-8.8-19.27c-1.32-7.16-0.79-15.44,3.23-21.7
			c2.03-3.16,4.76-5.97,7.41-8.62c2.75-2.75,5.83-5.29,9.54-6.61c3.84-1.37,8.21-1.95,12.25-2.31c3.64-0.33,7.25,0,10.67,1.34
			c6.68,2.61,11.54,8.88,11.24,16.22c-0.32,7.66-7.2,11.87-10.89,17.88c-0.74,1.2-1.26,2.5-1.27,3.92
			C226.99,233.46,228.36,233.46,228.37,232.58L228.37,232.58z"/>
	</g>
</g>
<g>
	<path class="st5" d="M222.46,208.88c-2.12,0.12-4.02,1.96-4.2,4.08c-0.04,0.53,0.01,1.07,0.1,1.59c0.1,0.61,0.26,1.22,0.56,1.77
		c0.54,0.99,1.55,1.7,2.66,1.88c1.11,0.18,2.3-0.18,3.12-0.95c0.94-0.88,1.36-2.18,1.64-3.44c0.12-0.52,0.22-1.06,0.14-1.59
		c-0.13-0.95-0.81-1.72-1.48-2.42c-0.76-0.79-1.73-1.61-2.81-1.43L222.46,208.88z"/>
	<g>
		<path d="M222.46,208.2c-1.97,0.14-3.73,1.4-4.5,3.22c-0.43,1.02-0.46,2.07-0.29,3.15c0.17,1.09,0.52,2.14,1.28,2.96
			c1.46,1.59,3.98,1.86,5.75,0.61c0.87-0.62,1.44-1.51,1.83-2.49c0.38-0.98,0.74-2.18,0.67-3.24c-0.08-1.29-0.93-2.31-1.81-3.19
			c-0.84-0.85-1.92-1.67-3.18-1.52c-0.52,0.06-0.85,0.53-0.59,1.03c0.09,0.17,0.17,0.34,0.26,0.5c0.41,0.78,1.59,0.09,1.19-0.69
			c-0.09-0.17-0.17-0.34-0.26-0.5c-0.2,0.34-0.4,0.69-0.59,1.03c0.83-0.1,1.47,0.4,2.04,0.95c0.57,0.55,1.21,1.17,1.47,1.93
			c0.29,0.82-0.03,1.79-0.27,2.59c-0.22,0.74-0.53,1.49-1.07,2.07c-1.07,1.13-2.88,1.28-4.1,0.29c-0.64-0.52-0.98-1.23-1.16-2.02
			c-0.18-0.8-0.28-1.67-0.06-2.47c0.42-1.51,1.83-2.71,3.4-2.83C223.34,209.51,223.34,208.13,222.46,208.2z"/>
	</g>
</g>
<g>
	<path class="st1" d="M203.35,211.2c-0.96,1.21-1.3,2.9-0.84,4.37c0.46,1.47,1.73,2.68,3.24,3.01c1.51,0.33,3.19-0.24,4.15-1.45
		c1.06-1.34,1.15-3.18,1.1-4.88c-0.01-0.36-0.03-0.73-0.19-1.04c-0.15-0.29-0.4-0.51-0.65-0.72c-1.03-0.88-2.28-1.83-3.6-1.53
		c-0.46,0.1-0.86,0.35-1.26,0.6c-0.7,0.43-1.43,0.94-1.7,1.71L203.35,211.2z"/>
	<g>
		<path d="M202.75,210.86c-1.32,1.72-1.54,4.22-0.37,6.08c1.13,1.81,3.26,2.77,5.36,2.3c2.2-0.49,3.52-2.37,3.83-4.52
			c0.08-0.57,0.12-1.13,0.12-1.7c0-0.55,0.03-1.16-0.13-1.7c-0.29-1.04-1.47-1.84-2.35-2.39c-1.12-0.7-2.38-0.93-3.6-0.34
			c-1.11,0.54-2.23,1.33-2.69,2.51c0.28-0.16,0.56-0.32,0.84-0.48c-0.08-0.02-0.17-0.05-0.25-0.07c-0.85-0.25-1.21,1.07-0.37,1.32
			c0.08,0.02,0.17,0.05,0.25,0.07c0.38,0.11,0.71-0.14,0.84-0.48c0.28-0.72,1.15-1.18,1.78-1.54c0.78-0.44,1.51-0.36,2.28,0.07
			c0.37,0.21,0.71,0.46,1.04,0.73c0.32,0.26,0.76,0.55,0.88,0.96c0.11,0.37,0.07,0.8,0.08,1.18c0,0.46-0.01,0.92-0.06,1.37
			c-0.17,1.56-0.91,3.05-2.48,3.57c-1.47,0.48-3.04-0.03-3.99-1.24c-1.18-1.5-0.97-3.56,0.15-5.01c0.23-0.3,0.04-0.77-0.25-0.94
			C203.34,210.4,202.98,210.56,202.75,210.86z"/>
	</g>
</g>
<g>
	<path class="st6" d="M196.83,227.93c-0.76,1.09-0.9,2.58-0.37,3.79c0.53,1.22,1.72,2.12,3.04,2.3c0.38,0.05,0.77,0.05,1.14-0.07
		c1.07-0.34,1.61-1.53,1.87-2.62c0.33-1.38,0.3-3.07-0.82-3.95c-0.73-0.57-1.71-0.63-2.64-0.64c-0.56-0.01-1.24,0.06-1.51,0.56
		L196.83,227.93z"/>
	<g>
		<path d="M196.24,227.59c-1.04,1.55-1.05,3.71,0.06,5.23c1.06,1.45,3.23,2.51,4.97,1.63c1.52-0.78,2.07-2.86,2.11-4.44
			c0.02-0.84-0.14-1.75-0.62-2.45c-0.52-0.76-1.34-1.21-2.24-1.37c-0.9-0.15-2.1-0.29-2.93,0.17c-0.25,0.14-0.4,0.32-0.58,0.53
			c0.12-0.14-0.06,0.04-0.09,0.08c-0.19,0.16-0.37,0.33-0.56,0.49c-0.66,0.59,0.31,1.56,0.97,0.97c0.23-0.21,0.49-0.4,0.7-0.62
			c0.16-0.17,0.19-0.26,0.44-0.32c0.3-0.07,0.63-0.04,0.94-0.03c0.64,0.02,1.36,0.08,1.88,0.5c0.43,0.35,0.64,0.9,0.7,1.44
			c0.08,0.63,0,1.27-0.16,1.88c-0.14,0.57-0.35,1.19-0.77,1.63c-0.92,0.99-2.52,0.32-3.33-0.5c-1.09-1.11-1.16-2.84-0.3-4.11
			C197.92,227.54,196.73,226.86,196.24,227.59z"/>
	</g>
</g>
<g>
	<path class="st7" d="M204.13,239.71c-0.73,0.71-1.48,1.44-1.94,2.35c-0.47,0.91-0.62,2.04-0.13,2.94c0.59,1.09,1.93,1.54,3.17,1.69
		c0.51,0.06,1.04,0.09,1.51-0.1c0.94-0.38,1.37-1.45,1.7-2.41c0.26-0.75,0.51-1.58,0.21-2.31c-0.25-0.62-0.84-1.03-1.41-1.39
		c-0.88-0.56-1.98-1.11-2.91-0.64L204.13,239.71z"/>
	<g>
		<path d="M203.64,239.23c-1.25,1.22-2.55,2.61-2.58,4.47c-0.02,1.74,1.22,2.92,2.8,3.41c0.76,0.23,1.63,0.38,2.42,0.29
			c0.86-0.1,1.53-0.57,2.02-1.28c0.43-0.63,0.69-1.39,0.91-2.11c0.28-0.9,0.41-1.92-0.12-2.76c-0.48-0.77-1.34-1.3-2.12-1.72
			c-0.95-0.5-1.97-0.75-2.99-0.28c0.23,0,0.46,0,0.69,0c-0.07-0.04-0.13-0.08-0.2-0.12c-0.76-0.46-1.45,0.73-0.69,1.19
			c0.23,0.14,0.45,0.27,0.73,0.19c0.32-0.09,0.54-0.19,0.89-0.12c0.66,0.13,1.26,0.53,1.81,0.9c0.52,0.35,0.91,0.77,0.89,1.43
			c-0.03,0.65-0.31,1.35-0.56,1.95c-0.19,0.45-0.45,0.96-0.88,1.21c-0.52,0.31-1.22,0.18-1.78,0.07c-1.05-0.21-2.25-0.7-2.41-1.91
			c-0.21-1.58,1.14-2.85,2.16-3.84C205.25,239.58,204.28,238.61,203.64,239.23z"/>
	</g>
</g>
<g>
	<path class="st8" d="M216.07,266.04c1.46-4.25,2.68-8.85,5.15-12.6c1.58-2.4,3.35-4.66,5.12-6.93
		c5.91-7.56,11.82-15.11,17.72-22.67c0.91,1.47,2.36,2.59,4.01,3.1c-3.04,5.98-6.11,12-10.26,17.27
		c-3.45,4.39-7.61,8.23-10.59,12.95c-1.28,2.03-2.32,4.2-3.11,6.46c-0.64,1.83-1.25,3.91-2.94,4.87
		C219.18,269.62,216.42,268.32,216.07,266.04L216.07,266.04z"/>
	<g>
		<path d="M216.73,266.23c1.26-3.71,2.3-7.55,4.21-10.99c2.03-3.66,4.85-6.9,7.41-10.19c5.4-6.9,10.8-13.81,16.2-20.71
			c-0.36-0.05-0.72-0.09-1.08-0.14c1.07,1.64,2.57,2.79,4.42,3.41c-0.14-0.34-0.27-0.67-0.41-1.01c-2.21,4.35-4.43,8.71-7.08,12.81
			c-2.66,4.11-5.92,7.65-9.11,11.34c-3.01,3.47-5.65,7.14-7.35,11.43c-0.71,1.8-1.11,4.35-2.81,5.54c-1.71,1.2-3.99,0.09-4.39-1.86
			c-0.18-0.87-1.5-0.5-1.32,0.37c0.54,2.61,3.57,4.18,5.98,2.93c1.32-0.68,2.09-1.97,2.65-3.29c0.78-1.87,1.34-3.79,2.25-5.61
			c1.9-3.8,4.62-7.03,7.43-10.19c2.77-3.12,5.46-6.26,7.75-9.77c2.71-4.16,4.96-8.58,7.21-13c0.21-0.41,0.03-0.86-0.41-1.01
			c-1.51-0.51-2.73-1.45-3.6-2.78c-0.22-0.33-0.79-0.51-1.08-0.14c-5.6,7.17-11.21,14.33-16.81,21.5
			c-2.52,3.22-5.29,6.43-7.22,10.05c-1.84,3.45-2.89,7.26-4.14,10.95C215.12,266.7,216.44,267.06,216.73,266.23z"/>
	</g>
</g>
<g>
	<path class="st9" d="M244.1,224.32c-0.12-1.27,0.4-2.52,1.11-3.58c1.29-1.93,3.16-3.37,4.86-4.96c1.69-1.59,3.28-3.47,3.7-5.75
		c0.42,4.74,0.8,9.74-1.2,14.06c-0.41,0.89-0.93,1.75-1.69,2.38c-0.75,0.63-1.77,0.99-2.73,0.79L244.1,224.32z"/>
	<g>
		<path d="M244.79,224.32c-0.18-3.14,2.93-5.48,5.02-7.36c2.05-1.85,4.05-3.95,4.63-6.74c-0.45-0.06-0.9-0.12-1.35-0.18
			c0.23,2.64,0.45,5.3,0.26,7.94c-0.18,2.51-0.73,5.61-2.47,7.54c-0.54,0.6-1.67,1.4-2.5,1.06c-0.45-0.19-0.9-0.66-1.29-0.94
			c-0.88-0.64-1.76-1.27-2.64-1.91c-0.72-0.52-1.4,0.67-0.69,1.19c1.03,0.74,2.06,1.49,3.08,2.23c0.35,0.25,0.72,0.62,1.13,0.77
			c1.16,0.43,2.65-0.3,3.5-1.05c2.02-1.78,2.78-4.98,3.11-7.54c0.4-3.09,0.15-6.21-0.13-9.3c-0.06-0.72-1.18-1-1.35-0.18
			c-0.64,3.08-3.15,5.1-5.36,7.11c-2.08,1.89-4.51,4.31-4.34,7.36C243.47,225.19,244.84,225.2,244.79,224.32z"/>
	</g>
</g>
</svg>
