<?xml version="1.0" encoding="utf-8"?>
<!-- Generator: Adobe Illustrator 24.1.0, SVG Export Plug-In . SVG Version: 6.00 Build 0)  -->
<svg version="1.1" id="Ebene_1" xmlns="http://www.w3.org/2000/svg" xmlns:xlink="http://www.w3.org/1999/xlink" x="0px" y="0px"
	 viewBox="0 0 450 450" style="enable-background:new 0 0 450 450;" xml:space="preserve">
<style type="text/css">
	.st0{fill:#FDFCEF;}
	.st1{fill:#EF8F70;}
	.st2{fill:#C7EDE6;}
	.st3{fill:none;stroke:#000000;stroke-width:0.7029;stroke-miterlimit:10;}
	.st4{fill:#F6CCA4;}
	.st5{fill:#E73D52;}
	.st6{fill:#DCAA1C;}
	.st7{fill:#769CCA;}
	.st8{fill:#C29B67;}
	.st9{fill:#E9BF9A;}
</style>
<g>
	<path class="st0" d="M192.6,311.79c-6.48-12.94-21.96-15.63-32.58-11.18l-4.41,2.47c-0.63-10.27-12.56-17.55-22.49-14.89
		c-9.93,2.66-16.55,13.17-16.46,23.46c-4.33-4.13-11.21-5.33-16.69-2.9s-9.2,8.34-9.04,14.32c-7.09-2.5-15.83,0.05-19.94,6.34
		c-4.11,6.3-2.66,15.78,3.52,20.07c3.29,2.29,7.4,3.01,11.38,3.3c16.35,1.2,32.06,0.68,48.44,1.07c11.19,0.28,22.65-1.5,33.76-0.18
		c11.12,1.31,23,0.88,32.6-4.87c3.41-2.04,6.48-4.77,8.31-8.29c4.62-8.94-1.15-21.13-10.7-24.29c-1.72-0.57-3.5-0.86-5.28-0.91
		L192.6,311.79z"/>
</g>
<g>
	<path class="st0" d="M325.21,144.51c8.31-6.92,12.93-8.77,22.78-7.03c8,1.41,16.31,8.23,16.84,16.34c10.59-4.25,23-5.2,33.23-0.15
		c10.24,5.05,17.35,17,14.65,28.08l0.05,3.98c7.06,2.59,11.85,9.98,12.08,17.49c0.23,7.51-3.76,11.62-9.75,16.17
		c-9.18,6.96-26.44,5.74-37.95,5.85c-13.76,0.12-32.64,0.26-46.4,0.38h-5.54c-3.15-30.48,2.04-47.95-4.9-77.04L325.21,144.51z"/>
</g>
<g>
	<path class="st1" d="M122.13,294.46c0.14-41.49,0.28-89.56,0.4-131.04c-1.12-11.47,6.08-21.71,16.75-26.01
		c31.58-7.72,171.19-15.8,187.1,13.08c6.94,29.1,0.11,62.55,3.25,93.03c-1.41,29.25,6.49,63.49-10.82,88.7
		c-11.15,16.23-78.98,9.32-106.69,10.06c0,0-0.89-22.25-11.7-25.24c-10.82-3.01,0,0,0,0l-6.62-1.8c0,0-3.61-12.02-15.63-15.03
		c-12.02-3.01-22.25,0.6-22.25,0.6s-8.41-13.22-18.64-13.22C127.06,287.58,122.13,294.46,122.13,294.46"/>
</g>
<g>
	<path class="st2" d="M410.41,224.83c2.26,8.78,0.6,18.5-4.42,26.06c-1.31,1.97-2.9,3.99-2.93,6.36c-0.03,3.13,2.63,5.51,4.82,7.72
		c16.37,16.41,15.74,45.28,1.63,63.66c-14.11,18.38-38.75,26.65-61.86,25.01c-9.12,16.55-26.76,28.08-45.57,29.79
		c-18.81,1.7-38.25-6.45-50.19-21.08c-12.56,14.56-28.6,26.32-46.77,32.63s-38.45,6.99-56.59,0.63
		c-19.18-6.71-35.47-21.3-44.26-39.6c0,0,75.11,2.5,84.74,0.71s21.03-9.63,21.03-12.02c0-2.41,76.35,3.61,87.78-0.6
		c11.42-4.21,24.04-8.41,27.05-18.64c3.01-10.23,6.62-24.64,6.62-43.88s0.6-54.11,0.6-54.11s59.51,0,63.73,0
		C400.03,227.45,410.41,224.83,410.41,224.83z"/>
</g>
<g>
	<path class="st2" d="M87.66,318.13c-3.44-6.13-4.02-13.79-1.55-20.37c-16.47,2.67-34.07-2.86-46.06-14.46
		c-11.99-11.61-18.07-29.03-15.91-45.57c1.15-8.81,4.45-17.21,8.46-25.13c4.04-8,8.95-15.78,15.91-21.45s16.24-9,25.01-7.15
		c-0.72-17.43,7.09-35.21,21.05-45.68c13.96-10.46,33.78-12.88,49.44-5.2c0,0-16.14,7.57-18.53,16.38
		c-2.41,8.81-3.61,142.28-3.61,142.28s-4.01,9.61-4.41,13.22c-0.4,3.61-0.81,6.69-0.81,6.69s-5.2-4.68-11.61-4.28
		c-6.4,0.4-13.63,6.42-16.03,10.82C86.62,322.63,87.66,318.13,87.66,318.13z"/>
</g>
<g>
	<path class="st2" d="M355.01,133.41c-0.51-20.28-9.96-39.87-24.38-54.12S297.1,55.95,277.2,52.07
		c-28.43-5.54-60.2,0.15-81.17,20.14c-15.75,15-24.01,36.39-27.81,57.81c0,0,128-4.59,151.65,14.25c0,0,18.04-12.42,31.66-7.62
		L355.01,133.41z"/>
</g>
<g>
	<g>
		<path d="M327.44,146.25c2.7-2.24,5.63-4.62,8.98-5.8c3.18-1.12,6.51-1.07,9.81-0.57c6.76,1.04,14.79,5.94,15.43,13.43
			c0.15,1.83,1.92,3.87,4.01,3.06c10.24-4.04,22.62-5.36,32.49,0.45c7.94,4.67,13.63,14.28,11.5,23.6c-0.91,3.96,5.19,5.65,6.1,1.69
			c2.7-11.78-3.56-23.77-13.47-30.15c-11.3-7.29-26.24-6.42-38.31-1.66c1.34,1.01,2.67,2.03,4.01,3.06
			c-0.88-10.01-9.89-17.78-19.47-19.44c-4.42-0.77-9.03-1.07-13.36,0.32c-4.64,1.5-8.51,4.51-12.21,7.57
			c-1.32,1.09-1.12,3.35,0,4.47C324.27,147.55,326.12,147.35,327.44,146.25L327.44,146.25z"/>
	</g>
</g>
<g>
	<g>
		<path d="M395.96,193.72c4.21-7.35,14.6-8.14,20.53-2.49c3.1,2.98,5.07,7.19,5.2,11.5c0.12,3.99-1.37,7.22-4.18,10.01
			c-2.95,2.95-6.31,5.34-10.3,6.62c-4.31,1.37-8.83,1.86-13.34,2.09c-9.15,0.46-18.36,0.17-27.51,0.25
			c-11.87,0.09-23.74,0.18-35.6,0.29c-4.07,0.03-4.08,6.37,0,6.33c11.87-0.11,23.74-0.2,35.6-0.29c10.36-0.09,20.9,0.45,31.21-0.49
			c5.2-0.48,10.39-1.37,15.17-3.55c4.39-2.01,8.57-5.5,11.5-9.32c6.54-8.54,4.05-21.26-3.67-28.25c-8.89-8.05-23.92-6.6-30.06,4.13
			C388.47,194.06,393.93,197.25,395.96,193.72L395.96,193.72z"/>
	</g>
</g>
<g>
	<g>
		<path d="M138.42,284.29c0.09-27.04,0.17-54.08,0.26-81.11c0.02-6.71,0.05-13.42,0.06-20.13c0.02-3.29,0.15-6.6,0.03-9.89
			c-0.09-2.53-0.05-4.85,0.69-7.31c1.4-4.64,4.64-8.6,8.72-11.16c2.41-1.5,4.68-2.09,7.4-2.61c11.61-2.2,23.48-3.18,35.37-3.99
			c15.98-1.09,32.01-1.55,48.04-1.24c15,0.29,30.17,1.11,44.94,3.95c5.7,1.09,11.42,2.47,16.78,4.73c1.66,0.69,3.98,1.87,5.73,3.06
			c1.01,0.68,1.09,0.74,2.01,1.58c0.32,0.29,0.61,0.58,0.91,0.91c0.18,0.2,0.95,1.15,0.64,0.74c1.03,1.4,1.15,3.02,1.47,4.73
			c0.58,3.12,1,6.28,1.29,9.44c0.58,6.46,0.66,12.97,0.57,19.47c-0.18,13.19-1.15,26.36-0.52,39.55c0.15,3.13,0.6,6.26,0.49,9.4
			c-0.11,2.87-0.12,5.74-0.11,8.61c0.03,5.88,0.23,11.76,0.31,17.64c0.14,11.5-0.11,23.2-3.38,34.32c-0.8,2.75-1.78,5.45-2.99,8.03
			c-0.94,2-1.87,4.28-3.44,5.88c-1.84,1.87-4.27,3.18-6.8,4.1c-7.05,2.59-14.79,3.13-22.23,3.35c-17.24,0.52-34.42-1.6-51.65-1.26
			c-3.24,0.06-6.46,0.28-9.67,0.74c-1.31,0.2-2,1.83-1.69,2.99c0.37,1.4,1.69,1.89,2.99,1.69c7.09-1.04,14.82-0.63,22.08-0.34
			c9.18,0.35,18.35,0.92,27.53,1.07c8.64,0.15,17.38,0.02,25.9-1.49c6.23-1.09,13.23-3.12,17.56-8.06c1.77-2.01,2.93-4.67,4.02-7.08
			c1.21-2.72,2.26-5.5,3.1-8.35c1.66-5.63,2.55-11.48,3.06-17.33c1.04-12.16,0.23-24.37,0.18-36.54c-0.02-2.96,0.02-5.94,0.15-8.91
			c0.14-3.25-0.45-6.62-0.58-9.87c-0.26-6.69-0.14-13.39,0.08-20.08c0.4-13.4,1.18-26.9-0.34-40.27c-0.37-3.24-0.84-6.46-1.52-9.66
			c-0.35-1.69-0.74-3.02-1.75-4.39c-1.35-1.81-3.01-3.27-4.85-4.56c-4.24-2.96-9.29-4.77-14.22-6.2
			c-14.02-4.07-28.94-5.28-43.47-6.02c-16.66-0.83-33.36-0.64-50.01,0.18c-13.76,0.69-27.54,1.73-41.18,3.76
			c-2.33,0.35-4.65,0.72-6.97,1.18c-3.33,0.66-6.25,1.81-9.04,3.84c-4.25,3.07-7.52,7.22-9.29,12.16
			c-1.92,5.4-1.18,11.36-1.21,16.98c-0.09,27.94-0.17,55.89-0.26,83.85c-0.02,6.63-0.05,13.27-0.06,19.9
			C133.55,287.42,138.4,287.42,138.42,284.29L138.42,284.29z"/>
	</g>
</g>
<g>
	<path class="st0" d="M135.98,284.29c0.12-35.94,0.23-75.19,0.35-111.13c-0.97-9.95,5.27-18.82,14.51-22.54
		c27.38-6.68,148.36-13.68,162.15,11.33c6,25.21,0.09,54.21,2.83,80.62c-1.23,25.35,4.44,54.24-9.38,76.86
		c-13.23,16.75-69.75,5.28-92.46,8.71c0,0-10.73-14.8-20.16-12.96c0,0,1.11-18.03-25.59-16.23c0,0-7.46-3.62-12.27,1.8
		c0,0-12.65-15.98-16.31-16.23C135.99,284.28,135.98,284.29,135.98,284.29z"/>
</g>
<g>
	<g>
		<path d="M145.42,130.66c-13.16-6.33-28.57-6.33-41.96-0.66c-13.34,5.65-23.34,16.84-28.67,30.2c-2.99,7.51-4.38,15.68-4.08,23.75
			c1.18-0.91,2.36-1.8,3.55-2.7c-12.7-2.49-24.98,3.79-33.23,13.2c-4.18,4.77-7.52,10.21-10.41,15.83
			c-3.13,6.1-5.91,12.47-7.68,19.12c-6.39,24.01,3.56,50.45,24.98,63.44c11.64,7.05,25.52,9.69,38.92,7.6
			c-1.15-1.15-2.3-2.3-3.44-3.44c-2.67,7.4-1.92,15.65,1.83,22.52c1.72,3.16,6.56,0.34,4.84-2.83c-3.07-5.65-3.44-12.19-1.26-18.21
			c0.8-2.23-1.55-3.75-3.44-3.44c-21.46,3.35-43.36-7.89-53.2-27.19c-4.88-9.58-6.82-20.85-5.02-31.49
			c2-11.76,7.43-23.43,14.17-33.21c6.92-10.03,18.52-19.04,31.44-16.51c1.7,0.34,3.62-0.77,3.55-2.7
			c-0.46-12.74,3.61-25.73,11.78-35.62c8.31-10.04,20.47-16.24,33.5-16.9c7.22-0.37,14.46,0.91,20.99,4.05
			C145.83,137.07,148.67,132.23,145.42,130.66L145.42,130.66z"/>
	</g>
</g>
<g>
	<g>
		<path d="M357.81,133.41c-0.55-18.65-8.12-36.48-20.13-50.64c-12.19-14.37-28.97-24.44-46.83-30.12
			c-33.41-10.62-74.39-6.23-99.46,20.22c-14.54,15.34-22.2,35.88-25.87,56.38c-0.63,3.53,4.76,5.04,5.4,1.49
			c3.1-17.33,8.94-34.75,19.94-48.73C201.31,68.74,216,59.96,232.26,55.8c33.19-8.48,71.92,1.23,96.39,25.44
			c13.88,13.74,22.97,32.49,23.55,52.14C352.31,137.02,357.91,137.03,357.81,133.41L357.81,133.41z"/>
	</g>
</g>
<g>
	<g>
		<path d="M357.81,133.41c-0.55-18.65-8.12-36.48-20.13-50.64c-12.19-14.37-28.97-24.44-46.83-30.12
			c-33.41-10.62-74.39-6.23-99.46,20.22c-14.54,15.34-22.2,35.88-25.87,56.38c-0.63,3.53,4.76,5.04,5.4,1.49
			c3.1-17.33,8.94-34.75,19.94-48.73C201.31,68.74,216,59.96,232.26,55.8c33.19-8.48,71.92,1.23,96.39,25.44
			c13.88,13.74,22.97,32.49,23.55,52.14C352.31,137.02,357.91,137.03,357.81,133.41L357.81,133.41z"/>
	</g>
</g>
<g>
	<g>
		<path d="M357.81,133.41c-0.55-18.65-8.12-36.48-20.13-50.64c-12.19-14.37-28.97-24.44-46.83-30.12
			c-33.41-10.62-74.39-6.23-99.46,20.22c-14.54,15.34-22.2,35.88-25.87,56.38c-0.63,3.53,4.76,5.04,5.4,1.49
			c3.1-17.33,8.94-34.75,19.94-48.73C201.31,68.74,216,59.96,232.26,55.8c33.19-8.48,71.92,1.23,96.39,25.44
			c13.88,13.74,22.97,32.49,23.55,52.14C352.31,137.02,357.91,137.03,357.81,133.41L357.81,133.41z"/>
	</g>
</g>
<g>
	<g>
		<path d="M407.71,225.58c1.55,6.29,1.04,13-1.47,18.99c-2.38,5.68-8.34,10.59-4.76,17.15c1.37,2.49,3.64,4.33,5.54,6.39
			c1.8,1.97,3.35,4.11,4.68,6.43c2.69,4.65,4.36,9.83,5.16,15.12c1.58,10.61-0.52,21.89-5.67,31.28
			c-5.53,10.09-14.62,17.75-24.86,22.77c-11.93,5.85-25.47,8.03-38.68,7.14c-0.95-0.06-1.97,0.57-2.43,1.38
			c-6.8,12.19-18.22,21.57-31.49,25.92c-13.53,4.44-28.37,3.25-41.15-3.01c-7.25-3.56-13.6-8.54-18.73-14.77
			c-0.92-1.11-3.04-1.06-3.96,0c-14.83,17.12-34.42,30.31-56.78,35.02c-22.43,4.73-46.35,0.32-64.59-13.85
			c-9.26-7.19-16.74-16.43-21.85-26.96c-1.57-3.24-6.4-0.4-4.84,2.83c9.64,19.9,27.71,35.39,48.87,41.85
			c24.2,7.39,50.76,2.92,72.5-9.47c11.59-6.6,21.92-15.38,30.66-25.46c-1.32,0-2.64,0-3.96,0c9.98,12.08,24.63,19.74,40.12,21.68
			c15.26,1.9,30.95-2.59,43.21-11.82c6.86-5.17,12.65-11.62,16.84-19.13c-0.81,0.46-1.61,0.92-2.43,1.38
			c24.5,1.66,51.07-7.43,65.54-28.13c13.11-18.75,13.63-47.14-2.41-64.36c-1.75-1.87-5.53-4.42-4.82-7.39
			c0.38-1.66,1.7-3.12,2.61-4.51c1.04-1.61,1.92-3.3,2.67-5.07c3.09-7.23,3.73-15.25,1.86-22.89
			C412.25,220.59,406.85,222.06,407.71,225.58L407.71,225.58z"/>
	</g>
</g>
<g>
	<g>
		<path d="M212.13,345.06c19.61-0.49,39.21,1.12,58.83,0.8c10.06-0.15,20.21-0.61,30.11-2.44c6.48-1.2,14.32-3.06,18.92-8.2
			c3.96-4.44,6.53-10.56,8.44-16.12c2.2-6.34,3.35-13,3.99-19.68c1.34-13.82,0.23-27.71-0.08-41.55c-0.08-3.41-0.11-6.83-0.03-10.24
			c0.03-1.6,0.18-3.21,0.08-4.81c-0.14-2.06-0.35-4.11-0.48-6.19c-0.46-7.83-0.38-15.68-0.17-23.51c0.41-15.75,1.46-31.6-0.06-47.34
			c-0.37-3.84-0.88-7.68-1.6-11.48c-0.45-2.33-0.74-4.67-2.12-6.63c-1.5-2.12-3.38-3.84-5.47-5.36c-4.87-3.53-10.78-5.68-16.51-7.35
			c-16.37-4.79-33.79-6.2-50.74-7.05c-19.51-0.97-39.09-0.72-58.59,0.29c-15.94,0.81-31.9,2.06-47.69,4.5
			c-2.61,0.4-5.24,0.84-7.83,1.4c-4.5,0.94-8.44,3.24-11.9,6.25c-4.56,3.99-7.94,9.57-9.07,15.54c-0.6,3.19-0.4,6.26-0.4,9.49
			c-0.02,3.82-0.03,7.63-0.03,11.45c-0.11,31.74-0.18,63.47-0.29,95.21c-0.03,7.46-0.05,14.92-0.08,22.39
			c-0.02,3.61,5.59,3.61,5.6,0c0.11-30.74,0.18-61.48,0.28-92.21c0.03-7.66,0.05-15.32,0.08-22.98c0.02-3.73,0.03-7.45,0.03-11.18
			c0.02-3.21-0.35-6.54,0.06-9.72c0.72-5.57,3.76-10.56,7.98-14.19c2.99-2.56,6.25-4.04,10.04-4.81
			c13.28-2.67,26.65-3.76,40.46-4.74c18.69-1.34,37.43-1.9,56.16-1.57c17.61,0.31,35.41,1.23,52.74,4.56
			c6.65,1.27,13.34,2.89,19.59,5.53c-0.41-0.17,0.38,0.17,0.54,0.25c0.31,0.14,0.63,0.29,0.94,0.43c0.68,0.32,1.35,0.66,2,1.01
			c1.09,0.58,2.15,1.21,3.18,1.92c0.25,0.17,0.48,0.34,0.72,0.51c0.63,0.45-0.08-0.08,0.28,0.21c0.45,0.37,0.89,0.74,1.32,1.14
			c0.38,0.35,0.75,0.72,1.09,1.12c0.17,0.18,0.34,0.38,0.49,0.57c0.38,0.46-0.23-0.35,0.18,0.25c1.24,1.81,1.35,4.13,1.73,6.28
			c0.64,3.65,1.09,7.34,1.4,11.04c0.63,7.63,0.66,15.31,0.52,22.97c-0.28,15.38-1.38,30.78-0.46,46.17
			c0.21,3.59,0.46,7.06,0.38,10.66c-0.08,3.32-0.05,6.62,0.03,9.93c0.14,6.69,0.48,13.37,0.63,20.05
			c0.31,13.22,0.09,26.76-4.15,39.43c-1.03,3.06-2.29,6-3.82,8.84c-0.72,1.32-1.49,2.63-2.32,3.88c-0.31,0.46-0.6,0.94-0.94,1.37
			c0.41-0.52-0.29,0.31-0.43,0.45c-1.06,1.09-1.32,1.26-2.72,2.09c-1.49,0.89-2.59,1.37-4.02,1.89c-7.83,2.86-16.41,3.65-24.67,4.18
			c-20.28,1.29-40.63,0.08-60.92-0.29c-3.75-0.06-7.49-0.11-11.24,0C208.54,339.55,208.52,345.15,212.13,345.06L212.13,345.06z"/>
	</g>
</g>
<g>
	<g>
		<path d="M158.78,303.1c-0.72-9.14-8.11-16.37-16.97-18.13c-9.66-1.92-18.73,3.07-23.87,11.19c-2.92,4.61-4.44,10.07-4.45,15.51
			c1.8-0.75,3.59-1.49,5.4-2.24c-5.4-4.96-13.36-6.51-20.14-3.56c-6.71,2.92-11.04,9.95-10.98,17.21c1.34-1.01,2.67-2.03,4.01-3.06
			c-7.43-2.49-16.49-0.48-21.76,5.5c-5.14,5.83-5.94,14.66-2.03,21.39c4.96,8.54,15.12,8.97,23.92,9.41
			c10.64,0.54,21.28,0.46,31.92,0.55c5.2,0.05,10.43,0.26,15.63,0.17c5.16-0.11,10.32-0.48,15.48-0.61
			c9.83-0.28,19.59,1.77,29.39,0.71c8.81-0.94,18.3-3.93,24.38-10.73c5.45-6.1,6.36-14.16,3.09-21.56
			c-3.49-7.89-11.52-13.08-20.19-12.65c-8.87,0.45-17.21,5.79-21.39,13.63c-1.9,3.59,3.55,6.8,5.47,3.19
			c5.67-10.67,21.99-15.18,29.26-3.59c3.07,4.88,3.55,11.12-0.14,15.83c-4.61,5.88-12.7,8.6-19.85,9.49
			c-8.37,1.04-16.54-0.6-24.89-0.69c-9.09-0.11-18.15,0.83-27.25,0.63c-9.18-0.2-18.36-0.12-27.54-0.26
			c-4.47-0.06-8.92-0.18-13.39-0.41c-4.21-0.21-8.61-0.21-12.64-1.61c-6.28-2.2-9.12-9.57-6.51-15.63
			c2.81-6.53,11.01-8.75,17.33-6.63c1.97,0.66,4.02-1.09,4.01-3.06c-0.03-4.76,2.69-9.43,7.09-11.42c4.35-1.97,9.75-0.95,13.23,2.24
			c1.98,1.83,5.39,0.58,5.4-2.24c0.02-8.97,5.63-18.59,14.86-20.59c7.57-1.64,17.12,3.9,17.76,12.02
			C152.77,307.12,159.1,307.17,158.78,303.1L158.78,303.1z"/>
	</g>
</g>
<g>
	<g>
		<path d="M195.33,310.19c-6.59-12.88-22.95-18.04-36.16-12.62c-1.58,0.64-2.7,2.1-2.21,3.88c0.41,1.49,2.3,2.86,3.88,2.21
			c10.59-4.35,23.51-1.01,29,9.72C191.73,317.03,197.18,313.82,195.33,310.19L195.33,310.19z"/>
	</g>
</g>
<line class="st3" x1="226.46" y1="285.3" x2="226.46" y2="281.48"/>
<g>
	<path class="st4" d="M229.37,236.6c-0.14-4.65,4.97-9.49,7.86-13.14s6.28-6.96,8.43-11.09c4.24-8.18,2.67-18.73-2.99-25.98
		c-5.67-7.26-14.94-11.27-24.15-11.48c-4.42-0.11-8.83,0.6-13.19,1.31c-4.19,0.68-8.43,1.37-12.38,2.99
		c-7.17,2.95-12.79,8.69-18.04,14.39c-3.13,3.41-6.25,6.89-8.48,10.96c-1.97,3.58-3.18,7.52-3.95,11.53
		c-3.73,19.71,4.11,40.53,17.73,55.26c7.05,7.63,15.94,14.02,26.13,15.95c11.48,2.18,23.4-1.49,33.64-7.14
		c3.85-2.12,7.63-4.61,10.29-8.12c2.01-2.67,3.27-5.85,4.05-9.09c1.2-4.93,1.29-10.29-0.75-14.94c-2.04-4.64-6.51-8.4-11.58-8.66
		c-4.18-0.21-9.2,1.6-12.02-1.49"/>
	<g>
		<path d="M230.43,236.6c0.03-2.99,1.95-5.62,3.76-7.86c1.78-2.23,3.65-4.41,5.5-6.59c3.84-4.53,7.69-9.01,8.94-14.99
			c2.24-10.84-2.99-21.79-12.07-27.79c-4.5-2.98-9.75-4.74-15.09-5.33c-6.62-0.74-13.42,0.55-19.91,1.73
			c-6.31,1.14-11.96,3.27-17.07,7.2c-4.9,3.76-9.15,8.4-13.19,13.05c-4.13,4.77-7.31,9.96-8.98,16.11
			c-1.55,5.7-2.06,11.71-1.67,17.6c0.74,11.55,4.82,22.75,11.12,32.41c6.28,9.64,14.97,18.53,25.55,23.32
			c11.65,5.27,24.4,3.98,35.97-0.88c5.37-2.26,10.95-5.02,15.25-9.03c4.44-4.13,6.74-9.95,7.49-15.88
			c0.72-5.71-0.25-11.76-4.08-16.24c-3.53-4.13-8.18-5.44-13.43-5.01c-2.63,0.21-5.7,0.71-7.75-1.32c-0.97-0.95-2.46,0.54-1.49,1.49
			c3.33,3.32,8.08,1.72,12.24,1.78c5.77,0.09,10.32,4.77,11.87,10.06c1.69,5.77,0.61,12.59-2.06,17.92c-2.73,5.44-7.78,8.74-13,11.5
			c-10.52,5.56-22.89,8.98-34.67,5.67c-10.78-3.02-19.79-10.89-26.55-19.56c-6.72-8.61-11.53-18.82-13.51-29.59
			c-2.03-10.99-1.21-23.71,4.96-33.32c3.12-4.85,7.31-9.17,11.38-13.23c4.22-4.22,8.95-8.12,14.65-10.15
			c5.9-2.1,12.61-2.99,18.81-3.55c5.59-0.51,11.13,0,16.38,2.06c10.26,4.01,17.72,13.63,17.26,24.9
			c-0.49,11.76-11.05,18.22-16.72,27.45c-1.14,1.84-1.93,3.84-1.95,6.02C228.31,237.95,230.42,237.95,230.43,236.6L230.43,236.6z"/>
	</g>
</g>
<g>
	<path class="st5" d="M221.36,200.21c-3.25,0.18-6.17,3.01-6.45,6.26c-0.06,0.81,0.02,1.64,0.15,2.44c0.15,0.94,0.4,1.87,0.86,2.72
		c0.83,1.52,2.38,2.61,4.08,2.89c1.7,0.28,3.53-0.28,4.79-1.46c1.44-1.35,2.09-3.35,2.52-5.28c0.18-0.8,0.34-1.63,0.21-2.44
		c-0.2-1.46-1.24-2.64-2.27-3.72c-1.17-1.21-2.66-2.47-4.31-2.2L221.36,200.21z"/>
	<g>
		<path d="M221.36,199.17c-3.02,0.21-5.73,2.15-6.91,4.94c-0.66,1.57-0.71,3.18-0.45,4.84c0.26,1.67,0.8,3.29,1.97,4.54
			c2.24,2.44,6.11,2.86,8.83,0.94c1.34-0.95,2.21-2.32,2.81-3.82c0.58-1.5,1.14-3.35,1.03-4.97c-0.12-1.98-1.43-3.55-2.78-4.9
			c-1.29-1.31-2.95-2.56-4.88-2.33c-0.8,0.09-1.31,0.81-0.91,1.58c0.14,0.26,0.26,0.52,0.4,0.77c0.63,1.2,2.44,0.14,1.83-1.06
			c-0.14-0.26-0.26-0.52-0.4-0.77c-0.31,0.52-0.61,1.06-0.91,1.58c1.27-0.15,2.26,0.61,3.13,1.46c0.88,0.84,1.86,1.8,2.26,2.96
			c0.45,1.26-0.05,2.75-0.41,3.98c-0.34,1.14-0.81,2.29-1.64,3.18c-1.64,1.73-4.42,1.97-6.29,0.45c-0.98-0.8-1.5-1.89-1.78-3.1
			c-0.28-1.23-0.43-2.56-0.09-3.79c0.64-2.32,2.81-4.16,5.22-4.35C222.71,201.18,222.71,199.06,221.36,199.17z"/>
	</g>
</g>
<g>
	<path class="st1" d="M192.02,203.78c-1.47,1.86-2,4.45-1.29,6.71c0.71,2.26,2.66,4.11,4.97,4.62c2.32,0.51,4.9-0.37,6.37-2.23
		c1.63-2.06,1.77-4.88,1.69-7.49c-0.02-0.55-0.05-1.12-0.29-1.6c-0.23-0.45-0.61-0.78-1-1.11c-1.58-1.35-3.5-2.81-5.53-2.35
		c-0.71,0.15-1.32,0.54-1.93,0.92c-1.07,0.66-2.2,1.44-2.61,2.63L192.02,203.78z"/>
	<g>
		<path d="M191.1,203.25c-2.03,2.64-2.36,6.48-0.57,9.33c1.73,2.78,5.01,4.25,8.23,3.53c3.38-0.75,5.4-3.64,5.88-6.94
			c0.12-0.88,0.18-1.73,0.18-2.61c0-0.84,0.05-1.78-0.2-2.61c-0.45-1.6-2.26-2.83-3.61-3.67c-1.72-1.07-3.65-1.43-5.53-0.52
			c-1.7,0.83-3.42,2.04-4.13,3.85c0.43-0.25,0.86-0.49,1.29-0.74c-0.12-0.03-0.26-0.08-0.38-0.11c-1.31-0.38-1.86,1.64-0.57,2.03
			c0.12,0.03,0.26,0.08,0.38,0.11c0.58,0.17,1.09-0.21,1.29-0.74c0.43-1.11,1.77-1.81,2.73-2.36c1.2-0.68,2.32-0.55,3.5,0.11
			c0.57,0.32,1.09,0.71,1.6,1.12c0.49,0.4,1.17,0.84,1.35,1.47c0.17,0.57,0.11,1.23,0.12,1.81c0,0.71-0.02,1.41-0.09,2.1
			c-0.26,2.4-1.4,4.68-3.81,5.48c-2.26,0.74-4.67-0.05-6.13-1.9c-1.81-2.3-1.49-5.47,0.23-7.69c0.35-0.46,0.06-1.18-0.38-1.44
			C192,202.55,191.45,202.79,191.1,203.25z"/>
	</g>
</g>
<g>
	<path class="st6" d="M182.01,229.46c-1.17,1.67-1.38,3.96-0.57,5.82c0.81,1.87,2.64,3.25,4.67,3.53c0.58,0.08,1.18,0.08,1.75-0.11
		c1.64-0.52,2.47-2.35,2.87-4.02c0.51-2.12,0.46-4.71-1.26-6.06c-1.12-0.88-2.63-0.97-4.05-0.98c-0.86-0.02-1.9,0.09-2.32,0.86
		L182.01,229.46z"/>
	<g>
		<path d="M181.1,228.94c-1.6,2.38-1.61,5.7,0.09,8.03c1.63,2.23,4.96,3.85,7.63,2.5c2.33-1.2,3.18-4.39,3.24-6.82
			c0.03-1.29-0.21-2.69-0.95-3.76c-0.8-1.17-2.06-1.86-3.44-2.1c-1.38-0.23-3.22-0.45-4.5,0.26c-0.38,0.21-0.61,0.49-0.89,0.81
			c0.18-0.21-0.09,0.06-0.14,0.12c-0.29,0.25-0.57,0.51-0.86,0.75c-1.01,0.91,0.48,2.4,1.49,1.49c0.35-0.32,0.75-0.61,1.07-0.95
			c0.25-0.26,0.29-0.4,0.68-0.49c0.46-0.11,0.97-0.06,1.44-0.05c0.98,0.03,2.09,0.12,2.89,0.77c0.66,0.54,0.98,1.38,1.07,2.21
			c0.12,0.97,0,1.95-0.25,2.89c-0.21,0.88-0.54,1.83-1.18,2.5c-1.41,1.52-3.87,0.49-5.11-0.77c-1.67-1.7-1.78-4.36-0.46-6.31
			C183.68,228.86,181.85,227.82,181.1,228.94z"/>
	</g>
</g>
<g>
	<path class="st7" d="M193.22,247.55c-1.12,1.09-2.27,2.21-2.98,3.61c-0.72,1.4-0.95,3.13-0.2,4.51c0.91,1.67,2.96,2.36,4.87,2.59
		c0.78,0.09,1.6,0.14,2.32-0.15c1.44-0.58,2.1-2.23,2.61-3.7c0.4-1.15,0.78-2.43,0.32-3.55c-0.38-0.95-1.29-1.58-2.16-2.13
		c-1.35-0.86-3.04-1.7-4.47-0.98L193.22,247.55z"/>
	<g>
		<path d="M192.46,246.81c-1.92,1.87-3.92,4.01-3.96,6.86c-0.03,2.67,1.87,4.48,4.3,5.24c1.17,0.35,2.5,0.58,3.72,0.45
			c1.32-0.15,2.35-0.88,3.1-1.97c0.66-0.97,1.06-2.13,1.4-3.24c0.43-1.38,0.63-2.95-0.18-4.24c-0.74-1.18-2.06-2-3.25-2.64
			c-1.46-0.77-3.02-1.15-4.59-0.43c0.35,0,0.71,0,1.06,0c-0.11-0.06-0.2-0.12-0.31-0.18c-1.17-0.71-2.23,1.12-1.06,1.83
			c0.35,0.21,0.69,0.41,1.12,0.29c0.49-0.14,0.83-0.29,1.37-0.18c1.01,0.2,1.93,0.81,2.78,1.38c0.8,0.54,1.4,1.18,1.37,2.2
			c-0.05,1-0.48,2.07-0.86,2.99c-0.29,0.69-0.69,1.47-1.35,1.86c-0.8,0.48-1.87,0.28-2.73,0.11c-1.61-0.32-3.45-1.07-3.7-2.93
			c-0.32-2.43,1.75-4.38,3.32-5.9C194.94,247.35,193.45,245.86,192.46,246.81z"/>
	</g>
</g>
<g>
	<path class="st8" d="M211.55,287.98c2.24-6.53,4.11-13.59,7.91-19.35c2.43-3.68,5.14-7.15,7.86-10.64
		c9.07-11.61,18.15-23.2,27.21-34.81c1.4,2.26,3.62,3.98,6.16,4.76c-4.67,9.18-9.38,18.42-15.75,26.52
		c-5.3,6.74-11.68,12.64-16.26,19.88c-1.97,3.12-3.56,6.45-4.77,9.92c-0.98,2.81-1.92,6-4.51,7.48
		C216.32,293.47,212.09,291.48,211.55,287.98L211.55,287.98z"/>
	<g>
		<path d="M212.56,288.27c1.93-5.7,3.53-11.59,6.46-16.87c3.12-5.62,7.45-10.59,11.38-15.65c8.29-10.59,16.58-21.2,24.87-31.8
			c-0.55-0.08-1.11-0.14-1.66-0.21c1.64,2.52,3.95,4.28,6.79,5.24c-0.21-0.52-0.41-1.03-0.63-1.55c-3.39,6.68-6.8,13.37-10.87,19.67
			c-4.08,6.31-9.09,11.75-13.99,17.41c-4.62,5.33-8.67,10.96-11.28,17.55c-1.09,2.76-1.7,6.68-4.31,8.51
			c-2.63,1.84-6.13,0.14-6.74-2.86c-0.28-1.34-2.3-0.77-2.03,0.57c0.83,4.01,5.48,6.42,9.18,4.5c2.03-1.04,3.21-3.02,4.07-5.05
			c1.2-2.87,2.06-5.82,3.45-8.61c2.92-5.83,7.09-10.79,11.41-15.65c4.25-4.79,8.38-9.61,11.9-15c4.16-6.39,7.62-13.17,11.07-19.96
			c0.32-0.63,0.05-1.32-0.63-1.55c-2.32-0.78-4.19-2.23-5.53-4.27c-0.34-0.51-1.21-0.78-1.66-0.21c-8.6,11.01-17.21,22-25.81,33.01
			c-3.87,4.94-8.12,9.87-11.09,15.43c-2.83,5.3-4.44,11.15-6.36,16.81C210.09,288.99,212.12,289.54,212.56,288.27z"/>
	</g>
</g>
<g>
	<path class="st9" d="M254.58,223.92c-0.18-1.95,0.61-3.87,1.7-5.5c1.98-2.96,4.85-5.17,7.46-7.62c2.59-2.44,5.04-5.33,5.68-8.83
		c0.64,7.28,1.23,14.95-1.84,21.59c-0.63,1.37-1.43,2.69-2.59,3.65c-1.15,0.97-2.72,1.52-4.19,1.21L254.58,223.92z"/>
	<g>
		<path d="M255.64,223.92c-0.28-4.82,4.5-8.41,7.71-11.3c3.15-2.84,6.22-6.06,7.11-10.35c-0.69-0.09-1.38-0.18-2.07-0.28
			c0.35,4.05,0.69,8.14,0.4,12.19c-0.28,3.85-1.12,8.61-3.79,11.58c-0.83,0.92-2.56,2.15-3.84,1.63c-0.69-0.29-1.38-1.01-1.98-1.44
			c-1.35-0.98-2.7-1.95-4.05-2.93c-1.11-0.8-2.15,1.03-1.06,1.83c1.58,1.14,3.16,2.29,4.73,3.42c0.54,0.38,1.11,0.95,1.73,1.18
			c1.78,0.66,4.07-0.46,5.37-1.61c3.1-2.73,4.27-7.65,4.77-11.58c0.61-4.74,0.23-9.53-0.2-14.28c-0.09-1.11-1.81-1.54-2.07-0.28
			c-0.98,4.73-4.84,7.83-8.23,10.92c-3.19,2.9-6.92,6.62-6.66,11.3C253.62,225.26,255.72,225.27,255.64,223.92z"/>
	</g>
</g>
</svg>
