<?xml version="1.0" encoding="utf-8"?>
<!-- Generator: Adobe Illustrator 24.1.0, SVG Export Plug-In . SVG Version: 6.00 Build 0)  -->
<svg version="1.1" id="Ebene_1" xmlns="http://www.w3.org/2000/svg" xmlns:xlink="http://www.w3.org/1999/xlink" x="0px" y="0px"
	 viewBox="0 0 450 450" style="enable-background:new 0 0 450 450;" xml:space="preserve">
<style type="text/css">
	.st0{fill:#0C1260;}
</style>
<g>
	<g>
		<path class="st0" d="M62.73,83.23c-15.75-2.79-31.72-1.28-46.45,5.12c-6.01,2.61-11.97,6.52-13.73,13.24
			c-1.84,7.02,2.48,14.17,5.93,19.99c7,11.82,16.47,22.19,22.27,34.72c2.5,5.39,5.16,12.67,3.6,18.66
			c-0.41,1.57-2.57,5.72-5.06,4.84c-3.73-1.31,0.79,0.42-0.8-0.67c-1.13-0.76,1.96-1.23-0.45-0.4c7.27-2.48,4.15-14.08-3.19-11.57
			c-6.36,2.17-9.65,8.62-7.93,15.16c1.85,7.02,9.1,10.7,16,9.03c18.3-4.41,14.51-27.02,8.81-39.75
			c-6.7-14.97-18.66-26.75-25.84-41.43c-2.21-4.52-2.24-6.81,2.25-9.44c3.92-2.3,8.48-3.71,12.85-4.84
			c9.31-2.41,19.07-2.76,28.54-1.08C67.09,96.13,70.34,84.57,62.73,83.23L62.73,83.23z"/>
	</g>
</g>
<g>
	<g>
		<path class="st0" d="M80.22,232.43c-3.01-18.18-5.29-36.47-6.79-54.83c-0.75-9.12-1.31-18.26-1.68-27.4
			c-0.11-2.61-0.2-5.23-0.28-7.84c-0.05-1.56,0.89-4.98-1.31-3.05c1.28-1.13,5.11-1.41,6.77-1.81c2.26-0.54,4.53-1.06,6.83-1.37
			c6.68-0.89,14.99-0.31,19.53,5.46c4.45,5.65,1.35,13.16-3.38,17.53c-5.49,5.06-13.25,7.11-20.34,8.71
			c-4.09,0.92-8.66,1.85-12.69,0.23c-1.54-0.62-3.03-1.52-3.84-3.05c-0.51-0.98,0.35-1.55-0.18-1.41c7.46-1.96,4.3-13.54-3.19-11.57
			c-7.75,2.04-10.65,11.04-7.47,17.98c3.68,8.04,13.11,11.34,21.42,10.82c16.63-1.02,38.07-8.77,42.95-26.55
			c5.03-18.32-12.04-30.93-28.8-30.48c-5.05,0.14-10.08,1.14-14.97,2.36c-3.91,0.98-8.5,1.73-11.19,5.02
			c-3.01,3.68-2.21,8.7-2.06,13.13c0.19,5.88,0.46,11.76,0.8,17.63c1.45,24.69,4.28,49.28,8.32,73.67
			C69.9,243.23,81.47,240,80.22,232.43L80.22,232.43z"/>
	</g>
</g>
<g>
	<g>
		<path class="st0" d="M154.01,126.27c-0.03-0.18-0.05-0.37-0.08-0.55c-0.27-1.9-2.37-3.82-4.19-4.19
			c-0.22-0.04-0.43-0.09-0.65-0.13c-1.99-0.41-4.42-0.13-5.84,1.54c-2.96,3.5-2.83,8.27-3.5,12.64c-0.84,5.52-1.69,11.04-2.53,16.56
			c-1.69,11.04-3.38,22.08-5.07,33.12c-1.16,7.55,10.41,10.81,11.57,3.19c1.54-10.07,3.08-20.13,4.62-30.2
			c0.74-4.87,1.49-9.74,2.23-14.61c0.4-2.6,0.79-5.19,1.19-7.79c0.2-1.3,0.4-2.6,0.6-3.9c0.64-2.41,0.43-2.58-0.63-0.53
			c-1.95,0.51-3.89,1.03-5.84,1.54c0.22,0.04,0.43,0.09,0.65,0.13c-1.4-1.4-2.79-2.79-4.19-4.19c0.03,0.18,0.05,0.37,0.08,0.55
			C143.53,137.07,155.1,133.83,154.01,126.27L154.01,126.27z"/>
	</g>
</g>
<g>
	<g>
		<path class="st0" d="M151.67,103.39c0-3.14,0-6.27,0-9.41c0-1.93-3-1.93-3,0c0,3.14,0,6.27,0,9.41
			C148.67,105.32,151.67,105.33,151.67,103.39L151.67,103.39z"/>
	</g>
</g>
<g>
	<g>
		<path class="st0" d="M145.57,103.86c-0.81-4.41-1.02-8.82-0.69-13.29c0.14-1.93-2.86-1.92-3,0c-0.35,4.74-0.06,9.42,0.8,14.09
			C143.02,106.56,145.92,105.75,145.57,103.86L145.57,103.86z"/>
	</g>
</g>
<g>
	<g>
		<path class="st0" d="M136.67,99.13c-0.24,6.92,2.88,18.91,12.52,15.89c8.03-2.51,10.89-14.76,11.66-21.91c0.21-1.92-2.8-1.9-3,0
			c-0.61,5.66-2.33,12.25-6.21,16.61c-2.65,2.98-6.82,3.39-9.56,0.25c-2.55-2.94-2.54-7.18-2.41-10.84
			C139.74,97.19,136.74,97.2,136.67,99.13L136.67,99.13z"/>
	</g>
</g>
<g>
	<g>
		<path class="st0" d="M165.79,149.23c16.6,2.41,33.23,3.08,49.96,1.67c3.52-0.3,5.6-2.53,6-6c1.44-12.52,0.25-32.27-14.27-36.66
			c-13.3-4.02-27.88,0.62-35.45,12.31c-7.99,12.34-7.14,29.49-4.12,43.3c2.94,13.43,12.97,23.52,27.24,23.52
			c14.31-0.01,27.38-10.59,30.68-24.41c1.8-7.51-9.77-10.71-11.57-3.19c-2.27,9.47-11.72,17.03-21.73,15.42
			c-13.42-2.16-14.31-18.17-14.56-29.03c-0.27-11.53,3.38-25.8,16.99-27.08c5.38-0.5,11.2-0.32,13.23,5.37
			c2.32,6.48,2.34,13.7,1.56,20.46c2-2,4-4,6-6c-15.58,1.32-31.28,1.02-46.77-1.24C161.42,136.56,158.16,148.12,165.79,149.23
			L165.79,149.23z"/>
	</g>
</g>
<g>
	<g>
		<path class="st0" d="M240.68,74.01c0.88,38.08-0.8,76.17-5.03,114.02c-0.66,5.86,8.71,8.26,11.18,3.03
			c1.07-2.27,1.64-4.22,1.69-6.73c0.16-7.73-11.84-7.72-12,0c-0.02,0.22-0.04,0.45-0.05,0.67c3.73,1.01,7.45,2.02,11.18,3.03
			c4.23-37.86,5.91-75.94,5.03-114.02C252.5,66.3,240.5,66.27,240.68,74.01L240.68,74.01z"/>
	</g>
</g>
<g>
	<g>
		<path class="st0" d="M282.67,77.53c-6.89,53.77-8.55,108.1-4.97,162.19c0.36,5.41,6.2,7.63,10.24,4.24
			c20.14-16.84,42.96-30.48,67.37-40.17c7.09-2.82,4-14.43-3.19-11.57c-26.46,10.51-50.82,24.99-72.66,43.26
			c3.41,1.41,6.83,2.83,10.24,4.24c-3.58-54.09-1.92-108.42,4.97-162.19C295.65,69.9,283.64,69.97,282.67,77.53L282.67,77.53z"/>
	</g>
</g>
<g>
	<g>
		<path class="st0" d="M262.48,144.96c16.26,3.43,32.82,4.49,49.37,2.92c7.62-0.72,7.7-12.73,0-12
			c-15.49,1.47-30.95,0.72-46.18-2.49C258.13,131.79,254.91,143.36,262.48,144.96L262.48,144.96z"/>
	</g>
</g>
<g>
	<g>
		<path class="st0" d="M376.74,130.79c-13.15-8.91-31.67-13.5-44.59-1.48c-9.9,9.21-12.65,26.13-8.3,38.61
			c2.16,6.22,6.15,12.09,12.55,14.44c7.2,2.65,14.94,0,20.4-5.04c6.29-5.81,9.96-14.52,13.67-22.04c4.1-8.31,7.81-16.8,11.25-25.41
			c-3.86-1.06-7.71-2.13-11.57-3.19c-2.98,11.07-4.98,22.4-5.87,33.84c-0.71,9.17,0.04,18.43,6.58,25.46
			c5.27,5.67,13.74-2.83,8.49-8.49c-4.9-5.27-3.38-14.23-2.73-20.71c0.92-9.11,2.73-18.08,5.1-26.92
			c2.06-7.64-8.77-10.19-11.57-3.19c-4.65,11.62-9.9,23.06-15.99,34c-2.33,4.2-5.58,10.08-10.95,10.74c-4.62,0.57-7.12-4.26-8.21-8
			c-2.35-8.04-1.14-19.11,5.15-25.16c8.91-8.57,21.9-2.96,30.53,2.89C377.1,145.5,383.11,135.1,376.74,130.79L376.74,130.79z"/>
	</g>
</g>
<g>
	<g>
		<path class="st0" d="M444.56,123.07c-11.49-8.1-26.57-5.07-36.73,3.66c-10.87,9.35-16.35,24.52-16.84,38.55
			c-0.43,12.48,3.25,30.39,18.54,31.61c13.9,1.11,22.7-11.28,27.25-22.66c6.46-16.15,10.66-34.36,8-51.71
			c-1.01-6.63-12.36-5.14-11.79,1.6c1.22,14.32,1.61,28.7,1.03,43.06c-0.52,12.77-1.14,26.02-4.4,38.44
			c-2.4,9.15-7.63,20.98-18.19,22.77c-13.2,2.24-16.39-16.4-17.96-25.47c-1.31-7.59-12.88-4.38-11.57,3.19
			c2.36,13.68,7.19,29.93,22.52,33.83c13.85,3.52,26.71-7.48,32.38-19.16c6.28-12.94,7.49-27.73,8.55-41.87
			c1.37-18.25,1.2-36.57-0.36-54.8c-3.93,0.53-7.86,1.06-11.79,1.6c2.15,14.08-2.13,28.85-6.77,42.03
			c-1.68,4.78-3.83,9.87-7.53,13.47c-4.16,4.04-10.58,5.64-13.56-0.48c-5.4-11.07-2.12-26.83,3.86-36.95
			c5.95-10.06,18.26-18.1,29.28-10.34C444.83,137.89,450.83,127.49,444.56,123.07L444.56,123.07z"/>
	</g>
</g>
<g>
	<g>
		<path class="st0" d="M118.36,282.53c-1.81-4.59-4.55-8.05-9.01-10.32c-3.13-1.59-6.79,0.36-6.91,3.97
			c-0.19,5.68-0.29,11.36-0.28,17.05c0.01,4.6-0.61,10,0.78,14.46c2.63,8.44,13.16,7.79,19.07,3.51
			c14.66-10.63,13.17-34.98,4.4-48.72c-4.97-7.78-12.74-13.97-22.43-12.77c-8.87,1.1-17.13,7.36-22.8,13.99
			c-12.14,14.18-15.56,33.94-8.5,51.29c3.77,9.26,10.01,18.27,20.58,19.71c10.6,1.44,21.2-2.92,28.91-10.03
			c4.36-4.01-2.15-10.5-6.49-6.49c-5.82,5.36-15.23,9.52-23.24,7.06c-7.69-2.36-11.7-13.13-13.32-20.25
			c-3.61-15.91,3.17-33.03,16.71-42.16c8.49-5.72,16.27-5.08,22.24,3.63c4.66,6.8,6.6,15.51,5.41,23.66
			c-0.51,3.49-1.56,7.13-3.53,10.08c-1.33,2-6.73,7.69-8.41,3.78c-0.47-1.09-0.11-3.94-0.13-5.06c-0.04-2.53-0.05-5.05-0.05-7.58
			c0.01-5.05,0.11-10.1,0.28-15.15c-2.3,1.32-4.61,2.64-6.91,3.96c2.2,1.12,3.85,2.47,4.79,4.83
			C111.65,290.4,120.54,288.03,118.36,282.53L118.36,282.53z"/>
	</g>
</g>
<g>
	<g>
		<path class="st0" d="M106.84,278.99c-6.55-1.49-14.64-2.32-21.1,0.11c-5.9,2.22-6.68,8.72-7.11,14.28
			c-0.43,5.57,0.14,11.25,6.16,13.3c6.92,2.36,14.92,1.22,21.98,0.33c5.79-0.73,5.86-9.92,0-9.18c-3.54,0.45-7.1,0.91-10.67,0.98
			c-1.91,0.03-3.96,0.08-5.85-0.28c-2.69-0.51-2.61-0.73-2.53-3.39c0.13-4.3-0.03-7.46,4.68-8.02c4.06-0.49,8.02-0.17,12,0.74
			C110.16,289.16,112.61,280.3,106.84,278.99L106.84,278.99z"/>
	</g>
</g>
<g>
	<g>
		<path class="st0" d="M166.41,263.38c-1.12,25.02-0.24,50.04,1.19,75.02c0.29,5.13,7.44,6.28,9.02,1.22
			c0.24-0.77,0.48-1.54,0.72-2.31c1.77-5.65-7.09-8.07-8.86-2.44c-0.24,0.77-0.48,1.54-0.72,2.31c3.01,0.41,6.01,0.81,9.02,1.22
			c-1.43-24.98-2.31-50-1.19-75.02C175.85,257.47,166.67,257.48,166.41,263.38L166.41,263.38z"/>
	</g>
</g>
<g>
	<g>
		<path class="st0" d="M133.07,380.83c1.93,0,1.93-3,0-3C131.14,377.83,131.13,380.83,133.07,380.83L133.07,380.83z"/>
	</g>
</g>
<g>
	<g>
		<path class="st0" d="M202.38,258.17c-0.89,24.45-1.01,48.91-0.38,73.37c0.13,4.95,8.07,6.51,9.02,1.22c0.12-0.67,0.24-1.33,0.36-2
			c1.04-5.78-7.81-8.26-8.86-2.44c-0.12,0.67-0.24,1.33-0.36,2c3.01,0.41,6.01,0.81,9.02,1.22c-0.63-24.46-0.5-48.92,0.38-73.37
			C211.78,252.26,202.6,252.27,202.38,258.17L202.38,258.17z"/>
	</g>
</g>
<g>
	<g>
		<path class="st0" d="M170.85,305.74c7.13-1.44,14.31-2.4,21.58-2.75c6.42-0.32,12.9,0.23,19.19-1.33
			c5.74-1.42,3.31-10.27-2.44-8.86c-6.54,1.61-13.72,0.73-20.42,1.23c-6.84,0.51-13.63,1.5-20.35,2.86
			C162.62,298.05,165.07,306.91,170.85,305.74L170.85,305.74z"/>
	</g>
</g>
<g>
	<g>
		<path class="st0" d="M248.87,283.74c-9.77,3.2-19.95,8.61-22.77,19.36c-2.33,8.88,2.94,19.39,12.59,20.58
			c20.36,2.5,32.6-38.38,8.8-38.31c-5.91,0.02-5.92,9.2,0,9.18c10.02-0.03-0.71,25.85-9.97,19.1c-4.24-3.09-3.07-8.96-0.38-12.62
			c3.34-4.55,9.01-6.74,14.17-8.44C256.9,290.76,254.51,281.89,248.87,283.74L248.87,283.74z"/>
	</g>
</g>
<g>
	<g>
		<path class="st0" d="M279.54,296.81c-0.1,9.56,0.4,19.07,1.49,28.57c3.06,0,6.12,0,9.18,0c-0.7-5.54-1.2-11.09-1.41-16.67
			c-0.11-2.81-1.49-13.06,2.65-14.02c5.76-1.34,7.52,23.85,7.76,27.26c0.43,5.94,8.64,5.87,9.18,0c0.64-6.83-1.32-14.3,0.6-20.96
			c1.38-4.76,11.35-15.64,15.49-9.09c3.77,5.95,5.86,13.42,7.25,20.26c0.76,3.74,1.19,7.5,1.34,11.31c0.09,2.41-0.5,5.56,0.97,7.69
			c1.14,1.65,3.14,2.73,5.19,2.11c0.13-0.04,0.27-0.08,0.4-0.12c1.8-0.55,3.54-2.41,3.37-4.43c-0.01-0.11-0.02-0.22-0.03-0.33
			c-0.49-5.85-9.68-5.9-9.18,0c0.01,0.11,0.02,0.22,0.03,0.33c1.12-1.48,2.25-2.95,3.37-4.43c-0.13,0.04-0.27,0.08-0.4,0.12
			c1.73,0.7,3.46,1.41,5.19,2.11c0.86,1.24,0.26,1.82,0.34-0.35c0.05-1.49-0.06-3.02-0.15-4.51c-0.14-2.31-0.4-4.6-0.72-6.89
			c-0.74-5.28-1.96-10.46-3.72-15.49c-2.45-7.01-5.96-17.87-14.63-18.96c-7.72-0.97-16.71,6.5-20.55,12.69
			c-5.46,8.78-2.44,19.28-3.34,28.92c3.06,0,6.12,0,9.18,0c-0.62-8.7-1.65-18.06-4.6-26.31c-1.92-5.38-5.9-10.56-12.18-10.28
			c-17.5,0.79-11.9,29.64-10.58,40.02c0.73,5.76,9.86,5.9,9.18,0c-1.09-9.5-1.58-19.01-1.49-28.57
			C288.79,290.9,279.6,290.9,279.54,296.81L279.54,296.81z"/>
	</g>
</g>
<g>
	<g>
		<path class="st0" d="M348.32,308.2c7.91,0.63,15.84,1.48,23.77,1.88c5.42,0.27,11.23-0.64,14.61-5.35
			c7.53-10.52-3.34-22.52-13.95-23.8c-25.98-3.13-39.8,38.24-18.64,52.49c14.52,9.78,27.76-3.17,35.47-14.79
			c3.28-4.94-4.67-9.54-7.93-4.64c-5.21,7.85-15.21,19.75-24.71,9.91c-7.48-7.74-4.04-21.52,2.55-28.73
			c2.93-3.2,6.87-5.48,11.32-5.25c4,0.21,9.56,2.96,8.95,7.79c-0.64,5.05-9.37,3.05-12.76,2.78c-6.22-0.49-12.44-0.99-18.66-1.48
			C342.42,298.54,342.45,307.73,348.32,308.2L348.32,308.2z"/>
	</g>
</g>
</svg>
